<svg width="138" height="74" viewBox="0 0 138 74" fill="none" xmlns="http://www.w3.org/2000/svg">
<path d="M0.931595 60.0381H17.2759C17.2759 60.0381 9.20479 39.3557 4.54121 39.3557C-0.122368 39.3557 0.931595 60.0381 0.931595 60.0381Z" fill="#263238"/>
<path opacity="0.3" d="M0.931595 60.0381H17.2759C17.2759 60.0381 9.20479 39.3557 4.54121 39.3557C-0.122368 39.3557 0.931595 60.0381 0.931595 60.0381Z" fill="black"/>
<path d="M38.2609 62.8633H59.8315C59.8315 62.8633 53.3568 37.0898 45.8101 37.0898C38.2634 37.0898 38.2609 62.8633 38.2609 62.8633Z" fill="#263238"/>
<path opacity="0.3" d="M38.2609 62.8633H59.8315C59.8315 62.8633 53.3568 37.0898 45.8101 37.0898C38.2634 37.0898 38.2609 62.8633 38.2609 62.8633Z" fill="black"/>
<path d="M101.044 19.5765H99.6495C99.4474 19.5765 99.1378 20.7774 99.1378 21.1161C99.1378 21.4548 99.9948 22.9791 100.087 22.8867C100.179 22.7943 106.321 22.8867 107.224 22.8867C108.127 22.8867 112.085 22.1169 112.617 21.6216C113.149 21.1264 113.607 19.4867 113.548 18.9863C113.489 18.4859 111.466 16.741 109.419 16.0687C107.373 15.3964 103.791 15.5144 103.123 15.5708C102.456 15.6273 101.333 18.0137 101.141 18.509C101.021 18.8513 100.988 19.218 101.044 19.5765Z" fill="#263238"/>
<path d="M101.676 18.9966C101.719 19.3943 102.594 20.9775 102.955 21.0109C106.362 21.3317 111.422 20.9237 113.149 20.7543C113.423 20.1 113.602 19.3122 113.564 18.9889C113.505 18.4756 111.466 16.7333 109.425 16.061C107.383 15.3887 103.797 15.5041 103.129 15.5632C102.927 15.5811 102.686 15.8198 102.443 16.1303C101.474 18.083 101.632 18.5988 101.676 18.9966Z" fill="#FFC727"/>
<path d="M107.797 21.1289L113.093 20.8723C113.194 20.6344 113.279 20.3901 113.349 20.141C112.581 20.1897 108.913 20.3463 108.616 20.4489C108.319 20.5516 107.797 21.1289 107.797 21.1289Z" fill="#DBDBDB"/>
<path d="M69.2837 56.7356C69.2837 66.2043 64.2594 73.8794 58.066 73.8794H50.0487V39.5892H58.066C64.2594 39.5892 69.2837 47.2643 69.2837 56.7356Z" fill="#37474F"/>
<path d="M50.0462 73.882C43.8537 73.882 38.8337 66.2053 38.8337 56.7356C38.8337 47.2659 43.8537 39.5892 50.0462 39.5892C56.2388 39.5892 61.2588 47.2659 61.2588 56.7356C61.2588 66.2053 56.2388 73.882 50.0462 73.882Z" fill="#263238"/>
<path d="M50.0462 69.2554C45.5251 69.2554 41.86 63.6501 41.86 56.7356C41.86 49.8211 45.5251 44.2158 50.0462 44.2158C54.5673 44.2158 58.2324 49.8211 58.2324 56.7356C58.2324 63.6501 54.5673 69.2554 50.0462 69.2554Z" fill="#DBDBDB"/>
<path d="M50.0465 68.2803C45.8772 68.2803 42.4973 63.1115 42.4973 56.7356C42.4973 50.3596 45.8772 45.1909 50.0465 45.1909C54.2158 45.1909 57.5957 50.3596 57.5957 56.7356C57.5957 63.1115 54.2158 68.2803 50.0465 68.2803Z" fill="#A6A6A6"/>
<path d="M51.6325 56.053C51.2206 55.5398 50.8343 54.9111 50.3534 54.3158C50.8062 54.1721 51.0543 52.4759 50.0771 50.3589C49.279 48.3061 47.2631 45.8504 47.281 45.9119C47.5757 45.6292 47.8336 45.3102 48.0485 44.9625C50.5939 48.7551 50.7218 49.5455 51.3741 49.8534C51.8704 49.9355 52.203 49.7277 52.0162 44.9625C52.5483 45.45 53.0395 45.9273 53.4897 46.3687C53.4488 46.3251 53.3235 49.8637 52.8681 51.9499C52.4716 54.3029 51.7323 55.2062 51.6325 56.053Z" fill="#DBDBDB"/>
<path d="M50.1846 54.2824C49.7343 54.7289 49.1971 55.083 48.6624 55.5808C48.6829 54.9829 47.808 53.9078 46.1247 54.7648C44.5668 55.3396 42.1979 57.8441 42.1877 57.9544L42.1646 55.9016C45.5082 53.2252 45.9584 53.4253 46.4496 52.5452C46.7924 51.8395 46.0275 50.8028 43.917 49.2863C44.2944 48.858 44.6367 48.3998 44.9403 47.916C44.8584 47.9519 47.194 49.8303 48.1917 51.1775C49.3276 52.5554 49.7292 53.9026 50.1846 54.2824Z" fill="#DBDBDB"/>
<path d="M48.5856 55.8221C48.7135 56.5919 48.7596 57.4643 48.9028 58.3881C48.5345 58.2034 47.5623 59.1092 47.5879 61.8035C47.4754 64.2233 48.3554 68.4317 48.4398 68.5112C47.9 68.057 47.4012 67.6003 46.9407 67.1717C46.4291 62.055 46.6644 61.393 46.2986 60.4589C45.9865 59.7815 45.173 60.6514 43.6253 63.1533C43.4885 62.7362 43.2732 62.3494 42.9908 62.014C43.0139 62.0319 44.8711 58.8243 46.0198 57.7569C47.2272 56.4559 48.1738 56.4328 48.5856 55.8221Z" fill="#DBDBDB"/>
<path d="M49.0332 58.5626C49.5678 58.6011 50.1332 58.7833 50.7574 58.8423C50.4376 59.3555 50.8546 60.9157 52.2923 61.8061C53.5893 62.7838 56.7794 63.3098 56.7666 63.2764C56.3138 63.8204 55.9275 64.2875 55.6205 64.734C53.0981 63.687 51.732 62.9762 51.1999 63.2251C50.8367 63.5561 50.5757 63.9641 52.4483 67.572C52.1468 67.8532 51.8767 68.1664 51.6425 68.5061C51.5888 68.3906 50.0309 65.0983 49.5601 62.9557C48.9129 60.6 49.3453 59.3966 49.0332 58.5626Z" fill="#DBDBDB"/>
<path d="M50.9159 58.7089C51.1231 57.9545 51.4275 57.2 51.6654 56.3199C51.8854 56.9871 53.0136 56.6714 54.0062 54.9265C55.0115 53.3869 56.2087 49.3402 56.1857 49.4608C56.3235 49.9307 56.5295 50.3777 56.7971 50.7875C55.3901 54.1875 54.592 55.9067 54.5996 56.7381C54.7224 57.3437 54.8555 57.8929 57.9253 55.9196C57.9253 56.615 57.9074 57.3078 57.8972 57.9981C57.8255 58.0135 55.3108 59.199 53.8322 59.2298C52.1694 59.4505 51.5426 58.5139 50.9159 58.7089Z" fill="#DBDBDB"/>
<path d="M51.2412 58.306C50.6247 59.2991 49.6091 59.3658 48.967 58.4779C48.3249 57.5901 48.2967 56.0556 48.903 55.0779C49.5093 54.1002 50.5198 54.013 51.1696 54.8906C51.8193 55.7682 51.8603 57.3206 51.2412 58.306Z" fill="#DBDBDB"/>
<path d="M136.4 56.7356C136.4 66.2043 131.376 73.8794 125.183 73.8794H117.165V39.5892H125.183C131.376 39.5892 136.4 47.2643 136.4 56.7356Z" fill="#37474F"/>
<path d="M117.163 73.882C110.97 73.882 105.95 66.2053 105.95 56.7356C105.95 47.2659 110.97 39.5892 117.163 39.5892C123.355 39.5892 128.375 47.2659 128.375 56.7356C128.375 66.2053 123.355 73.882 117.163 73.882Z" fill="#263238"/>
<path d="M117.163 69.2554C112.642 69.2554 108.977 63.6501 108.977 56.7356C108.977 49.8211 112.642 44.2158 117.163 44.2158C121.684 44.2158 125.349 49.8211 125.349 56.7356C125.349 63.6501 121.684 69.2554 117.163 69.2554Z" fill="#DBDBDB"/>
<path d="M117.163 68.2803C112.994 68.2803 109.614 63.1115 109.614 56.7356C109.614 50.3596 112.994 45.1909 117.163 45.1909C121.333 45.1909 124.712 50.3596 124.712 56.7356C124.712 63.1115 121.333 68.2803 117.163 68.2803Z" fill="#A6A6A6"/>
<path d="M118.749 56.053C118.337 55.5398 117.951 54.9111 117.47 54.3158C117.923 54.1721 118.171 52.4759 117.194 50.3589C116.396 48.3061 114.38 45.8504 114.398 45.9119C114.692 45.6292 114.95 45.3102 115.165 44.9625C117.711 48.7551 117.838 49.5455 118.491 49.8534C118.987 49.9355 119.32 49.7277 119.133 44.9625C119.665 45.45 120.156 45.9273 120.606 46.3687C120.566 46.3251 120.44 49.8637 119.985 51.9499C119.588 54.3029 118.849 55.2062 118.749 56.053Z" fill="#DBDBDB"/>
<path d="M117.301 54.2824C116.851 54.7289 116.314 55.083 115.779 55.5808C115.8 54.9829 114.925 53.9078 113.241 54.7648C111.683 55.3396 109.315 57.8441 109.304 57.9544L109.281 55.9016C112.625 53.2252 113.073 53.4253 113.566 52.5452C113.909 51.8395 113.144 50.8028 111.034 49.2863C111.411 48.8581 111.753 48.3998 112.057 47.916C111.978 47.9519 114.313 49.8303 115.308 51.1775C116.444 52.5554 116.838 53.9026 117.301 54.2824Z" fill="#DBDBDB"/>
<path d="M115.702 55.8221C115.83 56.5919 115.876 57.4643 116.02 58.3881C115.651 58.2034 114.676 59.1092 114.705 61.8035C114.592 64.2233 115.472 68.4317 115.556 68.5112C115.017 68.057 114.518 67.6003 114.057 67.1717C113.546 62.055 113.781 61.393 113.415 60.4589C113.103 59.7815 112.29 60.6514 110.742 63.1533C110.605 62.7362 110.39 62.3494 110.108 62.014C110.131 62.0319 111.988 58.8243 113.136 57.7569C114.344 56.4559 115.29 56.4328 115.702 55.8221Z" fill="#DBDBDB"/>
<path d="M116.15 58.5626C116.685 58.6011 117.25 58.7833 117.874 58.8423C117.554 59.3555 117.971 60.9157 119.409 61.8061C120.706 62.7838 123.896 63.3098 123.883 63.2764C123.43 63.8204 123.044 64.2875 122.737 64.734C120.212 63.687 118.849 62.9762 118.317 63.2251C117.953 63.5561 117.692 63.9641 119.565 67.572C119.263 67.8526 118.993 68.1658 118.759 68.5061C118.705 68.3906 117.148 65.0983 116.677 62.9557C116.03 60.6 116.462 59.3966 116.15 58.5626Z" fill="#DBDBDB"/>
<path d="M118.033 58.7089C118.24 57.9545 118.544 57.2 118.782 56.3199C119.002 56.9871 120.128 56.6714 121.123 54.9265C122.128 53.3869 123.326 49.3402 123.303 49.4608C123.44 49.9307 123.646 50.3777 123.914 50.7875C122.507 54.1875 121.709 55.9067 121.714 56.7381C121.839 57.3437 121.97 57.8929 125.04 55.9196C125.04 56.615 125.022 57.3078 125.011 57.9981C124.94 58.0135 122.425 59.199 120.946 59.2298C119.286 59.4505 118.659 58.5139 118.033 58.7089Z" fill="#DBDBDB"/>
<path d="M118.357 58.306C117.741 59.2991 116.723 59.3658 116.081 58.4779C115.439 57.5901 115.413 56.0556 116.019 55.0779C116.626 54.1002 117.636 54.013 118.286 54.8906C118.936 55.7682 118.971 57.3206 118.357 58.306Z" fill="#DBDBDB"/>
<path d="M19.1152 60.3948C19.1152 67.8363 17.1787 73.8794 14.7893 73.8794H6.13754V46.9076H14.7996C17.1889 46.9076 19.1152 52.9455 19.1152 60.3948Z" fill="#37474F"/>
<path d="M6.14528 73.882C3.75615 73.882 1.81939 67.8435 1.81939 60.3948C1.81939 52.946 3.75615 46.9076 6.14528 46.9076C8.53441 46.9076 10.4712 52.946 10.4712 60.3948C10.4712 67.8435 8.53441 73.882 6.14528 73.882Z" fill="#263238"/>
<path d="M6.14531 70.2433C4.40044 70.2433 2.98595 65.834 2.98595 60.3948C2.98595 54.9556 4.40044 50.5462 6.14531 50.5462C7.89018 50.5462 9.30469 54.9556 9.30469 60.3948C9.30469 65.834 7.89018 70.2433 6.14531 70.2433Z" fill="#DBDBDB"/>
<path d="M6.1453 69.476C4.53606 69.476 3.23153 65.4102 3.23153 60.3948C3.23153 55.3793 4.53606 51.3135 6.1453 51.3135C7.75453 51.3135 9.05908 55.3793 9.05908 60.3948C9.05908 65.4102 7.75453 69.476 6.1453 69.476Z" fill="#A6A6A6"/>
<path d="M6.75932 59.8585C6.59816 59.4607 6.44979 58.9604 6.26815 58.4908C6.44211 58.3779 6.53931 57.0435 6.1607 55.3781C5.90058 54.1839 5.54031 53.0139 5.08371 51.8806C5.20466 51.6408 5.30479 51.3909 5.38301 51.1339C6.36536 54.1182 6.40629 54.7264 6.66211 54.983C6.85397 55.0471 6.98188 54.8829 6.91793 51.1339C7.12258 51.5162 7.31188 51.9037 7.48584 52.2399C7.47049 52.2065 7.42188 54.9907 7.24537 56.6304C7.09188 58.4831 6.7977 59.1913 6.75932 59.8585Z" fill="#DBDBDB"/>
<path d="M6.19873 58.4702C6.02477 58.8218 5.81755 59.0989 5.61289 59.4967C5.61289 59.0296 5.2829 58.1828 4.63312 58.8551C4.03194 59.3093 3.11611 61.2826 3.11355 61.3648C3.11355 60.831 3.11355 60.2956 3.11355 59.7584C4.40544 57.6517 4.57939 57.8108 4.7687 57.1179C4.90172 56.5637 4.60497 55.7476 3.79146 54.5519C3.94234 54.2001 4.07387 53.8403 4.18544 53.4741C4.15474 53.5023 5.05777 54.9804 5.4415 56.0402C5.86872 57.1051 6.02222 58.1649 6.19873 58.4702Z" fill="#DBDBDB"/>
<path d="M5.58227 59.6711C5.63088 60.2844 5.6488 60.9542 5.70508 61.6804C5.56182 61.5341 5.19344 62.2475 5.19344 64.367C5.20039 66.1305 5.30971 67.8921 5.52088 69.6428C5.31367 69.2836 5.11924 68.9269 4.94273 68.5908C4.74319 64.5646 4.83528 64.0437 4.68691 63.3098C4.56667 62.7761 4.25202 63.4612 3.66363 65.4268C3.61312 65.1194 3.52728 64.8189 3.40781 64.5313C3.40781 64.5467 4.13434 62.0242 4.57691 61.1826C5.04506 60.1844 5.42367 60.1561 5.58227 59.6711Z" fill="#DBDBDB"/>
<path d="M5.75628 61.8318C5.96093 61.8625 6.17837 62.0037 6.4214 62.0524C6.29861 62.4553 6.45722 63.6819 7.01747 64.385C7.51631 65.1548 8.7468 65.5654 8.74168 65.5397C8.56773 65.9682 8.41934 66.3352 8.30167 66.6867C7.327 65.863 6.80001 65.3036 6.59536 65.5012C6.45466 65.7578 6.35233 66.0811 7.0763 68.9192C6.95292 69.1551 6.84854 69.4005 6.76419 69.6531C6.74373 69.5633 6.14256 66.9716 5.96093 65.2908C5.70767 63.4355 5.87651 62.4938 5.75628 61.8318Z" fill="#DBDBDB"/>
<path d="M6.48275 61.9472C6.56206 61.3545 6.67718 60.7617 6.77183 60.0663C6.85625 60.5795 7.28347 60.3434 7.67488 58.9706C8.06116 57.762 8.52419 54.5775 8.51396 54.6725C8.56483 55.0265 8.64439 55.3758 8.75187 55.7168C8.20953 58.3907 7.89999 59.743 7.90255 60.3973C7.95115 60.8721 7.99976 61.3057 9.18164 59.7533C9.18164 60.2998 9.18164 60.8438 9.18164 61.3878C9.1535 61.4007 8.18394 62.3321 7.61347 62.3552C6.96625 62.5297 6.72322 61.7933 6.48275 61.9472Z" fill="#DBDBDB"/>
<path d="M6.60803 61.6316C6.36756 62.4014 5.97616 62.463 5.72801 61.7651C5.47842 60.8924 5.47047 59.9681 5.705 59.0912C5.94035 58.3214 6.32919 58.2521 6.57989 58.9424C6.83259 59.8196 6.84231 60.7493 6.60803 61.6316Z" fill="#DBDBDB"/>
<path d="M85.9736 60.3948C85.9736 67.8363 84.0345 73.8794 81.6452 73.8794H72.9934V46.9076H81.6452C84.0345 46.9076 85.9736 52.9455 85.9736 60.3948Z" fill="#37474F"/>
<path d="M72.9934 73.882C70.6043 73.882 68.6675 67.8435 68.6675 60.3948C68.6675 52.946 70.6043 46.9076 72.9934 46.9076C75.3826 46.9076 77.3193 52.946 77.3193 60.3948C77.3193 67.8435 75.3826 73.882 72.9934 73.882Z" fill="#263238"/>
<path d="M72.9935 70.2433C71.2486 70.2433 69.8341 65.834 69.8341 60.3948C69.8341 54.9556 71.2486 50.5462 72.9935 50.5462C74.7383 50.5462 76.1528 54.9556 76.1528 60.3948C76.1528 65.834 74.7383 70.2433 72.9935 70.2433Z" fill="#DBDBDB"/>
<path d="M72.9905 69.476C71.3813 69.476 70.0767 65.4102 70.0767 60.3948C70.0767 55.3793 71.3813 51.3135 72.9905 51.3135C74.5998 51.3135 75.9043 55.3793 75.9043 60.3948C75.9043 65.4102 74.5998 69.476 72.9905 69.476Z" fill="#A6A6A6"/>
<path d="M73.6045 59.8585C73.4459 59.4607 73.295 58.9604 73.1134 58.4908C73.2873 58.3779 73.3845 57.0435 73.0059 55.3781C72.7458 54.1839 72.3855 53.0139 71.9289 51.8806C72.051 51.6413 72.1511 51.3913 72.2282 51.1339C73.2106 54.1182 73.2515 54.7264 73.5073 54.983C73.6992 55.0471 73.8271 54.8829 73.7631 51.1339C73.9703 51.5162 74.1571 51.9037 74.3311 52.2399C74.3157 52.2065 74.2671 54.9907 74.0931 56.6304C73.9269 58.4831 73.6429 59.1913 73.6045 59.8585Z" fill="#DBDBDB"/>
<path d="M73.0444 58.4702C72.8705 58.8218 72.6658 59.0989 72.4586 59.4967C72.4586 59.0296 72.1286 58.1828 71.4788 58.8551C70.8776 59.3093 69.9644 61.2826 69.9593 61.3648V59.7584C71.2384 57.6517 71.4225 57.8108 71.6118 57.1179C71.7449 56.5637 71.4481 55.7476 70.6346 54.5519C70.7866 54.2006 70.9182 53.8407 71.0286 53.4741C70.9979 53.5023 71.9009 54.9804 72.2847 56.0402C72.7144 57.1051 72.8705 58.1649 73.0444 58.4702Z" fill="#DBDBDB"/>
<path d="M72.428 59.6711C72.4766 60.2844 72.4945 60.9542 72.5508 61.6804C72.4075 61.5341 72.0391 62.2475 72.0391 64.367C72.0475 66.1305 72.1568 67.892 72.3666 69.6428C72.1594 69.2836 71.9675 68.9269 71.7884 68.5908C71.5889 64.5646 71.6836 64.0437 71.5326 63.3098C71.4124 62.7761 71.0977 63.4612 70.5093 65.4268C70.4588 65.1194 70.373 64.8189 70.2535 64.5313C70.2535 64.5467 70.9801 62.0242 71.4226 61.1826C71.9036 60.1844 72.2694 60.1561 72.428 59.6711Z" fill="#DBDBDB"/>
<path d="M72.602 61.8318C72.8066 61.8625 73.0266 62.0037 73.2671 62.0524C73.1443 62.4553 73.3029 63.6819 73.8632 64.385C74.362 65.1548 75.5925 65.5654 75.5874 65.5397C75.4134 65.9682 75.2651 66.3352 75.1474 66.6867C74.1727 65.863 73.6457 65.3036 73.4411 65.5012C73.3004 65.7578 73.2006 66.0811 73.922 68.9192C73.7969 69.155 73.6909 69.4004 73.6048 69.6531C73.5818 69.5633 72.9806 66.9716 72.799 65.2908C72.5534 63.4355 72.7222 62.4938 72.602 61.8318Z" fill="#DBDBDB"/>
<path d="M73.3285 61.9472C73.4078 61.3545 73.5254 60.7617 73.6175 60.0663C73.7019 60.5795 74.1292 60.3434 74.5206 58.9706C74.9069 57.762 75.3699 54.5775 75.3597 54.6725C75.4105 55.0265 75.4901 55.3758 75.5976 55.7168C75.0552 58.3907 74.7457 59.743 74.7482 60.3973C74.7969 60.8721 74.8455 61.3057 76.0273 59.7533C76.0273 60.299 76.0273 60.8438 76.0273 61.3878C75.9992 61.4007 75.0296 62.3321 74.4592 62.3552C73.8119 62.5297 73.5689 61.7933 73.3285 61.9472Z" fill="#DBDBDB"/>
<path d="M73.4537 61.6316C73.2158 62.4014 72.8219 62.463 72.5737 61.7651C72.3241 60.8924 72.3162 59.9681 72.5507 59.0912C72.7886 58.3214 73.1749 58.2521 73.4256 58.9424C73.6796 59.8194 73.6893 60.7494 73.4537 61.6316Z" fill="#DBDBDB"/>
<path d="M0.351028 60.1843C0.351028 60.1843 0.394501 43.2124 1.09544 37.6569C1.79639 32.1014 3.07549 29.3532 3.36713 29.0016C3.65875 28.6501 4.82529 26.1379 5.2346 25.4348C5.64391 24.7317 7.91559 22.8687 8.08955 22.5711C8.2635 22.2734 11.9064 12.7995 12.4385 11.8193C12.6406 11.4395 12.8171 10.1513 13.2545 9.47903C13.692 8.80672 16.5418 6.83086 22.5177 4.50088C28.4937 2.1709 36.5878 1.34206 38.8697 1.19836C41.1516 1.05466 77.6954 0.875037 84.5743 2.48139C91.4533 4.08774 108.056 19.5739 109.875 20.9006C110.195 21.1341 120.66 22.6968 123.75 24.2056C125.522 25.0692 127.232 26.0552 128.867 27.1566C128.867 27.1566 132.581 32.3247 132.699 32.4709C132.817 32.6172 134.387 34.049 134.592 34.6059C134.797 35.1627 135.554 38.6987 135.7 39.0503C135.846 39.4018 137.071 42.2373 137.158 43.3176C137.245 44.398 137.158 48.4652 137.158 48.6397C137.158 48.8141 137.624 51.3879 137.624 53.1713C137.624 54.9547 137.304 62.2372 137.304 62.717C137.304 63.1969 59.0973 65.0265 58.6906 64.911C58.2838 64.7956 56.3575 38.8168 44.467 38.8168C39.0437 38.8168 36.8513 48.0546 38.7162 62.8505L12.6943 62.2372C12.6943 62.2372 9.16142 40.0664 4.10645 41.8653C1.36919 42.8378 0.407288 49.9868 0.67334 60.3178L0.351028 60.1843Z" fill="#FFC727"/>
<path opacity="0.1" d="M137.624 53.1713C137.624 54.9675 137.304 62.2372 137.304 62.717C137.304 63.1969 59.0999 65.0265 58.6906 64.911C58.2812 64.7956 56.36 38.8168 44.467 38.8168C39.0436 38.8168 36.8513 48.0546 38.7162 62.8479L12.6943 62.2372C12.6943 62.2372 9.16141 40.0664 4.10643 41.8652C1.36917 42.8378 0.407272 49.9868 0.673325 60.3178L0.34845 60.2049C0.34845 60.2049 0.394485 43.2304 1.09286 37.6774C1.79126 32.1245 3.07547 29.3737 3.36711 29.0221C3.65874 28.6706 4.82527 26.1584 5.23203 25.4553C5.63878 24.7522 7.91557 22.8892 8.08954 22.5916C8.123 22.5384 8.15373 22.4836 8.18163 22.4274L41.3716 22.3709L47.6673 21.6242C47.6673 21.6242 82.3538 28.7732 85.2088 29.0811C88.0637 29.3891 126.281 28.5525 127.373 28.3344C127.696 28.265 128 28.1224 128.26 27.9174C128.52 27.7123 128.731 27.4504 128.875 27.1515C128.875 27.1515 132.581 32.3246 132.699 32.4709C132.817 32.6172 134.39 34.0516 134.595 34.6059C134.799 35.1601 135.557 38.6987 135.702 39.0477C135.848 39.3967 137.074 42.2373 137.158 43.3202C137.242 44.4031 137.158 48.4652 137.158 48.6396C137.158 48.8141 137.624 51.3879 137.624 53.1713Z" fill="black"/>
<path opacity="0.1" d="M12.6944 59.3991C12.6944 59.3991 14.0937 43.0611 16.2759 39.992C18.458 36.923 33.0218 38.6705 34.6437 40.6926C36.6109 43.1457 37.647 62.7068 37.647 62.7068L12.6944 59.3991Z" fill="black"/>
<path d="M47.6725 21.6242C47.6725 21.6242 44.6461 10.2027 41.8577 4.25712C41.5072 3.51039 75.6412 1.84759 89.0333 4.25712C90.4685 4.51372 97.987 9.53037 110.763 20.9237C111.018 21.1572 103.068 20.703 82.9116 20.7902C62.7556 20.8775 48.5346 21.7114 47.6725 21.6242Z" fill="#263238"/>
<path d="M48.8822 20.8313C48.8822 20.8313 45.9709 10.2335 43.2874 4.71644C42.9523 4.02617 76.3136 2.4814 89.1992 4.71644C90.5807 4.95508 97.2857 9.60991 109.578 20.1821C109.834 20.3976 102.174 19.9768 82.7833 20.0589C63.3922 20.141 49.7238 20.9237 48.8822 20.8313Z" fill="#37474F"/>
<path opacity="0.4" d="M106.861 20.2257C103.74 18.9914 99.3911 17.285 93.3359 14.9191C75.0602 7.77775 55.9454 9.22244 45.2419 9.46108C44.8249 8.21911 43.684 5.56837 43.2721 4.71644C42.9344 4.02617 76.2984 2.4814 89.1814 4.71644C90.5628 4.95508 97.2704 9.60991 109.563 20.1821C109.675 20.2539 108.816 20.2539 106.861 20.2257Z" fill="#455A64"/>
<path d="M44.508 21.5395C44.7357 21.3907 41.8168 9.25836 38.6728 6.13034C34.8483 2.32487 21.6224 7.33125 16.46 10.236C16.2298 10.3669 12.9348 14.7446 12.8785 14.9293C12.8223 15.1141 12.8043 18.3602 13.2776 19.443C13.6984 20.3817 14.454 21.1286 15.3958 21.5369C16.0814 21.7936 38.3837 23.269 39.2356 23.2536C40.0875 23.2382 44.2906 21.6935 44.508 21.5395Z" fill="#263238"/>
<path d="M41.3179 13.9953C40.5504 11.0341 39.0309 8.11646 37.6955 6.81033C34.0987 3.32563 21.6505 7.92913 16.79 10.603C16.5725 10.7236 13.4643 14.7395 13.4106 14.9062C13.3569 15.073 13.4106 17.8008 13.8711 18.7938C14.274 19.6577 14.9823 20.3408 15.8588 20.7107C16.5034 20.9519 37.4346 22.2349 38.2225 22.0861C38.642 22.0219 41.4816 14.6291 41.3179 13.9953Z" fill="#37474F"/>
<path opacity="0.4" d="M39.5806 9.53034C28.0354 9.96657 19.3862 13.9132 13.487 16.9719C13.4066 16.2908 13.3801 15.6044 13.4077 14.9191C13.4666 14.7523 16.5696 10.7338 16.7896 10.6158C21.6502 7.93939 34.0958 3.33844 37.6926 6.82058C38.4533 7.6242 39.0897 8.53759 39.5806 9.53034Z" fill="#455A64"/>
<path d="M14.3289 20.1154C14.3699 19.8921 16.0583 16.0867 16.6466 14.7985C17.235 13.5103 19.7779 8.9761 19.8648 8.94018C19.9518 8.90425 20.8088 8.41414 20.7602 8.55783C20.7116 8.70153 17.6623 14.3058 17.4576 14.8549C17.1506 15.6889 15.2959 20.8339 15.2959 20.8339L14.3289 20.1154Z" fill="#263238"/>
<path d="M24.7764 21.5754C24.7764 21.5754 25.595 16.6845 26.4418 13.4231C27.1522 10.8706 28.0377 8.37039 29.092 5.94044C29.1355 5.91735 31.2333 5.5427 31.2998 5.53757C31.3663 5.53244 29.2072 11.2778 28.6904 13.1793C28.1737 15.0807 27.5341 21.7705 27.4855 21.773C27.4369 21.7756 24.9657 21.5934 24.7764 21.5754Z" fill="#263238"/>
<g opacity="0.2">
<path d="M30.0464 5.91736C29.0973 8.43723 28.0408 10.9212 27.3117 13.5155C26.8006 16.159 26.4309 18.8281 26.204 21.5113C26.5724 19.1582 26.9945 15.848 27.4984 13.5565C27.7543 12.4274 28.381 10.8545 28.7468 9.73565C29.1868 8.45262 29.6243 7.19526 30.0464 5.91736Z" fill="black"/>
</g>
<g opacity="0.2">
<path d="M20.1387 8.94272C19.2459 10.5003 18.0051 12.7918 17.1354 14.3956C16.2374 16.2663 15.58 18.2447 14.879 20.1975C15.5697 18.5346 16.4626 16.0404 17.2505 14.452C18.11 12.838 19.3252 10.5542 20.1387 8.94272Z" fill="black"/>
</g>
<path d="M128.879 37.4722C128.879 37.603 128.419 38.6089 127.733 39.9587C127.429 40.5668 127.076 41.2417 126.71 41.9448C126.278 42.7506 125.815 43.5871 125.352 44.38C124.965 45.042 124.584 45.663 124.218 46.2199C123.627 47.1231 123.093 47.8185 122.706 48.1136C121.016 49.3966 96.1243 49.3402 95.4822 49.1657C95.2801 49.1092 94.2722 48.1085 92.988 46.7433C92.4635 46.1839 91.8905 45.5604 91.3072 44.9189C90.637 44.185 89.954 43.4229 89.3093 42.689C88.6646 41.9551 88.043 41.2314 87.5186 40.6182C86.6565 39.5917 86.0732 38.8219 86.0297 38.6397C86.0178 38.5321 86.0402 38.4234 86.0937 38.3292C86.3213 37.8494 87.0606 37.0873 87.8409 36.3944C88.7618 35.581 89.7391 34.8548 89.9923 34.8394C90.5168 34.7804 124.564 33.9618 125.787 34.2261C126.001 34.2723 126.787 34.9959 127.511 35.7657C128.01 36.249 128.455 36.785 128.838 37.3644C128.858 37.3977 128.872 37.4341 128.879 37.4722Z" fill="#263238"/>
<path d="M128.841 37.3464C127.493 37.5671 124.774 37.9956 124.188 38.0213C123.397 38.0572 93.7122 38.5807 92.6199 38.5345C91.8524 38.5037 88.207 38.3857 86.0965 38.319C86.3242 37.8391 87.0635 37.077 87.8437 36.3842C89.6984 36.5792 91.9368 36.7793 92.2694 36.7793C92.7938 36.7793 122.876 36.438 123.62 36.4329C124.109 36.4329 126.178 36.0198 127.514 35.7426C128.013 36.2275 128.458 36.7653 128.841 37.3464Z" fill="#37474F"/>
<path d="M127.733 39.9587C127.429 40.5668 127.076 41.2417 126.71 41.9448C125.61 42.1116 124.538 42.263 124.195 42.2784C123.405 42.3169 93.7197 42.8404 92.6273 42.7916C92.1873 42.7762 90.8059 42.7275 89.3017 42.6838C88.6494 41.9397 88.0354 41.2263 87.511 40.613C89.4168 40.8132 91.9136 41.0364 92.259 41.0364C92.7834 41.0364 122.865 40.6977 123.61 40.6926C124.134 40.6951 126.403 40.2358 127.733 39.9587Z" fill="#37474F"/>
<path d="M125.344 44.38C124.958 45.042 124.577 45.663 124.211 46.2199H124.188C123.438 46.2532 96.5595 46.7331 92.978 46.7331C92.4536 46.1737 91.8805 45.5501 91.2973 44.9086C91.7936 44.9497 92.1517 44.9753 92.2668 44.9753C92.7913 44.9753 122.873 44.6315 123.617 44.6289C124.197 44.5777 124.774 44.4946 125.344 44.38Z" fill="#37474F"/>
<path d="M0.673203 60.3075C0.673203 60.3075 0.020874 39.8535 3.72256 37.9828C7.42427 36.1121 9.74967 42.1347 11.0902 45.8195C12.4307 49.5044 13.6484 55.4679 13.9195 55.5269C14.1907 55.586 37.6442 56.2377 37.7619 56.2069C37.8795 56.1762 37.5726 38.1085 43.0369 35.1858C47.9742 32.5453 52.1645 37.97 54.7841 42.4375C58.2325 48.3163 60.9416 61.0568 61.0516 61.0568C62.231 61.0568 83.9628 60.7386 84.1802 60.695C84.3977 60.6514 91.0004 56.1402 91.5683 56.053C92.1362 55.9657 126.155 54.8675 126.853 54.8675C127.552 54.8675 132.318 59.0784 132.538 59.0784C132.758 59.0784 137.552 58.968 137.623 58.9911C137.695 59.0142 137.608 62.8069 137.521 62.8941C137.434 62.9813 58.2351 65.6808 58.2786 65.3165C58.322 64.9521 54.8736 51.6496 51.2128 44.398C48.3272 38.6833 42.9499 36.0326 40.9801 44.3107C39.0333 52.4964 38.9335 62.7299 38.7135 62.8633C38.4935 62.9967 13.1725 62.6503 12.6916 62.2398C12.2107 61.8292 9.36594 41.7575 4.64607 41.8473C-0.0737915 41.9371 1.06461 60.4281 1.06461 60.4281L0.673203 60.3075Z" fill="#263238"/>
<path d="M131.164 52.499C131.42 52.44 136.751 50.0433 136.956 49.6481C137.161 49.2529 137.176 45.1755 136.956 45.2191C136.736 45.2627 132.934 48.5755 132.671 48.8603C132.407 49.1452 130.75 52.5965 131.164 52.499Z" fill="#263238"/>
<path d="M131.489 53.4433C131.42 53.2355 136.92 51.2493 137.117 51.2057C137.314 51.1621 137.526 53.8128 137.352 54.0438C137.178 54.2747 133.374 54.9778 133.067 54.8906C132.76 54.8033 131.619 53.8359 131.489 53.4433Z" fill="#263238"/>
<path d="M14.472 49.5609L36.3906 52.9378C36.3906 52.9378 35.2267 51.1544 34.0601 50.5693C32.8936 49.9843 20.5017 46.7202 18.1993 46.8562C15.897 46.9922 14.472 49.5609 14.472 49.5609Z" fill="#FFC727"/>
<path d="M1.58924 38.437C1.58924 38.437 2.08553 33.7001 4.00929 32.4427C6.07375 31.0929 7.97193 32.6993 9.54522 35.8915C10.8243 38.4755 12.0522 44.7213 12.0522 44.7213C12.0522 44.7213 9.67824 37.1206 6.81818 34.824C6.32379 34.4206 5.69854 34.214 5.06191 34.2438C4.42528 34.2737 3.82194 34.5377 3.36719 34.9856C2.14181 36.2379 1.58924 38.437 1.58924 38.437Z" fill="#FFC727"/>
<path d="M8.28144 26.3611C11.162 26.338 20.4763 26.9513 24.5873 27.3439C28.6984 27.7365 40.8037 29.2069 40.8037 29.2069C40.8037 29.2069 38.0639 30.0537 37.3655 30.1178C36.6671 30.182 16.7516 29.4558 15.4827 29.4199C14.2139 29.384 8.28144 26.3611 8.28144 26.3611Z" fill="#FFC727"/>
<g opacity="0.1">
<path d="M58.2812 26.8872C55.0196 26.0147 51.2206 25.2885 47.9973 24.3442C47.9075 24.3167 47.8216 24.2779 47.7415 24.2288C47.7415 24.2288 47.7543 24.2416 47.7415 24.2519C47.7415 24.2005 47.7262 23.3948 47.721 23.3255C47.7006 22.7584 47.6878 22.1913 47.6596 21.6242C47.6315 22.1913 47.6187 22.7584 47.5957 23.3255L47.5778 24.1774V24.2313C47.565 24.3237 47.6622 24.3878 47.7185 24.4161C48.9643 24.9524 50.3099 25.1859 51.612 25.5426C53.8198 26.0558 56.0326 26.5202 58.2633 26.8872H58.2812Z" fill="black"/>
<path d="M14.3267 18.9966C13.1141 20.2334 11.9322 21.4933 10.7452 22.7558C10.7012 22.7986 10.6641 22.8479 10.6352 22.9021C10.5206 23.306 10.4351 23.7176 10.3794 24.1338C10.352 24.3001 10.2824 24.4565 10.1773 24.588C9.66563 25.4553 9.03632 26.2893 8.71399 27.2593C8.42236 29.6483 8.16908 32.2348 7.96699 34.6341C8.16141 33.3921 8.40699 31.5548 8.57328 30.2872C8.69607 29.3865 8.7984 28.4653 8.91096 27.5621C8.96212 27.0232 9.28446 26.5895 9.53516 26.1199C9.83958 25.5785 10.2028 25.0088 10.5226 24.4751C10.6838 24.0235 10.6736 23.5513 10.7989 23.1048C10.8107 23.0595 10.8252 23.0149 10.8424 22.9714L10.8885 22.9201C12.0448 21.6242 13.1908 20.3181 14.3215 18.9966H14.3267Z" fill="black"/>
<path d="M25.1396 21.4035C24.3108 22.6865 23.3131 24.0645 22.6787 25.4733C22.6582 26.0198 22.7094 26.9693 22.7145 27.5261C22.7324 27.9088 22.7205 28.2923 22.6787 28.6732C22.5539 29.0084 22.4505 29.3512 22.3691 29.6996C22.1133 30.8055 21.8447 31.8987 21.6759 33.0354C21.6094 34.9215 21.7091 36.7999 21.7884 38.6808C21.8089 37.8058 21.8294 33.8386 21.8959 33.056C22.0724 31.9577 22.3512 30.8543 22.6173 29.7714C22.6916 29.4327 22.7881 29.0992 22.9064 28.7732C22.9618 28.3617 22.9755 27.9456 22.9473 27.5313C22.9319 26.9847 22.8833 26.0378 22.8808 25.5015C23.4257 24.2467 24.472 22.6301 25.1396 21.4138V21.4035Z" fill="black"/>
<path d="M41.855 21.9167C41.0023 23.9593 40.1751 26.0121 39.3735 28.0753C39.1586 28.6937 38.8031 29.3583 38.8747 30.0306C38.8747 30.4129 38.9233 30.98 38.9131 31.3496V31.4009C38.85 31.5878 38.7971 31.7779 38.7544 31.9705C38.4842 33.0647 38.2809 34.1745 38.1456 35.2936C38.1456 36.4996 38.0919 38.7116 38.0765 39.9382L38.0535 42.5992C38.1635 40.826 38.2454 39.0554 38.3093 37.2823C38.3784 36.3944 38.2914 35.5348 38.4449 34.6469C38.6419 33.5538 38.8772 32.4581 39.1535 31.3855C39.1535 30.98 39.1177 30.4514 39.1049 30.046C39.0889 29.8351 39.0992 29.6231 39.1356 29.4147C39.3914 28.5962 39.7342 27.7571 40.0284 26.9257C40.4889 25.6863 41.4022 23.1741 41.8473 21.927L41.855 21.9167Z" fill="black"/>
</g>
<path d="M65.5104 44.4288C65.5104 44.4288 80.8416 47.467 83.1747 48.7243C85.5077 49.9817 89.1787 52.2706 89.1787 52.2706H112.09C123.806 52.2706 128.063 50.7464 128.063 50.7464C128.063 50.7464 131.501 45.2473 132.376 44.4288C133.251 43.6102 136.4 41.7087 136.4 41.7087C136.4 41.7087 136.4 42.7352 135.873 43.3433C135.346 43.9515 133.425 45.2987 133.018 45.7682C132.612 46.2378 129.813 51.7908 129.754 52.0243C129.695 52.2578 129.637 53.5434 129.345 53.7205C129.053 53.8975 88.5955 55.1241 87.8383 54.8906C87.081 54.6571 82.3023 50.7464 81.0232 50.3358C79.7441 49.9253 66.0936 46.071 66.0936 46.071L65.5104 44.4288Z" fill="#FFC727"/>
<path d="M62.7706 50.8029C62.8295 50.3358 65.7432 46.243 66.0963 46.0659C66.4493 45.8889 80.9031 50.0536 81.778 50.3127C82.6529 50.5719 85.2188 53.0841 85.2188 53.3176C85.2188 53.5511 62.7706 50.8029 62.7706 50.8029Z" fill="#263238"/>
<path d="M63.2363 52.2886C63.1621 52.032 84.6893 55.0728 84.7481 55.3063C84.807 55.5398 81.8932 57.5285 81.3099 57.5285C80.7267 57.5285 67.8436 56.7587 67.0838 56.3584C66.3241 55.9581 63.4128 52.8942 63.2363 52.2886Z" fill="#263238"/>
<path d="M18.3629 6.28172C18.3629 6.28172 24.7174 2.14267 32.1055 0.651792C39.4936 -0.839088 41.9417 0.623567 42.5941 1.11882C43.2464 1.61407 44.6406 3.79778 44.6406 3.79778L41.8445 4.2571C41.8445 4.2571 41.3636 1.66025 38.391 1.35232C36.2549 1.13164 25.1395 2.53785 18.3629 6.28172Z" fill="#263238"/>
<path d="M89.0332 4.25711C89.0332 4.25711 85.9429 1.61407 83.1161 1.09573C80.2893 0.577382 71.0773 1.42162 71.0773 1.42162C71.0773 1.42162 78.6623 1.40109 82.2719 2.05287C84.5743 2.4737 87.419 3.98767 87.419 3.98767L89.0332 4.25711Z" fill="#263238"/>
<path d="M41.1157 19.1069H42.5074C42.7121 19.1069 43.019 20.3052 43.019 20.6465C43.019 20.9878 42.1595 22.5069 42.0674 22.4145C41.9753 22.3222 35.8356 22.4145 34.9326 22.4145C34.0296 22.4145 30.072 21.6447 29.5399 21.1495C29.0078 20.6542 28.5474 19.0171 28.6062 18.5167C28.665 18.0163 30.7065 16.2611 32.7454 15.5888C34.7842 14.9165 38.3734 15.032 39.0411 15.091C39.7087 15.15 40.8318 17.5313 41.0237 18.0291C41.144 18.375 41.1756 18.7456 41.1157 19.1069Z" fill="#263238"/>
<path opacity="0.1" d="M41.1157 19.1069H42.5074C42.7121 19.1069 43.019 20.3052 43.019 20.6465C43.019 20.9878 42.1595 22.5069 42.0674 22.4145C41.9753 22.3222 35.8356 22.4145 34.9326 22.4145C34.0296 22.4145 30.072 21.6447 29.5399 21.1495C29.0078 20.6542 28.5474 19.0171 28.6062 18.5167C28.665 18.0163 30.7065 16.2611 32.7454 15.5888C34.7842 14.9165 38.3734 15.032 39.0411 15.091C39.7087 15.15 40.8318 17.5313 41.0237 18.0291C41.144 18.375 41.1756 18.7456 41.1157 19.1069Z" fill="black"/>
<path d="M40.4913 18.527C40.4452 18.9247 39.5729 20.5079 39.2122 20.5387C35.8047 20.8621 30.7446 20.4515 29.0178 20.2821C28.7441 19.6278 28.565 18.8374 28.6059 18.5167C28.6622 18.0163 30.7036 16.2611 32.7451 15.5888C34.7865 14.9165 38.3731 15.032 39.0382 15.091C39.2429 15.109 39.4808 15.3348 39.7264 15.6581C40.6934 17.6109 40.5322 18.1292 40.4913 18.527Z" fill="#FFC727"/>
<path d="M34.3696 20.667L29.0742 20.4104C28.9712 20.1732 28.8857 19.9288 28.8184 19.6791C29.5858 19.7253 33.2543 19.8844 33.551 19.9845C33.8478 20.0845 34.3696 20.667 34.3696 20.667Z" fill="#DBDBDB"/>
<path d="M119.961 57.6824L98.8717 58.0622V52.5016L119.961 52.1244V57.6824Z" fill="white"/>
<path d="M80.8419 37.7647C81.1975 37.7647 86.9048 33.8463 87.1965 33.4358C87.4881 33.0252 59.6217 26.4202 58.8005 26.3611C57.9794 26.3021 53.789 27.8802 53.9042 28.2318C54.0193 28.5833 57.8694 33.8463 59.5015 34.7804C61.1336 35.7144 79.2686 37.7647 80.8419 37.7647Z" fill="white"/>
<path d="M87.1965 33.4358C86.8548 33.757 86.4868 34.0488 86.0964 34.3082C84.3441 35.5913 81.1105 37.7621 80.8445 37.7621C79.2686 37.7621 61.1464 35.7093 59.5066 34.7778C59.018 34.4981 58.3349 33.8335 57.611 33.0303C55.9098 31.1391 53.9937 28.473 53.9093 28.2292C53.7942 27.8777 57.9896 26.2996 58.8082 26.3586C59.6268 26.4176 87.4881 33.0278 87.1965 33.4358Z" fill="white"/>
<path d="M86.0962 34.3082C84.3438 35.5913 81.1103 37.7621 80.8442 37.7621C79.2684 37.7621 61.1462 35.7093 59.5064 34.7778C59.0177 34.4981 58.3347 33.8335 57.6107 33.0303C58.2708 32.2143 60.9901 28.8759 61.778 28.9246C70.5526 29.6123 85.6818 34.1414 86.0962 34.3082Z" fill="#EBEBEB"/>
<path d="M63.7482 32.0526C63.7486 32.3225 63.6836 32.5883 63.5588 32.8273C63.4339 33.0663 63.253 33.2712 63.0315 33.4244C62.8101 33.5776 62.5548 33.6744 62.2877 33.7065C62.0206 33.7386 61.7498 33.705 61.4985 33.6087C61.2473 33.5123 61.0232 33.3561 60.8456 33.1534C60.6679 32.9508 60.5421 32.7079 60.479 32.4456C60.4159 32.1833 60.4174 31.9095 60.4833 31.648C60.5493 31.3864 60.6777 31.1448 60.8574 30.9441C61.0842 30.7006 61.3783 30.5305 61.702 30.4554C62.0256 30.3804 62.3643 30.4039 62.6746 30.5229C62.9849 30.6419 63.2528 30.851 63.444 31.1235C63.6353 31.396 63.7412 31.7195 63.7482 32.0526ZM63.7482 32.0526C63.7789 30.4309 61.7451 29.4866 60.5453 30.631C60.3514 30.8132 60.1968 31.0334 60.0911 31.2779C59.9854 31.5224 59.9309 31.7861 59.9309 32.0526C59.9309 32.3192 59.9854 32.5828 60.0911 32.8274C60.1968 33.0719 60.3514 33.2921 60.5453 33.4742C61.7477 34.6059 63.7789 33.6744 63.7482 32.0526Z" fill="white"/>
<path d="M68.2325 32.0604C68.1659 33.9875 65.4184 33.9515 65.3647 32.0604C65.421 30.1717 68.1659 30.1384 68.2325 32.0604ZM68.2325 32.0604C68.2606 30.6362 66.475 29.8022 65.4184 30.7979C65.2451 30.9593 65.1068 31.1548 65.0123 31.3723C64.9177 31.5897 64.8689 31.8244 64.8689 32.0616C64.8689 32.2989 64.9177 32.5336 65.0123 32.751C65.1068 32.9685 65.2451 33.164 65.4184 33.3254C66.4826 34.3159 68.2657 33.4871 68.2325 32.0604Z" fill="white"/>
<path d="M127.071 33.0278C126.835 33.3639 130.102 36.7691 130.338 36.7691C130.573 36.7691 134.175 35.1909 134.592 34.6059C135.009 34.0208 133.776 29.987 133.543 29.5764C133.31 29.1658 129.877 28.55 129.928 28.6167C129.979 28.6834 127.618 32.2502 127.071 33.0278Z" fill="white"/>
<path d="M134.592 34.6059C134.364 34.8438 134.095 35.0392 133.799 35.1832C132.428 35.6965 130.589 36.3662 130.33 36.2841C129.136 35.9069 127.401 33.0047 127.401 33.0047C128.516 32.0963 131.336 29.2479 131.525 28.899C132.436 29.0991 133.423 29.3685 133.543 29.5815C133.779 29.9844 135.001 34.0106 134.592 34.6059Z" fill="#EBEBEB"/>
<path d="M133.937 31.891C133.86 33.6179 132.19 33.7001 132.182 31.891C132.174 30.0819 133.86 30.1666 133.937 31.891ZM133.937 31.891C133.937 29.7355 131.745 29.8381 131.67 31.891C131.75 33.9567 133.927 34.0362 133.937 31.891Z" fill="white"/>
<path d="M13.0563 26.1441L12.2272 26.0329C11.7174 25.9646 11.3594 25.4947 11.4275 24.9834L11.5285 24.2255C11.5966 23.7142 12.065 23.355 12.5748 23.4233L13.4039 23.5345C13.9137 23.6028 14.2717 24.0727 14.2036 24.584L14.1026 25.3419C14.0345 25.8532 13.5661 26.2124 13.0563 26.1441Z" fill="#FFC727"/>
<path d="M14.6748 25.5557L10.8966 25.0494C10.7566 25.0306 10.6582 24.9015 10.6769 24.761L10.7278 24.3795C10.7465 24.239 10.8752 24.1404 11.0152 24.1592L14.7933 24.6655C14.9334 24.6843 15.0317 24.8133 15.013 24.9538L14.9622 25.3353C14.9435 25.4758 14.8148 25.5745 14.6748 25.5557Z" fill="#FFC727"/>
<g opacity="0.2">
<path d="M14.6748 25.5557L10.8966 25.0494C10.7566 25.0306 10.6582 24.9015 10.6769 24.761L10.7278 24.3795C10.7465 24.239 10.8752 24.1404 11.0152 24.1592L14.7933 24.6655C14.9334 24.6843 15.0317 24.8133 15.013 24.9538L14.9622 25.3353C14.9435 25.4758 14.8148 25.5745 14.6748 25.5557Z" fill="white"/>
</g>
<path d="M26.3716 26.4253L25.5435 26.3162C25.0343 26.2491 24.6758 25.7808 24.7426 25.2701L24.8417 24.513C24.9086 24.0023 25.3755 23.6427 25.8847 23.7097L26.7128 23.8188C27.222 23.8859 27.5805 24.3543 27.5136 24.865L27.4145 25.622C27.3477 26.1327 26.8807 26.4923 26.3716 26.4253Z" fill="#FFC727"/>
<path d="M28.3193 26.0961L24.5412 25.5898C24.4011 25.571 24.3028 25.4419 24.3215 25.3015L24.3723 24.92C24.391 24.7795 24.5197 24.6808 24.6597 24.6996L28.4379 25.2059C28.5779 25.2247 28.6763 25.3538 28.6576 25.4943L28.6067 25.8758C28.588 26.0162 28.4593 26.1149 28.3193 26.0961Z" fill="#FFC727"/>
<g opacity="0.2">
<path d="M28.3193 26.0961L24.5412 25.5898C24.4011 25.571 24.3028 25.4419 24.3215 25.3014L24.3723 24.9199C24.391 24.7795 24.5197 24.6808 24.6597 24.6996L28.4379 25.2059C28.5779 25.2247 28.6763 25.3537 28.6576 25.4942L28.6067 25.8757C28.588 26.0162 28.4593 26.1149 28.3193 26.0961Z" fill="white"/>
</g>
</svg>
