<svg width="58" height="37" viewBox="0 0 58 37" fill="none" xmlns="http://www.w3.org/2000/svg">
<path d="M15.4929 26.4326C12.0907 26.398 9.13992 24.2362 7.74557 21.5473C7.0716 20.2477 6.84419 18.9839 6.79229 17.9888C6.79009 17.9478 6.7883 17.9071 6.78679 17.8671C6.78666 17.8657 6.78666 17.8644 6.78666 17.863C6.78583 17.8423 6.78501 17.8217 6.78446 17.8013C6.78391 17.7835 6.78336 17.7659 6.78295 17.7484C6.78075 17.6648 6.77965 17.5834 6.77965 17.5044C6.77965 17.3949 6.78158 17.2899 6.78501 17.19C6.78528 17.1793 6.7857 17.1686 6.78611 17.158C6.78652 17.1458 6.78707 17.1338 6.78748 17.122C6.7883 17.1024 6.78913 17.0832 6.79009 17.064C6.79201 17.0244 6.79407 16.9857 6.79627 16.9479C6.79668 16.9417 6.79709 16.9355 6.79751 16.9294C6.79764 16.9278 6.79778 16.926 6.79778 16.9244C6.79833 16.9174 6.79874 16.9103 6.79915 16.9031C6.80066 16.8804 6.80217 16.8574 6.80382 16.8343C6.80437 16.8262 6.80506 16.8181 6.80561 16.81C6.80616 16.8021 6.80684 16.794 6.80739 16.786C6.80849 16.7721 6.80959 16.7585 6.81069 16.7451C6.8111 16.7401 6.81151 16.7352 6.81192 16.7302C6.81289 16.7177 6.81398 16.7054 6.81508 16.6932C6.81563 16.6866 6.81618 16.6801 6.81673 16.6736C6.81673 16.6736 6.81673 16.6732 6.81687 16.6726C6.81687 16.6721 6.81687 16.6716 6.81701 16.6711C6.81701 16.6705 6.81701 16.6699 6.81701 16.669C6.81714 16.6681 6.81728 16.6672 6.81728 16.6662C6.81755 16.6637 6.81783 16.6612 6.81797 16.6587C6.8181 16.6567 6.81838 16.6545 6.81865 16.6525C6.81865 16.6509 6.81893 16.6494 6.81906 16.6478C6.8192 16.646 6.81934 16.6443 6.81961 16.6425C6.81975 16.6406 6.82003 16.6387 6.82016 16.6368C6.84543 16.3943 7.01008 14.9972 7.57007 13.737C8.21823 12.279 10.5211 9.55076 14.0024 8.86414C14.4313 8.77951 14.878 8.72588 15.3417 8.70943C18.5053 8.59718 21.5376 10.2472 23.3188 12.9565C23.7155 13.5597 24.0501 14.2153 24.3103 14.9158C24.3555 14.8688 24.4068 14.8171 24.4649 14.7623C24.4655 14.7618 24.466 14.7612 24.4668 14.7605C24.5242 14.7062 24.5881 14.6488 24.6583 14.5897C24.8077 14.4639 24.986 14.3306 25.1944 14.2034C25.2019 14.1987 25.2096 14.1941 25.2173 14.1896C25.299 14.1402 25.3851 14.092 25.4757 14.0455C25.6541 13.9537 25.8502 13.869 26.0643 13.7971C26.2402 13.738 26.4138 13.6925 26.5835 13.6586C26.5861 13.658 26.5887 13.6575 26.5912 13.6571C26.66 13.6435 26.7282 13.6318 26.7957 13.6218C26.5216 13.5873 26.2753 13.4139 26.1625 13.1486C26.1383 13.0918 26.1132 13.0342 26.0869 12.976C26.0554 12.9062 26.0235 12.8382 25.9915 12.7716C25.8105 12.3965 25.9594 11.9485 26.3307 11.7501C26.3352 11.7475 26.3399 11.7451 26.3444 11.7427C26.7329 11.5351 27.22 11.6773 27.428 12.0604C27.4703 12.1382 27.5122 12.2184 27.5537 12.3013C27.5891 12.3723 27.623 12.4425 27.6551 12.5118C27.8532 12.9379 27.6271 13.4381 27.1725 13.5808C27.1697 13.5816 27.167 13.5826 27.1642 13.5834C27.489 13.5634 27.7926 13.581 28.0659 13.6186C28.067 13.6187 28.0679 13.6188 28.069 13.619C28.6967 13.7056 29.1622 13.8968 29.3467 13.978C29.1997 13.562 28.4955 11.6412 27.0133 9.61908C25.9583 8.17968 24.5091 6.68907 22.5862 5.65315C19.9876 4.25324 16.9852 3.95609 16.5677 3.93466C15.8029 3.89545 15.0233 3.9379 15.0233 3.9379C14.2661 3.97846 13.5162 4.06996 12.7775 4.2337C12.6251 4.26753 12.4739 4.30324 12.324 4.34097C12.3236 4.34097 12.3233 4.34111 12.323 4.34124C9.27477 5.10885 6.7386 6.69851 4.74566 9.12464C4.08886 9.92418 3.25463 11.122 2.60758 12.6948C2.60758 12.6948 1.97988 14.2204 1.73065 15.9455C1.64935 16.5072 1.65196 16.9328 1.6532 17.0337C1.6532 17.0337 1.66899 17.5284 1.74438 18.0532C1.99032 19.7647 2.81438 22.6799 5.20898 25.251C9.34027 29.687 15.0232 29.744 15.6916 29.7401C16.8573 29.7331 19.7913 29.677 22.7436 27.776C26.844 25.1359 27.9505 20.8873 28.2223 19.5441C28.2278 19.5171 28.2329 19.4912 28.2377 19.4666C26.9293 19.4247 25.6209 19.3826 24.3125 19.3407C23.2204 23.5735 19.4873 26.4733 15.4928 26.4326H15.4929ZM24.4954 12.2488C24.4999 12.2464 24.5045 12.244 24.5091 12.2414C24.8976 12.0339 25.3847 12.1761 25.5927 12.5592C25.6349 12.637 25.6769 12.7171 25.7182 12.8C25.7538 12.871 25.7876 12.9412 25.8199 13.0105C26.0179 13.4368 25.7918 13.937 25.3372 14.0796C25.3263 14.083 25.3155 14.0863 25.3046 14.0898C24.9112 14.2131 24.4863 14.0215 24.3272 13.6474C24.303 13.5905 24.2777 13.533 24.2515 13.4748C24.2201 13.4051 24.1882 13.3369 24.1561 13.2703C23.9752 12.8954 24.1241 12.4472 24.4954 12.2488Z" fill="#050505"/>
<path d="M1.63829 18.002C1.63733 17.9576 1.63664 17.9125 1.63623 17.8665C1.64831 17.9109 1.64062 17.9567 1.63829 18.002Z" fill="#050505"/>
<path d="M1.64888 17.2712V17.2736C1.64888 17.2774 1.64888 17.2813 1.6486 17.285C1.6486 17.285 1.64874 17.285 1.6486 17.2852C1.64847 17.2888 1.64819 17.2923 1.64778 17.296C1.64737 17.2999 1.64682 17.3038 1.64613 17.3077V17.308C1.64545 17.3117 1.64462 17.3155 1.64352 17.3193C1.64297 17.3214 1.64229 17.3235 1.6416 17.3256C1.6427 17.2842 1.64421 17.2422 1.64586 17.1999C1.64586 17.2059 1.64613 17.212 1.64641 17.2179C1.64655 17.221 1.64668 17.2241 1.64696 17.2271C1.64723 17.2313 1.64751 17.2355 1.64778 17.2396C1.64806 17.2458 1.64847 17.252 1.6486 17.2581C1.64874 17.2594 1.64874 17.2609 1.64874 17.2623C1.64874 17.2652 1.64874 17.2682 1.64874 17.2712H1.64888Z" fill="#050505"/>
<path d="M1.64835 17.1411C1.64821 17.1493 1.64821 17.1574 1.64807 17.1656C1.64766 17.1683 1.64738 17.1709 1.64697 17.1736C1.64725 17.1628 1.6478 17.152 1.64835 17.1411Z" fill="#050505"/>
<path d="M6.80749 16.786C6.76987 17.2783 6.77797 17.6923 6.7939 17.9888H6.79239C6.76794 17.5201 6.78236 17.1111 6.80749 16.786Z" fill="#050505"/>
<path d="M34.2807 7.1633L33.5733 10.1226C32.2426 10.9734 31.253 12.061 30.6663 12.9589L31.1359 9.00335L27.8501 8.61146C27.8615 8.59879 27.8729 8.58613 27.8843 8.57359C28.7005 7.67122 29.6003 6.89809 30.5817 6.25298L34.2807 7.1633Z" fill="#050505"/>
<path d="M38.3149 6.52304L36.4573 8.90807C35.6463 9.08933 34.9016 9.38082 34.2295 9.73888L34.9391 6.76953L31.2246 5.85543C32.4848 5.12354 33.87 4.58839 35.3764 4.24825L38.3149 6.52304Z" fill="#050505"/>
<path d="M42.4926 7.20144L39.4931 8.78584C39.0034 8.71806 38.506 8.69165 38.0054 8.70943C37.7506 8.71846 37.5011 8.73868 37.2567 8.76927L39.0796 6.42858L36.084 4.10945C36.6136 4.02131 37.1485 3.96674 37.6869 3.9379C37.6869 3.9379 38.4665 3.89545 39.2314 3.93466C39.4056 3.94356 40.0303 4.0007 40.8882 4.16591L42.4926 7.20144Z" fill="#050505"/>
<path d="M52.4524 20.7893C52.2986 21.4495 52.0517 22.2884 51.6417 23.2163C50.6284 25.5097 49.2066 27.0157 48.4057 27.7628C48.3778 27.789 48.3506 27.814 48.3244 27.8382C48.2008 27.9515 48.077 28.0612 47.9527 28.1673C45.258 30.469 42.4215 31.1014 41.3909 31.3179C39.6356 31.6863 38.2694 31.6343 37.8709 31.6138C37.5203 31.5957 36.0368 31.5052 34.3204 30.9307C31.1969 29.8849 29.1244 27.8465 28.1387 26.7316C28.6945 26.0166 29.3637 24.9993 29.8938 23.6776C30.2869 22.6968 30.5032 21.7986 30.6256 21.0632C30.9266 21.7616 31.4922 22.8316 32.5294 23.8527C34.5289 25.821 36.8769 26.2257 37.498 26.3149C40.8253 26.7929 43.2695 25.2114 43.7575 24.8815C45.7068 23.5632 46.6222 21.8051 47.0233 20.7893H52.4524Z" fill="#050505"/>
<path d="M19.2714 15.7386C19.2479 14.807 18.913 13.9944 18.2424 13.3284C16.74 11.8362 14.2169 11.9831 12.921 13.6519C12.2218 14.5523 11.9975 15.5604 12.3385 16.6655C12.5189 17.2506 12.7579 17.8124 13.0237 18.3636C13.7773 19.9264 14.6672 21.4144 15.6055 22.8755C15.6372 22.9251 15.6586 22.9851 15.7462 23.0188C15.7902 22.9541 15.8304 22.898 15.8675 22.8401C16.5847 21.7201 17.2725 20.583 17.8953 19.4093C18.3561 18.5409 18.7942 17.662 19.0912 16.7228C19.1928 16.4015 19.2799 16.0746 19.2714 15.7386ZM15.723 18.6554C14.1499 18.6561 13.1785 17.384 13.1877 16.168C13.198 14.7921 14.3228 13.6792 15.7243 13.6795C17.1299 13.6796 18.2536 14.7855 18.2533 16.1687C18.2894 17.3443 17.3282 18.6548 15.723 18.6554Z" fill="#050505"/>
<path d="M49.9985 9.49254C49.6799 9.08717 49.1433 8.4802 48.569 7.90261C48.1581 7.48929 47.8477 7.17934 47.3777 6.82707C46.8226 6.41079 46.312 6.1356 45.9482 5.96203C46.1222 6.4969 46.4349 7.27327 47.0182 8.08494C47.6534 8.96872 48.1345 9.23379 48.8071 10.1003C49.4637 10.946 49.7762 11.6862 50.0937 12.4383C51.2742 15.2352 51.149 18.4315 51.0943 19.3589C51.6344 19.3752 52.1744 19.3917 52.7144 19.408C52.8443 18.4264 52.8417 17.609 52.8119 17.0297C52.8119 17.0297 52.595 12.7966 49.9984 9.4924L49.9985 9.49254Z" fill="#050505"/>
<path d="M47.6598 13.5808C47.6489 13.5842 47.6381 13.5876 47.6272 13.5911C47.2338 13.7145 46.8089 13.5227 46.6498 13.1488C46.6256 13.0919 46.6003 13.0344 46.5741 12.9761C46.5427 12.9063 46.5108 12.8382 46.4787 12.7717C46.2978 12.3968 46.4465 11.9486 46.8178 11.7502C46.8224 11.7478 46.827 11.7454 46.8316 11.7428C47.2201 11.5353 47.7071 11.6774 47.9152 12.0604C47.9573 12.1382 47.9993 12.2185 48.0407 12.3013C48.0762 12.3723 48.11 12.4425 48.1422 12.5118C48.3402 12.938 48.1141 13.4383 47.6595 13.5808H47.6598Z" fill="#050505"/>
<path d="M35.8733 10.5453L35.5962 10.0134C35.6962 10.1947 35.7883 10.3723 35.8733 10.5453Z" fill="#050505"/>
<path d="M1.64603 17.308C1.64534 17.3117 1.64452 17.3155 1.64355 17.3193C1.64465 17.3155 1.64548 17.3117 1.64616 17.308H1.64603Z" fill="#050505"/>
<path d="M1.64603 17.308C1.64534 17.3117 1.64452 17.3155 1.64355 17.3193C1.64465 17.3155 1.64548 17.3117 1.64616 17.308H1.64603Z" fill="#050505"/>
<path d="M49.067 16.7492C48.9935 15.9207 48.8125 15.1016 48.529 14.3149L48.5257 14.3054C48.5257 14.3054 48.4777 14.1328 48.4552 14.0513C48.3462 14.159 48.2057 14.2576 48.0255 14.3263C47.8826 14.3808 47.733 14.4084 47.5812 14.4084C47.5251 14.4084 47.471 14.4048 47.4193 14.3982L47.5191 14.6601L47.5207 14.6647C47.7741 15.3681 47.936 16.0998 48.0016 16.8402C48.0313 17.1752 48.0413 17.5175 48.0314 17.8572L48.0239 18.1172L44.3488 18.1429L44.4327 17.8068C44.4589 17.7017 44.5423 17.3209 44.5126 16.8327C44.4735 16.1893 44.2591 15.6374 43.8757 15.1923C43.4957 14.7514 42.764 14.2258 41.4357 14.2258C40.1241 14.2265 38.8257 14.9373 37.6809 16.2819C37.5916 16.3867 37.5006 16.4987 37.4106 16.6147L36.9043 17.2671L36.9175 16.4471C36.9313 15.5924 36.8539 14.715 36.6875 13.839C36.6026 13.3928 36.4927 12.9477 36.3608 12.5161C36.1683 11.8857 35.9217 11.2629 35.6277 10.6652L35.3534 10.1387C35.3285 10.0932 35.3029 10.0475 35.2771 10.0019C35.1285 10.1015 34.9586 10.2545 34.8325 10.4812C34.6528 10.8034 34.6476 11.1172 34.6451 11.268C34.6398 11.5838 34.7111 11.78 34.8528 12.1711C34.905 12.3149 34.9639 12.4777 35.0301 12.677C35.0518 12.7352 35.2197 13.1955 35.3723 13.8898C35.7592 15.6508 35.5508 17.4953 35.4433 18.2066L35.4423 18.2125H33.3756L33.3819 18.1432C33.4053 17.8865 33.4219 17.1413 33.4076 16.6009C33.3851 15.7471 33.1364 14.1284 32.513 12.0657C32.1539 12.3994 31.9384 12.7574 31.8711 13.134C31.7938 13.5652 31.9229 13.9191 31.9922 14.1092L32.0024 14.1369C32.3682 15.1488 32.4307 16.5174 32.1881 18.2047L32.187 18.2125H29.8522L29.8549 18.1564C29.8553 18.1421 29.8554 18.076 29.8554 18.0319C29.8555 17.9415 29.8557 17.9129 29.8564 17.8982C29.8897 17.0864 29.838 16.2513 29.7026 15.4162L29.6627 15.1705L28.7886 14.7564C28.4626 14.6499 28.1263 14.5911 27.7887 14.582C27.7576 14.5812 27.726 14.5808 27.6948 14.5808C27.0698 14.5808 26.4621 14.7499 25.9375 15.0698C25.8918 15.0977 25.8481 15.1257 25.8077 15.1531C25.7676 15.1801 25.7286 15.2077 25.6911 15.2356L25.6635 15.2565C25.2799 15.5467 24.9705 15.9106 24.744 16.3379C24.6931 16.4339 24.6464 16.5336 24.6052 16.6343L24.5974 16.6536C24.3376 17.2985 24.2842 18.0021 24.443 18.6879L24.5335 19.0781L28.568 19.2074L28.5076 19.5173C28.5027 19.5426 28.4974 19.5693 28.4919 19.5965C28.1561 21.2562 26.9386 25.3975 22.8945 28.0014C19.8141 29.9848 16.7127 30.0034 15.6935 30.0096C15.6849 30.0096 15.6747 30.0097 15.663 30.0097C15.3446 30.0097 13.6499 29.9799 11.565 29.3921C8.8739 28.6334 6.66592 27.2998 5.00228 25.4282C3.90591 24.1947 3.01978 22.7765 2.37451 21.2361C2.65094 22.2256 3.11302 23.5905 4.07221 25.0618C4.86551 26.2788 5.8788 27.3811 7.08365 28.3379C8.25994 29.2719 9.54938 29.9992 10.9161 30.4999C12.2652 30.9939 13.726 31.2804 15.2581 31.3514C15.4297 31.3594 15.6073 31.3634 15.7858 31.3634C16.2586 31.3634 16.7531 31.3361 17.2976 31.2799C17.3309 31.2764 17.3643 31.2729 17.3973 31.2692L17.4264 31.2659C17.4538 31.2628 17.4814 31.2597 17.509 31.2563C17.5417 31.2525 17.5745 31.2485 17.6072 31.2444C17.6116 31.2438 17.6161 31.2432 17.6207 31.2428C17.652 31.2388 17.6832 31.2347 17.7149 31.2304C17.7715 31.2229 17.8228 31.2157 17.8725 31.2084C17.9239 31.201 17.9769 31.1931 18.035 31.1841C18.0699 31.1785 18.1046 31.1729 18.1395 31.1672C18.1737 31.1617 18.2076 31.1559 18.2416 31.15L18.2437 31.1497C18.2782 31.1438 18.3125 31.1377 18.347 31.1315L18.3485 31.1312C18.3796 31.1257 18.4108 31.1199 18.4413 31.1142L18.4626 31.1102C18.4894 31.1052 18.516 31.1001 18.5426 31.0947L18.549 31.0935C18.5545 31.0925 18.5601 31.0915 18.5657 31.0904L18.5679 31.0899C18.5981 31.0839 18.6285 31.0779 18.6596 31.0715C18.6916 31.0651 18.7236 31.0583 18.7555 31.0516L18.7758 31.0473C18.8055 31.0411 18.835 31.0347 18.8645 31.0281L18.8664 31.0277C18.8919 31.0222 18.9173 31.0165 18.9428 31.0107L18.9722 31.0041C19.0032 30.997 19.0343 30.9899 19.0653 30.9826C19.0694 30.9815 19.0734 30.9806 19.0772 30.9798C19.1044 30.9733 19.1316 30.9667 19.1589 30.9601C19.2162 30.9462 19.2674 30.9335 19.3163 30.921C19.3381 30.9155 19.3601 30.9098 19.3817 30.9043C19.7875 30.7986 20.1945 30.6726 20.5904 30.5299C20.6056 30.5244 20.621 30.5189 20.6375 30.5128C22.1705 29.9506 23.6063 29.0997 24.9053 27.9838C25.886 27.1413 26.7966 26.141 27.6119 25.0104C28.0152 24.3462 28.3699 23.6465 28.6661 22.9308C28.8947 22.3781 29.0923 21.8065 29.2539 21.2295L29.2418 21.2119L29.2782 21.0901C29.323 20.9403 29.3678 20.7823 29.4116 20.6197V20.5909L29.4233 20.568L29.668 19.2518L48.9983 19.1267C49.0159 18.9802 49.0311 18.8327 49.0438 18.6858C49.0773 18.2956 49.1399 17.5695 49.067 16.7492ZM28.7965 18.1799L28.7949 18.2125H25.4216L25.4261 18.1214C25.4631 17.3695 25.8526 16.3569 26.5015 15.9613C26.8566 15.7448 27.2692 15.6304 27.6948 15.6304C27.7162 15.6304 27.7378 15.6307 27.7593 15.6314C28.0223 15.6385 28.2816 15.6881 28.53 15.7789L28.6861 15.8359L28.7067 15.9983C28.7899 16.658 28.8269 17.5551 28.7965 18.1799ZM43.6174 17.9618C43.586 18.0481 43.5497 18.1324 43.5097 18.2125H37.2566L37.367 18.0296C37.6463 17.5674 37.9503 17.1421 38.2708 16.7657C38.5335 16.4571 38.8039 16.1843 39.0747 15.9552L39.0883 15.9436L39.089 15.9432C39.6325 15.486 40.1955 15.1881 40.7628 15.0578C41.1084 14.9446 41.4357 14.8872 41.7353 14.8872C42.112 14.8872 42.4503 14.9771 42.7413 15.1545C42.9724 15.2955 43.1729 15.4911 43.3373 15.736L43.3384 15.7369L43.3562 15.7644C43.6002 16.1397 43.6936 16.5196 43.7227 16.6673C43.7233 16.6695 43.7236 16.6716 43.724 16.6738C43.8279 17.2113 43.7234 17.6709 43.6174 17.9618Z" fill="#050505"/>
<path d="M46.402 8.07241L42.4127 9.72217C41.757 9.38122 41.0634 9.11978 40.3467 8.94729L43.2295 7.42447L41.5854 4.31415C42.6498 4.56211 43.9316 4.96128 45.1366 5.59291L46.402 8.07241Z" fill="#050505"/>
</svg>
