<svg width="349" height="235" viewBox="0 0 349 235" fill="none" xmlns="http://www.w3.org/2000/svg">
<g clip-path="url(#clip0_9_131)">
<path d="M122.022 46.8307C126.166 46.8307 195.84 47.2904 200.22 47.1503C200.534 47.1503 200.702 46.6793 200.393 46.5223C197.629 45.1597 194.5 45.4345 191.634 44.4645C189.952 43.9037 188.909 42.7823 187.737 41.5263C186.764 40.4245 185.51 39.6068 184.109 39.1601C182.833 38.7789 181.481 38.7364 180.184 39.0368C178.771 39.3732 177.543 40.1582 176.197 40.7189C172.832 41.9805 169.597 40.7806 167.225 38.3022C165.251 36.2612 163.299 34.3324 160.636 33.2558C159.541 32.7625 158.356 32.4994 157.155 32.483C155.954 32.4666 154.762 32.6972 153.654 33.1605C151.097 34.3212 149.342 36.6481 146.925 38.0499C144.082 39.732 140.678 39.3171 137.532 39.8218C134.387 40.3264 131.981 42.9674 129.222 44.4925C128.323 45.0699 127.284 45.3917 126.216 45.4233C125.599 45.4233 124.994 45.2382 124.388 45.1653C123.441 45.0476 122.538 45.0756 121.898 45.8662C121.719 46.012 121.753 46.8307 122.022 46.8307Z" fill="#EBEBEB"/>
<path d="M207.139 13.3562C210.167 13.3562 261.034 13.687 264.23 13.5861C264.46 13.5861 264.583 13.244 264.359 13.1319C262.34 12.1338 260.058 12.3301 257.961 11.6236C256.727 11.2086 255.97 10.4068 255.118 9.48164C254.407 8.6734 253.487 8.07601 252.46 7.75465C251.523 7.47402 250.53 7.44309 249.578 7.66493C248.546 7.91165 247.649 8.50039 246.662 8.87046C244.222 9.79564 241.845 8.92093 240.101 7.10983C238.66 5.61834 237.246 4.21095 235.289 3.40913C234.49 3.04759 233.625 2.855 232.748 2.84342C231.871 2.83184 231.001 3.00153 230.192 3.34185C228.33 4.18291 227.046 5.88748 225.297 6.90797C223.216 8.12472 220.732 7.83315 218.439 8.20322C216.145 8.57329 214.384 10.5021 212.371 11.6123C211.72 12.0431 210.964 12.2875 210.184 12.3188C209.737 12.2796 209.291 12.2178 208.85 12.1338C208.529 12.045 208.19 12.0455 207.87 12.1355C207.55 12.2254 207.26 12.4013 207.033 12.6441C206.921 12.7562 206.943 13.3562 207.139 13.3562Z" fill="#EBEBEB"/>
<path d="M244.693 60.3494C244.772 60.5737 349.864 60.3494 348.535 60.3494C347.935 60.3494 349.454 59.4467 348.866 59.1551C345.445 57.473 341.699 57.4113 337.976 57.0693C335.8 56.873 333.568 56.5534 331.611 55.5273C329.654 54.5012 328.398 52.6901 326.99 51.0416C324.824 48.4761 322.04 46.5052 318.9 45.3151C315.76 44.1251 312.369 43.7551 309.046 44.2402C301.571 45.4009 295.683 51.0865 288.197 52.1294C283.711 52.7574 279.449 51.008 275.053 50.408C271.436 49.9034 268.425 50.6099 265.184 52.2079C262.817 53.3854 260.625 54.3779 257.944 54.5573C255.886 54.7031 253.823 54.4676 251.776 54.4507C248.4 54.5104 245.163 55.8027 242.675 58.0842C242.321 58.3869 241.245 60.3494 244.693 60.3494Z" fill="#EBEBEB"/>
<path d="M34.3866 16.3504C34.4651 16.5747 139.551 16.3504 138.228 16.3504C137.622 16.3504 139.147 15.4476 138.553 15.156C135.132 13.4739 131.392 13.4066 127.663 13.0646C125.493 12.8683 123.256 12.5543 121.304 11.5226C119.353 10.4909 118.085 8.68543 116.683 7.03694C114.516 4.47331 111.731 2.50408 108.592 1.31506C105.452 0.126045 102.061 -0.243565 98.7392 0.241109C91.2699 1.413 85.3763 7.10423 77.8958 8.14715C73.4097 8.78076 69.1424 7.02573 64.7516 6.42576C61.1291 5.92673 58.1179 6.62762 54.8823 8.23126C52.5103 9.40314 50.3177 10.3956 47.6429 10.5806C45.5849 10.7264 43.5157 10.4909 41.4745 10.4685C38.0993 10.5348 34.8638 11.8285 32.3734 14.1075C32.0145 14.3823 30.9603 16.3504 34.3866 16.3504Z" fill="#EBEBEB"/>
<path d="M-39 234.742C84.8603 234.4 223.794 234.394 347.654 234.742C223.794 235.09 84.8603 235.084 -39 234.742Z" fill="#263238"/>
<path opacity="0.5" d="M335.242 22.8539C339.204 16.5143 337.276 8.16366 330.936 4.20225C324.596 0.240837 316.244 2.16873 312.283 8.50832C308.321 14.8479 310.249 23.1985 316.589 27.1599C322.929 31.1213 331.281 29.1934 335.242 22.8539Z" fill="#FFC727"/>
<path d="M333.862 20.4298C335.963 15.4754 333.649 9.75652 328.694 7.65629C323.739 5.55606 318.02 7.86982 315.919 12.8242C313.819 17.7786 316.133 23.4975 321.088 25.5977C326.043 27.698 331.762 25.3842 333.862 20.4298Z" fill="#FFC727"/>
<path d="M248.882 234.17C250.177 234.596 287.064 234.361 288.466 233.458C288.999 233.122 289.279 227.75 289.431 221.24V221.038C289.464 219.698 287.849 197.191 287.849 197.191L264.208 197.287L265.486 216.25V217.001L265.61 220.926V221.33C265.61 221.33 251.529 227.733 250.093 228.888C248.658 230.043 247.592 233.75 248.882 234.17Z" fill="#AD6359"/>
<path d="M248.596 234.153C249.908 234.591 287.35 234.462 288.775 233.553C289.335 233.211 289.857 227.436 289.335 221.055L265.223 221.167C265.223 221.167 251.338 227.632 249.88 228.793C248.422 229.954 247.29 233.722 248.596 234.153Z" fill="#FFC727"/>
<path d="M249.129 232.679C255.404 232.505 280.733 232.387 286.952 232.679C287.003 232.679 287.003 232.718 286.952 232.718C280.733 233.026 255.404 232.942 249.129 232.768C248.994 232.757 248.994 232.679 249.129 232.679Z" fill="#263238"/>
<path d="M252.286 227.442C252.983 227.422 253.677 227.546 254.324 227.808C254.97 228.069 255.556 228.462 256.043 228.961C256.933 229.857 257.44 231.063 257.456 232.325C257.456 232.365 257.389 232.365 257.383 232.325C257.165 231.084 256.551 229.947 255.632 229.085C254.713 228.222 253.539 227.681 252.286 227.543C252.273 227.543 252.26 227.537 252.25 227.528C252.241 227.518 252.235 227.505 252.235 227.492C252.235 227.479 252.241 227.466 252.25 227.456C252.26 227.447 252.273 227.442 252.286 227.442Z" fill="#263238"/>
<path d="M263.215 221.806C265.727 221.762 268.643 222.636 270.213 224.689C270.275 224.767 270.157 224.851 270.084 224.812C267.884 223.67 265.568 222.766 263.176 222.115C263.139 222.105 263.108 222.082 263.087 222.051C263.066 222.019 263.057 221.981 263.062 221.944C263.066 221.906 263.085 221.872 263.113 221.846C263.141 221.821 263.177 221.807 263.215 221.806Z" fill="#263238"/>
<path d="M261.281 222.586C263.793 222.541 266.709 223.416 268.273 225.468C268.335 225.546 268.223 225.631 268.15 225.591C265.947 224.45 263.629 223.546 261.236 222.894C261.199 222.884 261.167 222.861 261.146 222.829C261.125 222.797 261.116 222.758 261.122 222.72C261.127 222.682 261.146 222.648 261.176 222.623C261.205 222.598 261.242 222.585 261.281 222.586Z" fill="#263238"/>
<path d="M259.346 223.332C261.858 223.287 264.768 224.161 266.339 226.214C266.4 226.292 266.288 226.376 266.21 226.337C264.009 225.195 261.693 224.291 259.301 223.64C259.264 223.63 259.232 223.607 259.211 223.575C259.19 223.542 259.182 223.504 259.187 223.466C259.193 223.428 259.212 223.393 259.241 223.369C259.27 223.344 259.308 223.331 259.346 223.332Z" fill="#263238"/>
<path d="M257.406 224.094C259.918 224.049 262.834 224.924 264.404 226.976C264.466 227.055 264.348 227.139 264.275 227.1C262.074 225.958 259.758 225.054 257.366 224.403C257.33 224.393 257.298 224.37 257.277 224.338C257.256 224.307 257.247 224.269 257.252 224.231C257.257 224.194 257.275 224.159 257.303 224.134C257.332 224.109 257.368 224.095 257.406 224.094Z" fill="#263238"/>
<path d="M285.331 226.713C288.135 226.713 288.135 231.092 285.331 231.092C282.528 231.092 282.511 226.713 285.331 226.713Z" fill="white"/>
<path d="M260.692 218.79C262.054 220.534 264.124 221.633 265.918 222.861C265.96 222.885 266.006 222.899 266.054 222.901C266.102 222.903 266.15 222.894 266.194 222.875C266.238 222.855 266.276 222.825 266.306 222.788C266.336 222.75 266.357 222.706 266.367 222.659C266.406 222.659 266.451 222.659 266.445 222.586C266.255 220.282 265.46 218.069 264.14 216.171C263.355 215.078 261.746 214.052 260.479 215.112C259.211 216.171 259.895 217.775 260.692 218.79ZM260.568 216.71C260.81 213.979 263.282 216.07 263.832 216.895C264.176 217.434 264.484 217.996 264.752 218.577C265.292 219.791 265.769 221.031 266.182 222.294C265.34 221.633 264.449 221.055 263.58 220.427C262.553 219.693 260.434 218.218 260.568 216.71Z" fill="#263238"/>
<path d="M275.361 220.954C275.159 219.311 273.286 218.964 271.963 219.222C269.711 219.714 267.627 220.786 265.918 222.334C265.879 222.367 265.918 222.412 265.918 222.44C265.893 222.481 265.878 222.528 265.874 222.576C265.87 222.624 265.878 222.672 265.897 222.716C265.915 222.761 265.944 222.8 265.981 222.831C266.018 222.862 266.062 222.884 266.109 222.894C268.256 223.225 270.516 223.836 272.703 223.494C273.965 223.292 275.552 222.502 275.361 220.954ZM269.456 222.726C268.397 222.591 267.348 222.406 266.282 222.311C267.445 221.669 268.641 221.089 269.866 220.573C270.459 220.326 271.07 220.123 271.694 219.967C272.658 219.737 275.894 219.9 274.2 222.059C273.27 223.253 270.724 222.883 269.456 222.726Z" fill="#263238"/>
<path opacity="0.1" d="M288.775 233.553C287.945 234.086 274.963 234.344 263.978 234.389L289.324 221.055C289.857 227.442 289.318 233.239 288.775 233.553Z" fill="black"/>
<path d="M265.66 220.954L289.694 220.904C289.694 220.904 291.023 219.39 290.816 216.39C289.851 202.585 285.517 161.39 285.69 160.498C285.954 159.113 287.524 152.833 289.616 144.63C290.266 142.062 290.973 139.309 291.707 136.455C293.692 128.734 295.879 120.301 297.78 112.961C300.64 101.965 302.872 96.2967 302.872 96.2967H280.346C280.346 96.2967 261.841 149.284 261.101 160.218C260.58 167.984 262.912 203.981 264.135 216.379C264.266 218.005 264.789 219.575 265.66 220.954Z" fill="#455A64"/>
<path opacity="0.1" d="M282.903 96.2799C284.462 108.374 287.44 128.168 289.632 144.619C294.713 124.691 302.889 96.2855 302.889 96.2855L282.903 96.2799Z" fill="black"/>
<path d="M266.669 215.807C270.174 215.734 269.17 215.706 272.675 215.672C274.391 215.672 285.662 215.56 287.255 215.824C287.288 215.824 287.288 215.891 287.255 215.897C285.651 216.16 274.357 216.059 272.675 216.042C269.17 216.009 270.174 215.981 266.669 215.908C266.663 215.908 266.656 215.906 266.65 215.904C266.644 215.901 266.638 215.898 266.634 215.893C266.629 215.888 266.625 215.883 266.623 215.877C266.62 215.87 266.619 215.864 266.619 215.857C266.619 215.851 266.62 215.844 266.623 215.838C266.625 215.832 266.629 215.826 266.634 215.822C266.638 215.817 266.644 215.813 266.65 215.811C266.656 215.808 266.663 215.807 266.669 215.807Z" fill="#263238"/>
<path d="M280.683 156.697C281.558 152.856 282.858 149.093 283.991 145.325C286.294 137.666 288.614 130.012 290.95 122.364C292.111 118.535 297.511 104.225 298.044 102.324C298.263 101.551 298.38 101.971 298.106 102.958C297.545 104.937 288.315 133.315 285.982 141.086C284.812 144.985 283.638 148.882 282.46 152.777C281.865 154.63 281.386 156.517 281.025 158.429C280.708 160.43 280.629 162.46 280.789 164.479C281.042 168.544 281.513 172.604 281.911 176.658C282.309 180.712 282.842 186.88 283.217 190.945C283.963 199.03 284.928 212.392 285.006 213.418C285.006 213.76 284.513 213.732 284.479 213.418C283.604 205.422 283.621 202.266 282.875 194.259C282.13 186.252 281.193 176.226 280.464 168.253C280.279 166.257 280.066 164.249 280.066 162.236C280.065 160.373 280.272 158.515 280.683 156.697Z" fill="#263238"/>
<path d="M277.425 234.305C278.714 234.731 315.607 234.394 316.997 233.486C317.558 233.15 317.799 227.772 317.934 221.268V221.066C317.968 219.721 317.99 218.341 317.996 216.945C317.996 216.749 317.996 216.558 317.996 216.384C318.08 206.992 317.435 197.247 317.435 197.247L293.322 197.399L293.956 216.339L293.984 217.091L294.118 221.016V221.42C294.118 221.42 280.055 227.862 278.625 229.017C277.195 230.172 276.129 233.89 277.425 234.305Z" fill="#AD6359"/>
<path d="M277.245 234.153C278.557 234.591 315.994 234.462 317.424 233.553C317.984 233.211 318.506 227.436 317.984 221.055L293.844 221.167C293.844 221.167 279.993 227.632 278.541 228.793C277.088 229.954 275.939 233.722 277.245 234.153Z" fill="#FFC727"/>
<path d="M277.778 232.679C284.053 232.505 309.382 232.387 315.601 232.679C315.652 232.679 315.652 232.718 315.601 232.718C309.382 233.026 284.053 232.942 277.778 232.768C277.643 232.757 277.643 232.679 277.778 232.679Z" fill="#263238"/>
<path d="M280.93 227.442C281.628 227.421 282.323 227.545 282.97 227.807C283.618 228.068 284.204 228.461 284.692 228.961C285.582 229.857 286.089 231.063 286.105 232.325C286.105 232.365 286.038 232.365 286.032 232.325C285.814 231.084 285.2 229.947 284.281 229.085C283.362 228.222 282.188 227.681 280.935 227.543C280.885 227.515 280.879 227.442 280.93 227.442Z" fill="#263238"/>
<path d="M291.864 221.806C294.376 221.762 297.292 222.636 298.862 224.689C298.924 224.767 298.806 224.851 298.734 224.812C296.533 223.67 294.217 222.766 291.825 222.115C291.789 222.105 291.757 222.082 291.736 222.051C291.715 222.019 291.706 221.981 291.711 221.944C291.716 221.906 291.734 221.872 291.762 221.846C291.79 221.821 291.826 221.807 291.864 221.806Z" fill="#263238"/>
<path d="M289.93 222.586C292.442 222.541 295.358 223.416 296.922 225.468C296.984 225.546 296.872 225.631 296.799 225.591C294.596 224.45 292.279 223.546 289.885 222.894C289.848 222.884 289.816 222.861 289.795 222.829C289.774 222.797 289.765 222.758 289.771 222.72C289.776 222.682 289.796 222.648 289.825 222.623C289.854 222.598 289.891 222.585 289.93 222.586Z" fill="#263238"/>
<path d="M287.989 223.332C290.502 223.287 293.418 224.161 294.988 226.214C295.049 226.292 294.937 226.376 294.859 226.337C292.658 225.195 290.342 224.291 287.95 223.64C287.914 223.63 287.882 223.607 287.861 223.576C287.84 223.544 287.831 223.506 287.836 223.469C287.841 223.431 287.859 223.397 287.887 223.372C287.915 223.346 287.952 223.332 287.989 223.332Z" fill="#263238"/>
<path d="M286.055 224.094C288.567 224.049 291.483 224.924 293.053 226.976C293.109 227.055 292.997 227.139 292.924 227.1C290.723 225.958 288.407 225.054 286.016 224.403C285.979 224.393 285.947 224.37 285.926 224.338C285.905 224.307 285.897 224.269 285.901 224.231C285.906 224.194 285.924 224.159 285.952 224.134C285.981 224.109 286.017 224.095 286.055 224.094Z" fill="#263238"/>
<path d="M313.981 226.713C316.784 226.713 316.784 231.092 313.981 231.092C311.177 231.092 311.154 226.713 313.981 226.713Z" fill="white"/>
<path d="M289.341 218.79C290.704 220.534 292.773 221.633 294.567 222.861C294.609 222.885 294.656 222.899 294.704 222.901C294.752 222.903 294.799 222.894 294.843 222.875C294.887 222.855 294.926 222.825 294.956 222.788C294.986 222.75 295.006 222.706 295.016 222.659C295.055 222.659 295.1 222.659 295.094 222.586C294.902 220.283 294.107 218.071 292.79 216.171C291.999 215.078 290.395 214.052 289.128 215.112C287.861 216.171 288.545 217.775 289.341 218.79ZM289.218 216.71C289.459 213.979 291.932 216.07 292.481 216.895C292.825 217.434 293.133 217.996 293.401 218.577C293.941 219.791 294.418 221.031 294.831 222.294C293.99 221.633 293.098 221.055 292.229 220.427C291.197 219.693 289.083 218.218 289.218 216.71Z" fill="#263238"/>
<path d="M304.01 220.954C303.808 219.311 301.935 218.964 300.612 219.222C298.352 219.709 296.259 220.782 294.545 222.334C294.505 222.367 294.545 222.412 294.545 222.44C294.519 222.481 294.504 222.527 294.5 222.574C294.496 222.622 294.503 222.67 294.521 222.714C294.539 222.759 294.568 222.798 294.604 222.829C294.64 222.861 294.683 222.883 294.73 222.894C296.883 223.225 299.143 223.836 301.324 223.494C302.614 223.292 304.201 222.502 304.01 220.954ZM298.105 222.726C297.046 222.591 295.997 222.406 294.926 222.311C296.09 221.671 297.286 221.091 298.509 220.573C299.105 220.327 299.718 220.124 300.343 219.967C301.307 219.737 304.543 219.9 302.849 222.059C301.919 223.253 299.367 222.883 298.105 222.726Z" fill="#263238"/>
<path d="M281.451 96.2799C281.451 96.2799 285.029 114.464 285.259 115.131C285.259 115.131 287.103 115.95 291.001 117.867C291.001 117.867 291.242 126.777 291.5 136.444C291.786 147.249 292.061 159.298 292.021 161.855C291.831 169.8 292.459 205.652 292.963 217.057C293.005 218.397 293.344 219.711 293.956 220.904H317.99C318.916 219.755 319.393 218.308 319.33 216.833C318.641 204.436 315.04 164.771 314.996 161.838C314.867 154.067 314.317 135.064 313.313 116.914C313.224 115.31 313.986 110.068 313.874 108.688C313.369 100.452 311.53 96.235 311.53 96.235L281.451 96.2799Z" fill="#455A64"/>
<path d="M295.111 215.297C298.75 215.229 297.707 215.196 301.341 215.173C303.124 215.173 314.799 215.1 316.482 215.414C316.515 215.414 316.515 215.487 316.482 215.493C314.799 215.796 303.119 215.627 301.341 215.599C297.702 215.549 298.75 215.521 295.111 215.42C295.095 215.42 295.079 215.413 295.068 215.402C295.056 215.39 295.049 215.375 295.049 215.358C295.049 215.342 295.056 215.326 295.068 215.315C295.079 215.303 295.095 215.297 295.111 215.297Z" fill="#263238"/>
<path d="M308.3 109.765C307.65 109.597 306.949 109.541 306.281 109.434C305.721 109.35 305.205 109.255 304.672 109.137C303.65 108.958 302.682 108.55 301.84 107.943C300.511 106.905 298.992 101.663 298.806 101.332C298.487 100.771 298.391 101.259 298.391 101.332C298.391 101.937 299.788 106.53 300.326 107.388C301.313 108.958 303.074 109.591 304.812 109.81C305.317 109.877 305.827 109.911 306.332 109.939C306.973 109.998 307.619 109.998 308.261 109.939C308.283 109.941 308.305 109.935 308.323 109.923C308.34 109.91 308.353 109.891 308.358 109.869C308.363 109.848 308.359 109.825 308.349 109.806C308.338 109.787 308.321 109.772 308.3 109.765Z" fill="#263238"/>
<path d="M285.158 114.929C287.748 115.869 290.251 117.034 292.638 118.411C292.659 118.42 292.675 118.437 292.684 118.458C292.692 118.479 292.692 118.502 292.683 118.523C292.674 118.544 292.657 118.561 292.636 118.569C292.615 118.577 292.592 118.577 292.571 118.568C290.048 117.486 287.479 116.449 285.023 115.204C285 115.18 284.985 115.149 284.979 115.116C284.974 115.083 284.979 115.049 284.994 115.019C285.009 114.989 285.032 114.964 285.062 114.948C285.091 114.932 285.124 114.925 285.158 114.929Z" fill="#263238"/>
<path d="M284.423 97.6424C284.423 97.5527 284.58 97.5359 284.58 97.6424C284.58 100.637 284.754 103.25 285.006 106.053C285.124 107.348 286.167 114.525 288.416 113.998C288.791 113.914 288.976 113.544 289.044 112.972C289.036 112.23 288.936 111.492 288.746 110.774C288.494 109.272 288.298 107.769 288.186 106.249C287.924 103.426 287.954 100.583 288.275 97.7658C288.275 97.7464 288.283 97.7279 288.297 97.7142C288.31 97.7005 288.329 97.6929 288.348 97.6929C288.368 97.6929 288.386 97.7005 288.4 97.7142C288.414 97.7279 288.421 97.7464 288.421 97.7658C288.354 101.682 288.583 105.597 289.105 109.479C289.386 111.346 290.328 114.155 288.376 114.441C286.425 114.727 285.102 110.029 284.86 108.744C284.233 105.079 284.086 101.346 284.423 97.6424Z" fill="#263238"/>
<path d="M288.348 114.189C288.547 114.673 288.716 115.17 288.853 115.675C288.997 116.066 289.067 116.481 289.06 116.897C289.058 116.914 289.05 116.929 289.038 116.941C289.027 116.953 289.012 116.961 288.996 116.964C288.98 116.968 288.963 116.967 288.947 116.961C288.932 116.955 288.919 116.944 288.909 116.931C288.674 116.564 288.496 116.163 288.382 115.742C288.214 115.282 288.029 114.823 287.872 114.363C287.849 114.3 287.852 114.23 287.88 114.169C287.908 114.108 287.96 114.061 288.023 114.038C288.086 114.015 288.156 114.018 288.217 114.046C288.278 114.074 288.325 114.126 288.348 114.189Z" fill="#263238"/>
<path d="M309.758 99.1507C310.139 101.494 310.498 103.838 310.812 106.188C311.02 107.948 311.373 109.748 311.138 111.52L310.947 113.292C310.679 115.047 310.565 116.821 310.605 118.596C310.874 130.977 311.166 143.576 311.726 155.934C312.573 174.303 314.25 194.337 315.321 212.757C313.93 194.651 312.136 174.039 311.272 155.956C310.739 143.593 310.448 130.988 310.313 118.602C310.287 116.814 310.418 115.028 310.706 113.264L310.925 111.503C311.182 109.731 310.863 107.971 310.683 106.204C310.409 103.849 310.083 101.5 309.741 99.1507H309.758Z" fill="#263238"/>
<path d="M287.945 65.6874C280.156 71.4403 270.314 78.1969 265.733 77.2942C262.447 76.6437 250.968 67.9695 248.652 65.6986C247.43 64.4931 259.424 55.6787 260.765 56.9291C262.105 58.1795 268.004 63.0689 269.243 63.6576C269.922 63.9772 279.567 60.983 286.15 58.9589C294.163 56.503 293.272 61.7456 287.945 65.6874Z" fill="#AD6359"/>
<path d="M250.351 67.0724C248.938 66.0519 242.764 60.7924 241.379 58.9589C239.994 57.1253 236.489 51.5575 237.785 50.3744C239.08 49.1913 240.252 50.7388 240.252 50.7388C240.252 50.7388 239.131 48.1484 240.549 47.0774C241.968 46.0064 243.695 48.468 243.695 48.468C243.695 48.468 242.742 45.7317 244.256 44.7617C245.77 43.7916 247.06 46.5615 247.06 46.5615C247.06 46.5615 246.073 44.1 247.62 43.8197C249.499 43.4776 250.811 48.2268 252.465 50.1389C252.841 50.5706 260.703 58.3982 260.703 58.3982L250.351 67.0724Z" fill="#AD6359"/>
<path d="M246.953 46.326C247.929 49.8193 248.961 51.1762 251.602 53.5704C251.652 53.6153 251.602 53.6994 251.54 53.6602C248.736 51.5519 247.2 50.0324 246.785 46.3709C246.762 46.1859 246.908 46.1634 246.953 46.326Z" fill="#263238"/>
<path d="M243.65 48.2044C244.979 51.7369 246.084 53.2508 248.697 55.931C248.731 55.9703 248.697 56.0376 248.63 55.9983C245.871 53.5536 244.374 52.006 243.51 48.2997C243.443 48.1203 243.589 48.0306 243.65 48.2044Z" fill="#263238"/>
<path d="M240.415 50.8678C241.946 54.1984 243.084 55.8806 245.933 58.1851C245.947 58.1955 245.958 58.2114 245.961 58.2293C245.964 58.2471 245.96 58.2655 245.949 58.2804C245.939 58.2953 245.923 58.3054 245.905 58.3086C245.887 58.3117 245.869 58.3076 245.854 58.2972C242.725 56.2226 241.284 54.1424 240.319 50.9295C240.252 50.7108 240.319 50.6603 240.415 50.8678Z" fill="#263238"/>
<path d="M262.447 59.9009C262.447 59.9009 262.054 55.3759 261.449 53.4247C260.843 51.4734 255.892 45.0532 254.439 46.0401C252.572 47.3185 254.697 51.5911 256.009 53.548C256.009 53.548 251.68 56.4974 252.544 59.8953C253.407 63.2932 262.447 59.9009 262.447 59.9009Z" fill="#AD6359"/>
<path d="M254.041 46.5615C253.178 48.9558 255.067 51.4117 256.2 53.4078C256.219 53.4359 256.231 53.4684 256.235 53.5024C256.238 53.5363 256.233 53.5706 256.22 53.602C256.206 53.6333 256.185 53.6608 256.158 53.6817C256.131 53.7027 256.099 53.7165 256.066 53.7218C254.333 55.0843 252.286 57.501 252.421 59.8224C252.421 59.8897 252.325 59.9065 252.314 59.8224C251.832 57.3496 253.654 54.8096 255.645 53.4415C254.451 51.4173 252.662 48.8717 254.019 46.5335C254.03 46.5223 254.047 46.5223 254.041 46.5615Z" fill="#263238"/>
<path d="M274.89 61.4596L277.436 75.2307C277.436 75.2307 289.554 65.6986 292.33 61.9194C295.453 57.6412 292.532 56.6936 287.603 57.7141C282.483 58.7738 274.89 61.4596 274.89 61.4596Z" fill="#FFC727"/>
<path d="M277.285 61.3699C277.442 61.8353 278.272 66.1192 278.434 67.0556C278.597 67.992 279.286 71.8104 279.371 72.7917C279.371 72.8006 279.367 72.8091 279.361 72.8154C279.354 72.8217 279.346 72.8253 279.337 72.8253C279.328 72.8253 279.319 72.8217 279.313 72.8154C279.307 72.8091 279.303 72.8006 279.303 72.7917C279.034 71.8497 278.328 68.0032 278.143 67.0556C277.957 66.108 277.234 61.8466 277.217 61.3643C277.217 61.3363 277.273 61.3363 277.285 61.3699Z" fill="#263238"/>
<path opacity="0.1" d="M277.43 75.2307L276.387 69.59L292.834 57.7365C293.922 58.3477 293.956 59.671 292.307 61.9026C289.548 65.7211 277.43 75.2307 277.43 75.2307Z" fill="black"/>
<path d="M279.012 99.2292L313.375 100.16C313.375 100.16 314.205 98.3993 313.936 97.0144C312.528 89.7251 306.337 67.1116 295.991 57.6076C294.472 56.2114 290.496 55.1068 287.356 58.6168C283.795 62.5979 279.449 87.729 278.468 96.1285C278.398 97.1907 278.585 98.2541 279.012 99.2292Z" fill="#FFC727"/>
<path d="M287.485 62.968C289.453 63.8259 292.913 60.927 294.141 58.3421C294.225 58.1627 293.58 51.3612 293.513 49.9819C293.513 49.7015 284.989 52.5668 284.989 52.5668C285.577 54.2617 285.954 56.0225 286.111 57.8094C286.131 57.9958 286.131 58.1838 286.111 58.3701C286.111 58.3982 286.111 58.4318 286.111 58.4655C285.976 59.5532 286.475 62.5306 287.485 62.968Z" fill="#AD6359"/>
<path d="M286.105 58.4711C286.402 58.4963 286.7 58.4963 286.997 58.4711C291.522 58.1178 292.84 52.4771 293.205 50.0099C291.629 50.3351 285.006 52.5668 285.006 52.5668C285.594 54.2615 285.971 56.0224 286.128 57.8094C286.148 57.9958 286.148 58.1838 286.128 58.3701C286.105 58.4038 286.105 58.4374 286.105 58.4711Z" fill="#263238"/>
<path d="M295.358 40.7021C296.266 43.7748 294.573 52.6284 292.375 54.5853C289.184 57.4225 284.002 57.6524 281.597 53.8284C279.27 50.122 281.687 38.6275 284.137 36.85C287.754 34.2371 294.012 36.1547 295.358 40.7021Z" fill="#AD6359"/>
<path d="M286.767 45.8102C286.767 45.8102 286.806 45.8438 286.801 45.8719C286.672 46.4326 286.621 47.1615 287.126 47.4643C286.47 47.2792 286.548 46.3485 286.767 45.8102Z" fill="#263238"/>
<path d="M287.412 45.2831C288.388 45.3897 288.102 47.3297 287.199 47.2288C286.296 47.1279 286.599 45.1934 287.412 45.2831Z" fill="#263238"/>
<path d="M283.268 45.2775C283.268 45.2775 283.212 45.2775 283.212 45.3224C283.144 45.9279 282.959 46.6064 282.387 46.7297V46.7634C283.066 46.7634 283.301 45.8606 283.268 45.2775Z" fill="#263238"/>
<path d="M282.819 44.571C281.866 44.3579 281.507 46.2868 282.393 46.483C283.279 46.6793 283.621 44.7504 282.819 44.571Z" fill="#263238"/>
<path d="M288.135 44.2009C287.874 44.1456 287.615 44.0764 287.361 43.9935C287.077 43.9567 286.813 43.8266 286.61 43.6234C286.558 43.5479 286.533 43.4576 286.538 43.3663C286.543 43.2751 286.578 43.1881 286.638 43.1188C286.777 43 286.946 42.9207 287.127 42.8892C287.307 42.8576 287.493 42.8749 287.664 42.9393C288.027 43.008 288.352 43.2075 288.578 43.5C288.636 43.5711 288.67 43.6585 288.676 43.75C288.681 43.8414 288.658 43.9323 288.609 44.0097C288.56 44.0871 288.488 44.1473 288.403 44.1816C288.318 44.2159 288.224 44.2227 288.135 44.2009Z" fill="#263238"/>
<path d="M282.287 43.7972C282.552 43.7646 282.816 43.7178 283.077 43.657C283.363 43.6471 283.637 43.5425 283.857 43.3599C283.913 43.2866 283.943 43.1969 283.943 43.1047C283.943 43.0126 283.913 42.9229 283.857 42.8496C283.728 42.7195 283.568 42.6259 283.391 42.5786C283.215 42.5313 283.029 42.5319 282.853 42.5805C282.48 42.6238 282.137 42.8036 281.888 43.0851C281.835 43.1538 281.803 43.2368 281.796 43.3235C281.79 43.4103 281.809 43.4971 281.851 43.5731C281.894 43.649 281.958 43.7108 282.035 43.7507C282.113 43.7905 282.2 43.8067 282.287 43.7972Z" fill="#263238"/>
<path d="M287.165 51.4397C287.008 51.5743 286.851 51.7593 286.632 51.7649C286.408 51.7471 286.19 51.6821 285.993 51.5743C285.993 51.5743 285.954 51.5743 285.993 51.6023C286.071 51.727 286.182 51.8279 286.314 51.8941C286.445 51.9603 286.592 51.9893 286.739 51.978C286.864 51.9539 286.98 51.8931 287.071 51.8032C287.162 51.7134 287.224 51.5986 287.249 51.4734C287.227 51.4397 287.188 51.4229 287.165 51.4397Z" fill="#263238"/>
<path d="M286.666 49.5894C286.497 49.8273 286.28 50.0267 286.029 50.1746C285.778 50.3224 285.498 50.4154 285.208 50.4473C284.961 50.4837 284.709 50.4837 284.462 50.4473H284.322L284.187 50.4136C284.156 50.4053 284.129 50.3872 284.108 50.3619C284.088 50.3367 284.077 50.3057 284.075 50.2734C284.075 50.2734 284.075 50.2342 284.075 50.2118V50.1613C284.075 49.6959 284.182 48.9894 284.182 48.9894C284.002 49.0623 283.111 49.3987 283.139 49.1576C283.327 47.067 283.726 45.0007 284.328 42.9898C284.331 42.9786 284.338 42.9688 284.348 42.9619C284.358 42.955 284.369 42.9512 284.381 42.9512C284.393 42.9512 284.404 42.955 284.414 42.9619C284.423 42.9688 284.43 42.9786 284.434 42.9898C284.277 44.9299 283.778 46.8307 283.587 48.7763C283.906 48.6541 284.24 48.5749 284.58 48.5408C284.642 48.5408 284.384 49.9034 284.389 50.1164C284.769 50.1793 285.158 50.1645 285.532 50.0729C285.906 49.9814 286.257 49.815 286.565 49.5838C286.632 49.4997 286.666 49.5389 286.666 49.5894Z" fill="#263238"/>
<path opacity="0.3" d="M294.758 49.2586C294.197 51.636 293.317 53.7443 292.375 54.5853C289.184 57.4225 284.002 57.6524 281.602 53.8284C280.795 52.5499 280.559 50.3463 280.688 47.9353C281.513 50.0604 283.66 48.6025 283.66 48.6025L284.72 48.6698C285.78 50.4529 288.937 50.1557 290.586 49.1296C291.786 48.3838 292.694 45.6308 292.694 45.6308L294.758 49.2586Z" fill="#263238"/>
<path d="M295.145 48.1147C293.816 48.4063 292.868 46.7858 292.582 45.956C292.296 45.1261 293.143 40.618 292.582 39.3564C292.021 38.0948 290.692 37.3434 289.599 37.5958C288.505 37.8481 287.03 39.1882 286.234 39.0704C285.438 38.9527 285.354 37.2201 284.799 37.192C283.582 37.1191 282.124 40.0461 281.827 41.3693C281.827 41.3693 282.118 35.6501 287.995 35.465C293.709 35.28 295.319 39.2947 295.717 41.0385C296.468 44.3748 295.145 48.1147 295.145 48.1147Z" fill="#263238"/>
<path d="M283.711 36.4911C284.608 36.5584 289.223 38.1733 291.001 39.7657C292.778 41.3581 295.543 45.541 295.683 45.7597C295.823 45.9784 299.249 38.6162 293.479 35.2183C287.227 31.512 283.711 36.4911 283.711 36.4911Z" fill="#FFC727"/>
<path d="M295.448 45.3336C295.448 45.3336 293.087 38.605 291.197 36.6089C289.307 34.6128 284.417 32.2914 280.806 32.6839C278.002 32.9755 282.993 38.0836 282.993 38.0836C283.133 37.842 283.328 37.6365 283.562 37.4837C283.795 37.3308 284.061 37.2348 284.339 37.2032C286.077 37.0911 288.825 38.4985 290.333 39.5975C292.206 40.96 295.448 45.3336 295.448 45.3336Z" fill="#FFC727"/>
<path opacity="0.2" d="M295.448 45.3336C295.448 45.3336 293.087 38.605 291.197 36.6089C289.307 34.6128 284.417 32.2914 280.806 32.6839C278.002 32.9755 282.993 38.0836 282.993 38.0836C283.133 37.842 283.328 37.6365 283.562 37.4837C283.795 37.3308 284.061 37.2348 284.339 37.2032C286.077 37.0911 288.825 38.4985 290.333 39.5975C292.206 40.96 295.448 45.3336 295.448 45.3336Z" fill="black"/>
<path d="M292.745 47.554C292.745 47.554 294.775 44.7056 296.07 45.4345C297.365 46.1634 295.823 50.3015 294.287 50.8566C294.096 50.9414 293.889 50.9865 293.68 50.9893C293.471 50.9921 293.263 50.9524 293.07 50.8728C292.876 50.7931 292.701 50.6751 292.555 50.5258C292.408 50.3766 292.294 50.1991 292.218 50.0043L292.745 47.554Z" fill="#AD6359"/>
<path d="M295.599 46.612C295.599 46.612 295.627 46.612 295.599 46.6512C294.528 47.0718 293.956 48.0642 293.552 49.0903C293.615 48.9831 293.7 48.8907 293.802 48.8198C293.904 48.7488 294.02 48.701 294.142 48.6796C294.264 48.6583 294.39 48.6639 294.51 48.6961C294.63 48.7283 294.741 48.7863 294.836 48.8661C294.836 48.8661 294.836 48.9277 294.803 48.9221C294.615 48.862 294.413 48.861 294.224 48.9191C294.036 48.9773 293.87 49.0918 293.748 49.2473C293.552 49.5125 293.381 49.7961 293.238 50.094C293.188 50.1893 293.014 50.1333 293.053 50.0267V49.9987C293.053 48.6362 294.13 46.7354 295.599 46.612Z" fill="#263238"/>
<path d="M211.347 35.1207L206.118 53.713C205.975 54.2214 206.271 54.7494 206.779 54.8924L274.097 73.824C274.606 73.9669 275.134 73.6707 275.277 73.1624L280.506 54.5701C280.649 54.0617 280.353 53.5337 279.844 53.3907L212.527 34.4591C212.018 34.3161 211.49 34.6123 211.347 35.1207Z" fill="#37474F"/>
<path d="M208.435 43.3823C226.581 48.154 259.823 57.4001 277.823 62.7213C259.677 57.9496 226.435 48.7035 208.435 43.3823Z" fill="#263238"/>
<path d="M236.888 48.7539L236.439 50.3688L234.88 49.937L234.011 53.0658L223.289 50.0772L224.164 46.9484L222.605 46.5167L223.054 44.9018L226.34 45.8158L225.493 48.8548L232.755 50.8846L233.601 47.84L236.888 48.7539Z" fill="#FFC727"/>
<path d="M216.501 43.7034L214.227 43.0694C214.119 43.0395 214.008 43.1022 213.978 43.2096L213.085 46.4125C213.055 46.5199 213.118 46.6312 213.225 46.6611L215.499 47.2951C215.607 47.3251 215.718 47.2623 215.748 47.1549L216.641 43.9521C216.671 43.8447 216.608 43.7334 216.501 43.7034Z" fill="#FFC727"/>
<path d="M246.404 52.0452L244.13 51.4112C244.023 51.3813 243.911 51.444 243.881 51.5514L242.988 54.7543C242.958 54.8617 243.021 54.973 243.128 55.0029L245.402 55.637C245.51 55.6669 245.621 55.6041 245.651 55.4967L246.544 52.2939C246.574 52.1865 246.511 52.0752 246.404 52.0452Z" fill="#FFC727"/>
<path opacity="0.1" d="M279.752 52.2135L254.052 45.0476L248.333 65.5528L274.032 72.7131C274.155 72.7481 274.283 72.7583 274.41 72.7433C274.536 72.7283 274.659 72.6884 274.77 72.6258C274.881 72.5633 274.978 72.4793 275.057 72.3788C275.135 72.2783 275.193 72.1632 275.227 72.0403L280.425 53.4078C280.46 53.2852 280.47 53.1569 280.455 53.0303C280.44 52.9037 280.4 52.7814 280.338 52.6703C280.275 52.5593 280.191 52.4617 280.09 52.3833C279.99 52.3049 279.875 52.2472 279.752 52.2135Z" fill="#020100"/>
<path d="M295.874 66.5061C289.89 79.1221 276.701 93.2689 271.929 92.5568C266.613 91.7661 270.993 78.438 271.705 78.0455C272.417 77.653 283.167 69.1807 291.892 62.9063C299.962 57.1422 297.354 63.3885 295.874 66.5061Z" fill="#AD6359"/>
<path d="M281.244 69.4386L288.404 81.4771C288.404 81.4771 296.479 68.362 297.769 63.8315C299.216 58.7346 296.294 59.1103 291.875 61.5269C287.457 63.9436 281.244 69.4386 281.244 69.4386Z" fill="#FFC727"/>
<path d="M283.464 68.5246C283.778 68.9059 286.038 72.6403 286.515 73.4589C286.991 74.2775 288.954 77.625 289.374 78.5053C289.374 78.5445 289.341 78.5782 289.318 78.5389C288.758 77.7483 286.745 74.3841 286.245 73.5542C285.746 72.7244 283.587 68.9844 283.408 68.5415C283.391 68.5134 283.447 68.4966 283.464 68.5246Z" fill="#263238"/>
<path d="M282.118 70.9076C281.765 70.4198 281.434 69.9264 281.103 69.4274C282.482 67.9697 284.018 66.6701 285.685 65.5528C286.246 65.1828 286.806 64.8295 287.367 64.5043C285.954 65.7659 284.317 67.0668 282.847 68.2723C282.348 68.6872 281.827 69.0909 281.345 69.5171V69.3769C281.608 69.8815 281.872 70.3918 282.118 70.9076Z" fill="#263238"/>
<path d="M287.35 79.8061C287.748 80.3388 288.124 80.8771 288.472 81.4154H288.281C289.262 79.694 291.253 76.2456 292.251 74.5355C293.412 72.5169 295.089 69.6629 296.177 67.6443C294.068 72.5113 291.298 77.0643 288.455 81.5331L288.354 81.6901C287.995 81.0677 287.642 80.4398 287.305 79.8005L287.35 79.8061Z" fill="#263238"/>
<path d="M294.517 70.9974C295.02 70.4211 295.568 69.8849 296.154 69.3937C296.007 69.7598 295.786 70.0914 295.504 70.3675C295.222 70.6435 294.886 70.858 294.517 70.9974Z" fill="#263238"/>
<path d="M271.385 92.4278C268.851 91.7829 265.021 88.2729 259.643 73.9803C258.903 72.001 272.283 63.8427 273.185 65.9117C274.307 68.5246 277.257 77.5633 277.397 78.3651C278.462 84.3423 273.92 93.0614 271.385 92.4278Z" fill="#AD6359"/>
<path d="M262.329 80.5575L261.365 78.3147C259.918 75.9709 258.421 72.5169 259.957 66.7808C259.957 66.7808 252.252 61.925 253.351 59.4916C253.811 58.4935 255.505 59.0149 257.204 59.8728C255.078 58.3982 252.992 56.6039 253.441 55.4881C253.89 54.3723 255.224 54.5741 256.772 55.1797C254.978 53.862 253.621 52.4322 254.26 51.3668C255.241 49.7408 258.712 51.6023 261.079 53.1443C258.836 51.4622 255.976 48.9389 256.996 47.7895C258.757 45.7877 267.152 52.8864 268.856 54.8432C269.978 56.1497 271.178 59.6542 271.98 61.6503C273.197 64.7006 274.352 68.6424 274.352 68.6424C274.352 68.6424 275.243 71.1544 275.271 71.216C275.299 71.2777 262.329 80.5575 262.329 80.5575Z" fill="#AD6359"/>
<path d="M261.112 53.1779C262.312 53.9629 263.221 54.6582 263.355 54.7704C263.21 54.675 262.251 54.047 261.112 53.1779Z" fill="#FFC727"/>
<path d="M266.137 56.6656C265.268 55.9366 264.398 55.1909 263.468 54.5405C262.537 53.89 261.583 53.2733 260.602 52.7125C259.329 51.9525 257.972 51.3428 256.559 50.8958C259.009 51.8771 262.368 54.1536 263.288 54.8208C264.208 55.4881 265.172 56.0712 266.092 56.7216C266.137 56.7216 266.154 56.688 266.137 56.6656Z" fill="#263238"/>
<path d="M263.849 60.0635C262.727 59.1775 261.606 58.258 260.406 57.4281C259.206 56.5983 258.034 55.9142 256.8 55.1853C256.705 55.1236 256.705 55.1853 256.8 55.2582C258.006 56.0544 259.043 56.8786 260.254 57.6917C261.466 58.5047 262.677 59.2617 263.832 60.1083C263.849 60.1083 263.866 60.0803 263.849 60.0635Z" fill="#263238"/>
<path d="M262.581 63.3773C260.857 61.9759 258.991 60.7582 257.013 59.7439C256.918 59.6934 256.929 59.7831 257.013 59.8392C258.886 61.0111 260.378 61.9194 262.52 63.4334C262.553 63.4558 262.615 63.4053 262.581 63.3773Z" fill="#263238"/>
<path d="M269.389 55.6058C267.752 53.419 265.424 51.8995 263.221 50.3071C261.768 49.2866 260.282 48.1652 258.561 47.6942C255.836 47.0942 257.288 49.7576 258.443 50.8285C259.07 51.4736 259.741 52.0749 260.451 52.6284L260.282 52.8695C258.931 52.0677 255.953 50.066 254.462 51.0921C255.953 49.9314 259.026 51.8266 260.445 52.6228L260.271 52.8639C259.135 52.0777 258.127 51.1207 257.282 50.0267C256.722 49.2978 256.127 47.9689 257.181 47.3353C259.497 46.4662 263.742 50.3407 265.593 51.6864C267.059 52.7793 268.336 54.1052 269.372 55.6114L269.389 55.6058Z" fill="#263238"/>
<path d="M274.083 67.7172C274.458 69.0573 274.868 70.3918 275.266 71.7207C275.664 73.0496 276.085 74.3785 276.449 75.7186C276.876 77.0279 277.147 78.3829 277.257 79.7557C277.354 81.1403 277.373 82.5294 277.313 83.9162C277.544 82.5364 277.642 81.1374 277.604 79.7389C277.542 78.3324 277.299 76.9397 276.881 75.5952C276.477 74.2551 276.062 72.9262 275.591 71.6141C275.12 70.3021 274.632 68.9956 274.083 67.7172Z" fill="#263238"/>
<path d="M173.337 56.0936H99.1374C98.0596 56.0936 97.1859 56.9672 97.1859 58.0449V82.52C97.1859 83.5976 98.0596 84.4713 99.1374 84.4713H173.337C174.415 84.4713 175.288 83.5976 175.288 82.52V58.0449C175.288 56.9672 174.415 56.0936 173.337 56.0936Z" fill="#FFC727"/>
<path opacity="0.5" d="M173.337 56.0936H99.1374C98.0596 56.0936 97.1859 56.9672 97.1859 58.0449V82.52C97.1859 83.5976 98.0596 84.4713 99.1374 84.4713H173.337C174.415 84.4713 175.288 83.5976 175.288 82.52V58.0449C175.288 56.9672 174.415 56.0936 173.337 56.0936Z" fill="#020100"/>
<path d="M97.1859 70.2852C122.207 69.9712 150.273 69.9712 175.294 70.2852C150.273 70.5992 122.207 70.5936 97.1859 70.2852Z" fill="#263238"/>
<path d="M145.366 67.2518V69.3769H143.314V73.5093H129.16V69.3769H127.108V67.2518H131.443V71.2609H141.032V67.2518H145.366Z" fill="#FFC727"/>
<path d="M116.93 67.4817H113.01C112.945 67.4817 112.893 67.5344 112.893 67.5994V72.9711C112.893 73.0361 112.945 73.0888 113.01 73.0888H116.93C116.995 73.0888 117.048 73.0361 117.048 72.9711V67.5994C117.048 67.5344 116.995 67.4817 116.93 67.4817Z" fill="#FFC727"/>
<path d="M159.464 67.4817H155.544C155.479 67.4817 155.426 67.5344 155.426 67.5994V72.9711C155.426 73.0361 155.479 73.0888 155.544 73.0888H159.464C159.529 73.0888 159.581 73.0361 159.581 72.9711V67.5994C159.581 67.5344 159.529 67.4817 159.464 67.4817Z" fill="#FFC727"/>
<path d="M211.603 60.2822H147.2C146.599 60.2822 146.112 60.7692 146.112 61.3699V83.3891C146.112 83.9899 146.599 84.4769 147.2 84.4769H211.603C212.204 84.4769 212.691 83.9899 212.691 83.3891V61.3699C212.691 60.7692 212.204 60.2822 211.603 60.2822Z" fill="#FFC727"/>
<path opacity="0.3" d="M211.603 60.2822H147.2C146.599 60.2822 146.112 60.7692 146.112 61.3699V83.3891C146.112 83.9899 146.599 84.4769 147.2 84.4769H211.603C212.204 84.4769 212.691 83.9899 212.691 83.3891V61.3699C212.691 60.7692 212.204 60.2822 211.603 60.2822Z" fill="#020100"/>
<path d="M146.112 72.3767C167.421 72.0683 191.365 72.0627 212.685 72.3767C191.376 72.6907 167.438 72.6907 146.112 72.3767Z" fill="#263238"/>
<path d="M180.812 69.5788V71.4852H178.978V75.1747H166.333V71.4852H164.494V69.5788H168.368V73.1673H176.937V69.5788H180.812Z" fill="#FFC727"/>
<path d="M152.359 70.2572H155.023C155.053 70.2572 155.083 70.2632 155.11 70.2747C155.138 70.2863 155.164 70.3032 155.185 70.3245C155.206 70.3459 155.223 70.3712 155.235 70.3991C155.246 70.427 155.252 70.4569 155.252 70.4871V74.2719C155.252 74.3314 155.229 74.3884 155.187 74.4305C155.145 74.4726 155.088 74.4962 155.028 74.4962H152.336C152.277 74.4962 152.22 74.4726 152.178 74.4305C152.136 74.3884 152.112 74.3314 152.112 74.2719V70.4871C152.112 70.4554 152.119 70.4241 152.131 70.3951C152.144 70.366 152.162 70.3399 152.185 70.3183C152.209 70.2967 152.236 70.2801 152.266 70.2696C152.296 70.2591 152.327 70.2549 152.359 70.2572Z" fill="#FFC727"/>
<path d="M191.472 70.2572H194.163C194.223 70.2572 194.28 70.2808 194.322 70.3229C194.364 70.365 194.388 70.422 194.388 70.4815V74.2663C194.388 74.3258 194.364 74.3828 194.322 74.4249C194.28 74.467 194.223 74.4906 194.163 74.4906H191.472C191.411 74.4906 191.352 74.4664 191.309 74.4233C191.266 74.3801 191.242 74.3217 191.242 74.2607V70.4759C191.245 70.4169 191.27 70.3613 191.313 70.3205C191.356 70.2798 191.413 70.2571 191.472 70.2572Z" fill="#FFC727"/>
<path opacity="0.1" d="M211.586 60.2821H200.371V84.4769H211.586C211.884 84.4769 212.169 84.3587 212.379 84.1484C212.59 83.9381 212.708 83.6529 212.708 83.3554V61.3811C212.702 61.0876 212.581 60.8081 212.371 60.6026C212.162 60.3971 211.88 60.2821 211.586 60.2821Z" fill="#020100"/>
<path d="M279.825 138.384C279.685 138.137 278.513 138.092 277.638 137.548C276.763 137.004 275.339 134.375 275.159 133.864C274.98 133.354 277.015 130.326 277.015 128.1C277.015 125.874 272.316 122.084 271.071 121.792C269.827 121.501 261.539 122.011 260.681 122.157C259.823 122.302 254.26 125.476 254.26 127.153C254.26 128.829 255.942 132.513 258.348 133.719C260.753 134.924 267.028 134.812 267.937 135.031C268.845 135.249 274.43 145.123 275.227 145.684C276.023 146.245 277.963 146.155 278.288 146.082C278.614 146.009 279.786 144.4 280.077 143.75C280.369 143.099 280.229 139.079 279.825 138.384Z" fill="#263238"/>
<path d="M276.46 126.519C276.46 128.341 273.993 130.921 272.131 131.42C270.27 131.919 262.722 131.908 260.26 131.745C257.798 131.582 255.213 129.502 254.507 128.51C254.365 128.073 254.285 127.618 254.271 127.158C254.271 125.476 259.811 122.308 260.686 122.157C261.561 122.005 269.838 121.506 271.083 121.792C272.053 122.022 275.171 124.416 276.46 126.519Z" fill="#FFC727"/>
<path opacity="0.1" d="M276.46 126.519C276.46 128.341 273.993 130.921 272.131 131.42C270.27 131.919 262.722 131.908 260.26 131.745C257.798 131.582 255.213 129.502 254.507 128.51C254.365 128.073 254.285 127.618 254.271 127.158C254.271 125.476 259.811 122.308 260.686 122.157C261.561 122.005 269.838 121.506 271.083 121.792C272.053 122.022 275.171 124.416 276.46 126.519Z" fill="black"/>
<path d="M278.294 146.077L269.995 133.92L279.825 144.215L278.294 146.077Z" fill="white"/>
<path d="M257.036 125.128C258.27 124.328 259.549 123.598 260.866 122.942C261.572 122.723 268.957 122.342 270 122.381" fill="white"/>
<path d="M140.869 213.648L176.118 214.966C176.118 214.966 175.165 166.902 153.542 165.696C131.919 164.49 140.869 213.648 140.869 213.648Z" fill="#FFC727"/>
<path opacity="0.4" d="M140.869 213.648L176.118 214.966C176.118 214.966 175.165 166.902 153.542 165.696C131.919 164.49 140.869 213.648 140.869 213.648Z" fill="black"/>
<path d="M41.9792 192.571L72.4564 213.715C72.4564 213.715 65.2563 166.475 52.1569 165.668C39.0576 164.861 41.9792 192.571 41.9792 192.571Z" fill="#FFC727"/>
<path opacity="0.4" d="M41.9792 192.571L72.4564 213.715C72.4564 213.715 65.2563 166.475 52.1569 165.668C39.0576 164.861 41.9792 192.571 41.9792 192.571Z" fill="black"/>
<path d="M195.992 206.662C195.992 221.689 185.898 233.957 173.219 234.697H157.647V178.581H173.219V178.62C185.903 179.361 195.992 191.635 195.992 206.662Z" fill="#263238"/>
<path opacity="0.2" d="M195.992 206.662C195.992 221.689 185.898 233.957 173.219 234.697H157.647V178.581H173.219V178.62C185.903 179.361 195.992 191.635 195.992 206.662Z" fill="black"/>
<path d="M157.647 234.742C170.905 234.742 181.653 222.17 181.653 206.662C181.653 191.153 170.905 178.581 157.647 178.581C144.389 178.581 133.641 191.153 133.641 206.662C133.641 222.17 144.389 234.742 157.647 234.742Z" fill="#263238"/>
<path d="M173.101 234.708C172.731 234.708 172.361 234.742 171.98 234.742C171.598 234.742 171.234 234.742 170.858 234.708H173.101Z" fill="#263238"/>
<path d="M157.647 227.167C167.325 227.167 175.171 217.986 175.171 206.662C175.171 195.337 167.325 186.156 157.647 186.156C147.969 186.156 140.123 195.337 140.123 206.662C140.123 217.986 147.969 227.167 157.647 227.167Z" fill="#DBDBDB"/>
<path d="M157.647 225.569C166.572 225.569 173.808 217.104 173.808 206.662C173.808 196.219 166.572 187.754 157.647 187.754C148.721 187.754 141.486 196.219 141.486 206.662C141.486 217.104 148.721 225.569 157.647 225.569Z" fill="#A6A6A6"/>
<path d="M155.107 201.918H160.181C158.471 199.036 164.421 188.943 164.421 188.943L161.752 187.895C159.98 191.461 159.088 192.504 157.63 192.504C156.172 192.504 155.28 191.461 153.497 187.895L150.85 188.943C150.85 188.943 156.823 199.036 155.107 201.918Z" fill="#DBDBDB"/>
<path d="M160.608 202.282L162.178 207.929C164 205.125 174.055 208.647 174.055 208.647L174.083 205.355C170.634 204.48 169.513 203.813 169.036 202.187C168.559 200.561 169.159 199.255 171.509 196.171L169.827 193.53C169.827 193.53 163.49 203.292 160.608 202.282Z" fill="#DBDBDB"/>
<path d="M162.015 208.512L157.91 212C160.748 213.166 160.995 225.457 160.995 225.457L163.681 224.47C163.322 220.365 163.518 218.908 164.701 217.904C165.884 216.9 167.124 217.136 170.359 218.795L171.985 216.115C171.985 216.115 162.082 212.033 162.015 208.512Z" fill="#DBDBDB"/>
<path d="M157.383 212L153.279 208.512C153.206 212.033 143.303 216.098 143.303 216.098L144.94 218.779C148.164 217.096 149.426 216.883 150.592 217.887C151.759 218.891 151.966 220.349 151.619 224.459L154.299 225.44C154.299 225.44 154.54 213.166 157.383 212Z" fill="#DBDBDB"/>
<path d="M153.116 207.929L154.686 202.282C151.798 203.292 145.434 193.53 145.434 193.53L143.751 196.176C146.106 199.255 146.678 200.567 146.23 202.187C145.781 203.808 144.654 204.48 141.183 205.361V208.647C141.183 208.647 151.293 205.125 153.116 207.929Z" fill="#DBDBDB"/>
<path d="M152.953 206.527C152.953 209.56 155.056 212.016 157.647 212.016C160.238 212.016 162.335 209.56 162.335 206.527C162.335 203.494 160.238 201.038 157.647 201.038C155.056 201.038 152.953 203.522 152.953 206.527Z" fill="#DBDBDB"/>
<path d="M308.536 206.662C308.536 221.689 298.442 233.957 285.763 234.697H270.208V178.581H285.786V178.62C298.47 179.361 308.536 191.635 308.536 206.662Z" fill="#263238"/>
<path opacity="0.2" d="M308.536 206.662C308.536 221.689 298.442 233.957 285.763 234.697H270.208V178.581H285.786V178.62C298.47 179.361 308.536 191.635 308.536 206.662Z" fill="black"/>
<path d="M270.208 234.742C283.466 234.742 294.214 222.17 294.214 206.662C294.214 191.153 283.466 178.581 270.208 178.581C256.95 178.581 246.202 191.153 246.202 206.662C246.202 222.17 256.95 234.742 270.208 234.742Z" fill="#263238"/>
<path d="M285.668 234.708C285.298 234.708 284.928 234.742 284.546 234.742C284.165 234.742 283.806 234.742 283.425 234.708H285.668Z" fill="#263238"/>
<path d="M270.208 227.167C279.886 227.167 287.732 217.986 287.732 206.662C287.732 195.337 279.886 186.156 270.208 186.156C260.53 186.156 252.684 195.337 252.684 206.662C252.684 217.986 260.53 227.167 270.208 227.167Z" fill="#DBDBDB"/>
<path d="M270.208 225.569C279.133 225.569 286.369 217.104 286.369 206.662C286.369 196.219 279.133 187.754 270.208 187.754C261.282 187.754 254.047 196.219 254.047 206.662C254.047 217.104 261.282 225.569 270.208 225.569Z" fill="#A6A6A6"/>
<path d="M267.673 201.918H272.72C271.038 199.025 276.976 188.926 276.976 188.926L274.329 187.878C272.552 191.444 271.666 192.487 270.208 192.487C268.75 192.487 267.858 191.444 266.075 187.878L263.417 188.943C263.417 188.943 269.384 199.036 267.673 201.918Z" fill="#DBDBDB"/>
<path d="M273.174 202.282L274.744 207.929C276.567 205.125 286.621 208.647 286.621 208.647L286.649 205.355C283.201 204.48 282.074 203.813 281.602 202.187C281.131 200.561 281.726 199.255 284.075 196.171L282.393 193.53C282.393 193.53 276.057 203.292 273.174 202.282Z" fill="#DBDBDB"/>
<path d="M274.582 208.512L270.471 212C273.314 213.166 273.561 225.457 273.561 225.457L276.242 224.47C275.888 220.365 276.085 218.908 277.262 217.904C278.44 216.9 279.69 217.136 282.92 218.795L284.552 216.115C284.552 216.115 274.649 212.033 274.582 208.512Z" fill="#DBDBDB"/>
<path d="M269.95 212L265.84 208.512C265.772 212.033 255.869 216.098 255.869 216.098L257.507 218.779C260.731 217.096 261.993 216.883 263.159 217.887C264.326 218.891 264.533 220.349 264.18 224.459L266.86 225.44C266.86 225.44 267.107 213.166 269.95 212Z" fill="#DBDBDB"/>
<path d="M265.683 207.929L267.247 202.282C264.365 203.292 258 193.53 258 193.53L256.318 196.176C258.667 199.255 259.245 200.567 258.791 202.187C258.337 203.808 257.215 204.48 253.744 205.361V208.647C253.744 208.647 263.855 205.125 265.683 207.929Z" fill="#DBDBDB"/>
<path d="M265.52 206.527C265.52 209.56 267.617 212.016 270.208 212.016C272.799 212.016 274.901 209.56 274.901 206.527C274.901 203.494 272.799 201.038 270.208 201.038C267.617 201.038 265.52 203.522 265.52 206.527Z" fill="#DBDBDB"/>
<path d="M85.309 206.662C85.309 221.689 82.1127 233.957 70.5386 234.697H56.329V178.581H70.5386V178.62C82.1127 179.361 85.309 191.635 85.309 206.662Z" fill="#263238"/>
<path opacity="0.2" d="M85.309 206.662C85.309 221.689 82.1127 233.957 70.5386 234.697H56.329V178.581H70.5386V178.62C82.1127 179.361 85.309 191.635 85.309 206.662Z" fill="black"/>
<path d="M70.432 234.708C70.0956 234.708 69.7591 234.742 69.4171 234.742C69.075 234.742 68.7386 234.742 68.4021 234.708H70.432Z" fill="#263238"/>
<path d="M56.329 234.742C64.4648 234.742 71.0602 222.17 71.0602 206.662C71.0602 191.153 64.4648 178.581 56.329 178.581C48.1933 178.581 41.5979 191.153 41.5979 206.662C41.5979 222.17 48.1933 234.742 56.329 234.742Z" fill="#263238"/>
<path d="M56.329 227.167C62.269 227.167 67.0843 217.986 67.0843 206.662C67.0843 195.337 62.269 186.156 56.329 186.156C50.3889 186.156 45.5736 195.337 45.5736 206.662C45.5736 217.986 50.3889 227.167 56.329 227.167Z" fill="#DBDBDB"/>
<path d="M56.329 225.569C61.8045 225.569 66.2432 217.104 66.2432 206.662C66.2432 196.219 61.8045 187.754 56.329 187.754C50.8535 187.754 46.4148 196.219 46.4148 206.662C46.4148 217.104 50.8535 225.569 56.329 225.569Z" fill="#A6A6A6"/>
<path d="M54.7701 201.918H57.8767C56.8337 199.036 60.5011 188.943 60.5011 188.943L58.8581 187.895C57.7702 191.461 57.2263 192.504 56.329 192.504C55.4318 192.504 54.8879 191.461 53.7944 187.895L52.1626 188.943C52.1626 188.943 55.8244 199.036 54.7701 201.918Z" fill="#DBDBDB"/>
<path d="M58.1459 202.282L59.1104 207.929C60.2319 205.125 66.4002 208.647 66.4002 208.647V205.355C64.2806 204.48 63.5964 203.813 63.3161 202.187C63.0357 200.561 63.3946 199.255 64.8357 196.171L63.8039 193.53C63.8039 193.53 59.9179 203.292 58.1459 202.282Z" fill="#DBDBDB"/>
<path d="M58.9982 208.512L56.4803 212C58.2243 213.166 58.3701 225.457 58.3701 225.457L60.0187 224.47C59.8 220.365 59.9234 218.908 60.6468 217.904C61.3702 216.9 62.1328 217.136 64.1179 218.795L65.1216 216.115C65.1216 216.115 59.0542 212.033 58.9982 208.512Z" fill="#DBDBDB"/>
<path d="M56.1944 212L53.6766 208.512C53.6317 212.033 47.5587 216.098 47.5587 216.098L48.5569 218.779C50.542 217.096 51.3046 216.883 52.028 217.887C52.7513 218.891 52.8747 220.349 52.656 224.459L54.3046 225.44C54.3046 225.44 54.428 213.166 56.1944 212Z" fill="#DBDBDB"/>
<path d="M53.5476 207.929L54.5121 202.282C52.7401 203.292 48.8372 193.53 48.8372 193.53L47.783 196.176C49.2298 199.255 49.5831 200.567 49.3027 202.187C49.0223 203.808 48.3382 204.48 46.2185 205.361V208.647C46.2185 208.647 52.4317 205.125 53.5476 207.929Z" fill="#DBDBDB"/>
<path d="M53.4523 206.527C53.4523 209.56 54.7364 212.016 56.329 212.016C57.9215 212.016 59.2056 209.56 59.2056 206.527C59.2056 203.494 57.9215 201.038 56.329 201.038C54.7364 201.038 53.4523 203.522 53.4523 206.527Z" fill="#DBDBDB"/>
<path d="M309.607 214.96H176.146C173.813 214.96 172.35 170.182 152.953 170.182C142.299 170.182 136.759 188.999 140.701 213.648C140.701 213.648 73.2078 214.013 72.4732 213.721C71.7386 213.429 64.4544 169.52 50.3008 169.52C42.7194 169.52 41.6988 189.066 41.9904 192.571C41.9904 192.571 37.3978 172.497 50.0092 155.16C50.57 154.358 54.8934 143.598 58.4655 140.391C58.4655 140.391 60.0019 135.176 65.6936 129.267C65.6936 129.267 79.0397 103.014 86.6267 97.306C94.2138 91.5979 132.244 89.3831 162.217 88.6598C198.033 87.7963 221.366 91.6147 229.536 95.3322C237.706 99.0498 251.198 108.683 273.079 134.279C273.079 134.279 291.023 141.355 296.855 149.301C302.687 157.246 308.67 172.29 308.67 172.29C308.67 172.29 312.971 176.815 312.242 190.087C312.831 193.482 312.978 196.938 312.68 200.37C312.231 206.645 310.919 214.96 309.607 214.96Z" fill="#FFC727"/>
<path d="M69.5461 129.412C70.1068 130.068 78.1537 130.876 102.367 132.698C126.581 134.52 148.271 137.217 148.91 137.072C149.267 136.946 149.581 136.721 149.813 136.423C150.046 136.125 150.188 135.766 150.222 135.39C150.222 134.733 139.568 102.683 132.278 98.4891C126.951 95.422 110.296 94.9117 101.251 95.8593C92.2063 96.8069 86.6716 100.967 82.4323 106.434C78.193 111.901 68.7442 128.465 69.5461 129.412Z" fill="#263238"/>
<path d="M140.398 96.3023C138.917 97.0704 145.024 104.713 150.677 117.671C155.308 128.274 157.535 135.395 157.966 135.541C158.398 135.687 271.24 134.739 271.599 134.593C271.957 134.448 248.136 106.272 231.93 97.5471C228.14 95.5005 210.061 94.1828 188.679 93.8968C167.297 93.6109 142.22 95.3547 140.398 96.3023Z" fill="#263238"/>
<path d="M144.368 97.8386C143.493 98.8199 149.729 108.229 153.671 117.963C157.613 127.697 161.819 131.038 164.83 131.42C167.841 131.801 210.123 131.313 225.33 131.094C240.538 130.876 263.4 131.094 263.894 130.326C264.387 129.558 259.626 121.916 251.31 113.92C242.994 105.924 233.501 99.19 231.403 98.3265C227.136 96.577 204.65 95.4444 191.029 95.4388C175.933 95.4332 145.411 96.6668 144.368 97.8386Z" fill="#37474F"/>
<path opacity="0.1" d="M263.894 130.326C263.4 131.089 240.538 130.887 225.33 131.089C210.123 131.291 167.836 131.801 164.83 131.42C161.824 131.038 157.613 127.702 153.671 117.963C149.729 108.223 143.499 98.8199 144.374 97.8386C145.069 97.0536 158.92 96.2462 172.541 95.792C168.694 99.1058 166.636 103.934 170.858 108.285C176.662 114.262 209.629 123.542 256.924 119.847C261.712 125.358 264.264 129.76 263.894 130.326Z" fill="white"/>
<path d="M137.97 133.993C138.245 134.021 141.144 118.181 141.088 117.856C141.032 117.531 135.452 103.743 131.297 100.738C127.142 97.7321 108.238 96.9079 99.9224 98.1638C91.6064 99.4198 87.8885 102.268 84.552 106.204C81.2155 110.141 71.6546 127.59 71.806 128.246C71.8901 128.571 85.4717 129.558 99.9785 130.876C115.074 132.244 137.504 133.937 137.97 133.993Z" fill="#37474F"/>
<path opacity="0.1" d="M139.097 128.947C138.536 131.751 138.076 133.993 137.975 133.993C137.504 133.932 115.08 132.244 99.984 130.876C85.4772 129.558 71.8956 128.571 71.8115 128.246C71.6489 127.59 81.221 110.141 84.5575 106.21C87.894 102.279 91.6175 99.4255 99.9335 98.1695C101.33 97.9564 109.214 97.7994 110.79 97.7041C101.582 100.653 88.5053 106.917 95.3073 114.716C101.358 121.658 123.956 126.755 139.097 128.947Z" fill="white"/>
<path d="M97.4943 131.19C97.7803 131.19 96.7429 130.528 96.6083 130.242C96.4737 129.956 103.236 106.541 106.982 97.7209L114.833 96.8798C114.833 96.8798 103.836 96.9808 101.935 97.6816C102.038 97.719 102.129 97.7836 102.198 97.8685C102.267 97.9534 102.312 98.0555 102.328 98.1639C102.44 98.5844 98.4644 108.632 96.5634 114.75C94.6625 120.867 92.0157 129.85 91.8587 130.007C91.3141 130.239 90.7515 130.427 90.1764 130.567C90.1764 130.567 95.3298 131.251 97.4943 131.19Z" fill="#263238"/>
<path d="M176.247 133.567H187.838C187.838 133.567 187.087 131.005 186.761 130.635C186.436 130.265 183.447 129.726 182.045 129.726C180.644 129.726 177.649 130.259 177.329 130.635C177.01 131.01 176.247 133.567 176.247 133.567Z" fill="#263238"/>
<path d="M181.748 130.461C181.748 130.461 188.533 128.168 189.173 128.078C189.812 127.988 217.026 128.078 217.026 128.078L217.082 128.599C217.082 128.599 190.816 129.205 190.39 129.261C189.963 129.317 181.933 132.205 181.933 132.205L181.748 130.461Z" fill="#263238"/>
<path d="M219.678 133.567H231.269C231.269 133.567 230.517 131.005 230.192 130.635C229.867 130.265 226.878 129.726 225.476 129.726C224.074 129.726 221.08 130.259 220.755 130.635C220.429 131.01 219.678 133.567 219.678 133.567Z" fill="#263238"/>
<path d="M225.179 130.461C225.179 130.461 231.959 128.168 232.603 128.078C233.248 127.988 260.456 128.078 260.456 128.078L260.512 128.599C260.512 128.599 234.246 129.205 233.815 129.261C233.383 129.317 225.364 132.205 225.364 132.205L225.179 130.461Z" fill="#263238"/>
<g opacity="0.2">
<path d="M157.972 135.541C157.419 136.156 157.033 136.904 156.851 137.711C156.699 138.524 157.002 139.337 157.176 140.128C157.58 141.72 158.045 143.301 158.538 144.866C159.699 148.482 160.344 150.955 164.533 151.656C171.01 152.777 177.481 154.078 183.946 155.317L193.642 157.184C196.048 157.577 198.464 158.306 200.932 158.199C215.001 158.054 248.249 157.857 262.671 157.784C269.002 157.728 286.139 157.594 292.307 157.554C293.956 157.554 295.605 157.554 297.248 157.47C297.685 157.526 297.954 157.156 298.167 156.82C298.752 155.732 299.206 154.578 299.519 153.383C299.104 154.74 298.773 156.242 297.836 157.347C297.761 157.416 297.673 157.47 297.576 157.505C297.48 157.539 297.378 157.554 297.276 157.549C295.627 157.639 293.978 157.667 292.335 157.711C286.223 157.874 269.07 158.171 262.699 158.272C242.815 158.53 220.934 158.659 200.954 158.771C198.464 158.883 196.014 158.126 193.586 157.728L183.896 155.799C177.436 154.499 170.998 153.164 164.511 151.959C160.249 151.162 159.559 148.667 158.437 144.916C157.961 143.335 157.523 141.748 157.142 140.144C156.886 139.356 156.789 138.525 156.856 137.7C157.048 136.894 157.444 136.15 158.006 135.541H157.972Z" fill="black"/>
<path d="M191.304 166.425C188.9 166.928 186.531 167.582 184.21 168.382C182.13 169.06 179.258 170.002 177.268 170.815C173.83 172.122 170.427 173.557 167.096 175.116C166.822 175.219 166.571 175.373 166.355 175.57C165.771 176.274 165.278 177.048 164.886 177.875C165.104 177.296 165.362 176.734 165.66 176.193C165.926 175.607 166.383 175.128 166.955 174.836C172.382 171.91 178.114 169.59 184.047 167.916C186.407 167.194 188.828 166.694 191.281 166.425H191.304Z" fill="black"/>
<path d="M141.088 136.068C140.398 138.838 139.658 141.597 139.024 144.372C138.894 145.063 138.856 145.768 138.912 146.469C138.972 147.285 138.987 148.103 138.957 148.92C138.682 149.951 138.222 151.751 137.953 152.805C137.202 156.248 136.018 159.696 136.086 163.24C136.086 164.586 136.086 168.286 136.086 169.66C136.119 179.377 136.058 189.874 135.985 199.619C136.052 201.032 136.254 202.456 136.45 203.869C136.607 207.099 136.562 210.452 137.605 213.536C136.428 210.486 136.394 207.11 136.136 203.881C135.917 202.568 135.688 201.077 135.575 199.636C135.486 189.874 135.435 179.394 135.463 169.666C135.463 167.698 135.463 164.109 135.463 162.169C135.682 158.928 136.697 155.811 137.465 152.699C137.751 151.667 138.245 149.85 138.536 148.83C138.665 147.338 138.317 145.796 138.699 144.31C139.422 141.541 140.218 138.804 141.032 136.068H141.088Z" fill="black"/>
<path d="M95.9353 131.425C94.1297 135.227 91.7297 138.9 91.4773 143.2C90.563 145.13 89.7598 147.111 89.0717 149.133C88.3608 151.122 87.9085 153.195 87.7259 155.3C87.7259 159.506 88.3819 163.756 88.8474 167.944C89.6549 174.258 90.5988 180.555 91.6792 186.835C92.5035 190.85 92.582 195.509 96.1092 198.212C98.5824 200.17 101.61 201.3 104.762 201.441L107.93 201.705C112.141 202.058 131.482 203.067 136.142 203.387C127.652 203.017 129.115 203.135 120.631 202.63C116.84 202.31 105.193 202.299 101.521 201.509C97.3765 200.505 93.2325 197.584 92.3016 193.216C91.3315 189.044 90.6923 184.85 90.0586 180.645C88.9034 172.234 87.395 163.823 87.2941 155.272C87.6866 150.989 89.3689 146.974 91.2194 143.144C91.4885 139.079 94.0568 135.154 95.9353 131.453V131.425Z" fill="black"/>
</g>
<path opacity="0.1" d="M312.674 200.376C312.231 206.645 310.913 214.955 309.607 214.955H176.146C173.808 214.955 172.356 170.17 152.953 170.17C142.299 170.17 136.759 188.988 140.701 213.637C140.701 213.637 73.2078 214.001 72.4732 213.704C71.7386 213.407 64.4544 169.509 50.3008 169.509C42.7138 169.509 41.6932 189.061 41.9904 192.56C41.1803 188.795 40.9477 184.928 41.3007 181.093C41.8222 177.006 44.94 165.5 50.6597 165.5C56.3795 165.5 58.9702 172.066 60.7197 172.497C62.4693 172.929 64.146 171.337 64.146 167.451C64.0426 164.313 63.6673 161.189 63.0244 158.115C62.9572 157.897 128.039 156.141 129.715 156.22C131.392 156.298 143.903 158.042 144.121 158.188C144.609 158.873 144.987 159.63 145.243 160.431C145.243 160.666 142.248 164.49 141.071 168.017C140.673 169.217 143.589 167.036 144.133 167.053C144.677 167.07 142.153 171.04 141.946 172.901C141.878 173.563 145.994 165.646 153.542 165.646C161.09 165.646 167.471 173.905 172.047 185.27C172.776 187.093 185.903 182.142 186.627 182.142C187.35 182.142 288.522 180.46 293.62 180.319C297.023 180.23 300.385 179.543 303.551 178.29C303.915 178.071 304.571 171.875 308.659 172.307C308.659 172.307 312.96 176.826 312.231 190.104C312.819 193.495 312.967 196.947 312.674 200.376Z" fill="black"/>
<path d="M227.187 169.318C227.187 169.913 243.381 169.649 259.054 169.43C273.763 169.223 288.018 169.1 288.018 168.427C288.018 167.754 273.673 167.815 258.914 167.978C243.286 168.158 227.187 168.472 227.187 169.318Z" fill="#EBEBEB"/>
<path opacity="0.2" d="M288.018 168.432C288.018 169.105 273.758 169.228 259.054 169.436C243.353 169.66 227.187 169.924 227.187 169.324C227.187 169.184 227.601 169.06 228.364 168.954C228.364 169.402 244.194 169.206 259.525 169.038C273.797 168.881 287.636 168.791 287.844 168.303C287.956 168.348 288.018 168.387 288.018 168.432Z" fill="black"/>
<path d="M259.133 163.711C255.634 163.711 254.467 167.244 254.793 169.705C255.118 172.167 256.766 174.544 260.153 174.393C264.169 174.213 264.533 170.535 264.314 168.785C264.096 167.036 262.638 163.711 259.133 163.711Z" fill="#EBEBEB"/>
<path opacity="0.2" d="M264.152 171.269C263.742 172.783 262.66 174.264 260.153 174.376C256.761 174.527 255.107 172.133 254.798 169.688C254.49 167.244 255.634 163.689 259.133 163.689C259.256 163.689 259.374 163.689 259.492 163.689C256.559 163.896 255.566 166.974 255.864 169.139C256.166 171.382 257.658 173.552 260.742 173.411C262.654 173.344 263.675 172.391 264.152 171.269Z" fill="black"/>
<path d="M222.274 178.531C222.274 179.125 240.925 178.862 258.982 178.637C275.922 178.43 292.347 178.306 292.347 177.634C292.347 176.961 275.821 177.028 258.819 177.191C240.813 177.364 222.274 177.678 222.274 178.531Z" fill="#EBEBEB"/>
<path opacity="0.2" d="M292.347 177.639C292.347 178.312 275.922 178.435 258.982 178.637C240.925 178.862 222.274 179.125 222.274 178.525C222.274 178.391 222.751 178.262 223.626 178.161C223.626 178.609 241.862 178.407 259.514 178.245C275.95 178.088 291.892 177.992 292.134 177.51C292.274 177.555 292.347 177.594 292.347 177.639Z" fill="black"/>
<path d="M185.982 196.659C186.745 196.047 200.859 197.746 265.61 196.659C295.728 196.148 310.969 193.928 311.553 193.978C312.136 194.029 312.214 195.924 310.431 197.23C309.377 197.993 288.001 201.469 265.856 201.469C246.163 201.469 203.859 201.761 197.079 200.909C190.3 200.056 187.782 198.941 186.986 198.503C186.189 198.066 185.253 197.242 185.982 196.659Z" fill="#EBEBEB"/>
<g opacity="0.2">
<path d="M311.928 194.904C311.855 195.376 311.683 195.827 311.423 196.228C311.163 196.629 310.821 196.971 310.42 197.23C309.371 197.987 287.99 201.469 265.845 201.469C246.151 201.469 203.848 201.761 197.063 200.909C190.277 200.056 187.776 198.946 186.969 198.509C186.161 198.072 185.236 197.264 185.96 196.681C186.088 196.616 186.23 196.582 186.375 196.58C186.635 196.82 186.923 197.027 187.232 197.197C188.018 197.634 190.535 198.728 197.326 199.602C204.117 200.477 246.51 200.163 266.243 200.163C288.455 200.163 309.848 196.692 310.902 195.935C311.302 195.654 311.649 195.305 311.928 194.904Z" fill="black"/>
</g>
<path d="M212.691 195.582C214.704 194.892 247.138 194.746 263.658 194.539C282.163 194.315 303.225 193.67 304.537 194.158C305.85 194.646 306.181 197.875 305.85 200.612C305.519 203.348 303.079 205.972 297.063 206.779C291.046 207.587 277.021 208.26 263.182 208.585C249.342 208.91 227.293 209.19 221.282 208.585C215.27 207.979 211.749 204.464 210.56 202.025C209.371 199.585 210.779 196.232 212.691 195.582Z" fill="#EBEBEB"/>
<path d="M213.425 195.918C215.405 195.285 247.346 195.15 263.613 194.965C281.855 194.752 302.58 194.158 303.87 194.612C305.16 195.066 305.485 198.038 305.166 200.561C304.846 203.084 302.435 205.501 296.507 206.258C290.58 207.015 276.774 207.62 263.148 207.94C249.522 208.26 227.82 208.501 221.882 207.94C215.943 207.379 212.5 204.138 211.323 201.89C210.145 199.642 211.525 196.524 213.425 195.918Z" fill="#263238"/>
<path d="M239.495 181.962C239.265 182.108 239.445 193.339 239.714 193.446C239.983 193.552 285.5 192.515 285.696 192.352C285.892 192.19 285.298 181.194 285.259 181.048C285.219 180.903 239.843 181.744 239.495 181.962Z" fill="white"/>
<path d="M245.697 193.373C242.108 193.434 239.775 193.474 239.714 193.451C239.445 193.339 239.265 182.108 239.495 181.962C239.579 181.917 241.861 181.839 245.366 181.744L245.697 193.373Z" fill="#455A64"/>
<path d="M141.088 99.1899C139.315 96.5726 136.904 94.4499 134.084 93.0221C130.803 91.4353 116.7 90.6279 116.7 90.6279C116.7 90.6279 129.553 90.8914 133.489 91.71C137.426 92.5287 141.093 96.577 141.093 96.577L141.088 99.1899Z" fill="#263238"/>
<path d="M136.31 138.384C136.17 138.137 134.998 138.092 134.123 137.548C133.248 137.004 131.824 134.375 131.644 133.864C131.465 133.354 133.501 130.326 133.501 128.1C133.501 125.874 128.801 122.084 127.557 121.792C126.312 121.501 118.024 122.011 117.166 122.157C116.308 122.302 110.745 125.476 110.745 127.153C110.745 128.829 112.427 132.513 114.833 133.719C117.239 134.924 123.513 134.812 124.422 135.031C125.33 135.249 130.915 145.123 131.712 145.684C132.508 146.245 134.448 146.155 134.774 146.082C135.099 146.009 136.271 144.4 136.562 143.75C136.854 143.099 136.714 139.079 136.31 138.384Z" fill="#263238"/>
<path d="M132.945 126.519C132.945 128.341 130.478 130.921 128.616 131.42C126.755 131.919 119.207 131.908 116.745 131.745C114.283 131.582 111.67 129.502 110.992 128.51C110.85 128.073 110.77 127.618 110.756 127.158C110.756 125.476 116.297 122.308 117.171 122.157C118.046 122.005 126.323 121.506 127.568 121.792C128.532 122.022 131.656 124.416 132.945 126.519Z" fill="#FFC727"/>
<path d="M134.779 146.077L126.48 133.92L136.31 144.215L134.779 146.077Z" fill="white"/>
<path d="M113.521 125.128C114.754 124.329 116.031 123.599 117.345 122.942C118.057 122.723 125.442 122.342 126.485 122.381" fill="white"/>
<g opacity="0.1">
<path d="M58.4375 140.391C88.9203 141.35 125.414 145.051 155.522 150.018C157.529 150.392 159.531 150.781 161.527 151.185C159.509 150.919 157.49 150.643 155.471 150.355C125.414 146.688 88.6175 142.982 58.4599 140.391H58.4375Z" fill="black"/>
<path d="M225.543 136.068C229.831 137.937 233.99 140.089 237.992 142.511C241.918 144.899 245.938 148.062 247.525 152.536C247.05 151.475 246.422 150.49 245.663 149.609C243.477 146.879 240.617 144.849 237.65 143.049C234.207 140.924 229.104 138.098 225.538 136.068H225.543Z" fill="black"/>
</g>
<path opacity="0.3" d="M235.721 136.068C239.813 138.012 243.774 140.218 247.581 142.673C251.293 145.129 255.157 148.196 256.694 152.536C254.736 148.432 250.94 145.651 247.234 143.206C243.953 141.058 239.108 138.159 235.721 136.068Z" fill="white"/>
<path opacity="0.2" d="M96.5186 146.194C95.2064 147.725 94.3989 151.19 94.5111 152.211C94.5347 152.655 94.7241 153.074 95.0417 153.386C95.3594 153.697 95.7824 153.878 96.227 153.893C97.1018 153.927 98.0831 152.435 98.6327 150.759C99.1822 149.082 99.0308 146.307 98.6327 146.2C98.2345 146.093 97.0962 145.516 96.5186 146.194Z" fill="black"/>
<path d="M91.1465 150.366C91.4549 150.635 99.3784 151.628 99.6532 151.572C99.928 151.516 100.612 149.738 100.214 149.273C99.8158 148.807 92.0886 147.933 91.5951 148.073C91.1017 148.213 90.7372 150.013 91.1465 150.366Z" fill="#DBDBDB"/>
<path d="M100.13 150.742C99.9784 151.179 99.7765 151.549 99.6532 151.572C99.3784 151.628 91.4549 150.63 91.1521 150.372C91.0528 150.205 90.9887 150.019 90.9636 149.826C90.9385 149.633 90.953 149.437 91.0063 149.25C91.0203 149.364 91.0739 149.469 91.1577 149.547C91.4717 149.805 98.9971 150.686 100.13 150.742Z" fill="#C7C7C7"/>
<path opacity="0.2" d="M66.047 142.875C64.7348 144.406 63.9329 147.871 64.0451 148.891C64.0673 149.335 64.2555 149.754 64.5723 150.066C64.889 150.378 65.3113 150.559 65.7554 150.574C66.6302 150.613 67.6171 149.116 68.161 147.439C68.705 145.763 68.5648 142.987 68.161 142.881C67.7573 142.774 66.6302 142.197 66.047 142.875Z" fill="black"/>
<path d="M60.6805 147.052C60.9833 147.316 68.9124 148.308 69.1872 148.252C69.462 148.196 70.1405 146.419 69.748 145.959C69.3554 145.499 61.6226 144.619 61.1347 144.753C60.6469 144.888 60.2656 146.693 60.6805 147.052Z" fill="#DBDBDB"/>
<path d="M69.6526 147.45C69.5012 147.882 69.2937 148.252 69.1703 148.28C68.9012 148.331 60.972 147.338 60.6692 147.075C60.4786 146.912 60.4505 146.43 60.5234 145.953C60.5383 146.067 60.5918 146.172 60.6748 146.25C61.0057 146.486 68.5311 147.366 69.6526 147.45Z" fill="#C7C7C7"/>
<path d="M140.869 213.648C140.869 213.648 138.413 215.964 134.33 213.418C133.862 211.206 133.625 208.951 133.624 206.69C133.551 199.638 135.912 192.776 140.308 187.261C140.359 193.339 138.884 203.875 140.869 213.648Z" fill="#263238"/>
<g opacity="0.4">
<path d="M46.6615 161.356C47.9625 159.293 49.3083 157.252 50.6373 155.188C52.6336 150.703 55.8355 144.277 59.1664 140.374C60.7494 136.389 63.0172 132.711 65.8675 129.508C70.219 121.097 74.8396 112.782 80.307 105.021C82.4547 102.184 84.5744 99.0946 87.6922 97.205C90.8549 95.478 94.3428 94.5473 97.7859 93.6389C100.079 93.0782 108.765 92.5455 111.093 92.1306C105.435 93.6613 93.2437 95.0575 88.1015 97.9171C85.1856 99.8236 83.2229 102.863 81.1818 105.655C78.5126 109.524 76.0901 113.572 73.7293 117.654C71.3685 121.736 69.0862 125.925 66.9105 130.136C64.0222 133.318 61.6853 136.961 59.9963 140.913C56.6318 144.765 53.3401 150.882 51.0522 155.491C49.5943 157.454 48.1475 159.416 46.6615 161.373V161.356Z" fill="white"/>
<path d="M159.015 136.236C192.167 135.575 227.988 135.827 261.073 135.115C264.438 135.014 268.251 134.84 271.615 134.605C253.234 136.696 233.876 136.601 215.343 136.92C197.113 136.971 177.212 136.887 159.026 136.253L159.015 136.236Z" fill="white"/>
<path d="M192.672 181.463C208.339 180.903 232.116 180.488 248.007 180.146C266.445 179.747 284.905 179.708 303.315 178.581C285.259 180.717 266.238 180.891 248.035 181.418C230.091 181.687 210.56 181.856 192.672 181.463Z" fill="white"/>
<path d="M204.924 153.383C210.605 156.063 216.773 164.148 211.424 169.879C207.812 173.888 201.139 173.383 196.648 171.387C201.094 172.436 207.268 172.705 210.498 169.043C215.209 163.773 209.377 156.708 204.924 153.383Z" fill="white"/>
<path d="M199.878 175.29C205.065 176.568 210.325 181.856 204.364 186.095C203.587 186.657 202.739 187.112 201.84 187.446C198.066 188.612 193.636 188.382 190.216 186.392C194.242 187.67 200.175 187.637 203.674 185.063C208.928 181.581 203.64 177.157 199.911 175.29H199.878Z" fill="white"/>
<path d="M291.517 156.343C291.702 160.891 294.674 166.498 298.565 168.92C300.192 169.952 302.171 170.434 303.803 169.172C304.616 168.578 305.208 167.73 305.485 166.761C305.445 167.844 304.994 168.87 304.224 169.632C302.597 171.382 299.872 171.079 297.999 169.957C293.67 167.586 290.479 161.182 291.539 156.343H291.517Z" fill="white"/>
<path d="M305.065 176.344C305.031 178.85 307.414 187.328 310.779 183.375C311.161 182.911 311.435 182.367 311.581 181.783C311.671 182.46 311.56 183.149 311.261 183.764C310.962 184.378 310.488 184.891 309.898 185.237C305.603 186.852 303.635 179.265 305.025 176.344H305.065Z" fill="white"/>
</g>
<path d="M294.803 151.656C290.877 152.216 291.629 158.771 293.322 162.214C295.016 165.657 298.442 169.318 301.964 169.318C305.485 169.318 306.125 163.083 303.225 157.672C300.809 153.17 297.808 151.218 294.803 151.656Z" fill="white"/>
<path d="M301.964 169.643C298.296 169.643 294.764 165.864 293.036 162.354C291.707 159.646 291.063 155.452 292.291 153.114C292.523 152.638 292.869 152.227 293.298 151.918C293.728 151.609 294.228 151.411 294.752 151.342C298.01 150.865 301.117 153.063 303.506 157.51C305.53 161.289 305.973 165.735 304.566 168.085C304.315 168.557 303.94 168.952 303.482 169.226C303.023 169.501 302.498 169.645 301.964 169.643ZM294.848 151.975C294.423 152.03 294.018 152.19 293.67 152.441C293.323 152.691 293.043 153.025 292.857 153.411C291.735 155.542 292.375 159.579 293.608 162.074C295.251 165.438 298.566 169.004 301.964 169.004C302.387 169.007 302.803 168.894 303.166 168.676C303.529 168.459 303.825 168.145 304.022 167.771C305.323 165.601 304.868 161.418 302.945 157.824C300.685 153.618 297.814 151.544 294.848 151.975Z" fill="#C7C7C7"/>
<path d="M295.162 153.383C293.732 154.056 293.967 155.968 294.231 157.246C295.021 160.537 297.164 163.711 300.124 165.326C300.529 165.551 300.998 165.63 301.453 165.55C301.565 165.578 301.829 165.135 301.908 164.547C302.468 161.25 299.586 152.177 295.178 153.383H295.162ZM295.162 153.383C298.846 152.172 303.012 159.315 303.573 162.354C304.784 167.63 300.814 169.139 297.405 165.432C295.419 163.152 294.211 160.298 293.956 157.285C293.855 155.956 293.704 154.044 295.139 153.36L295.162 153.383Z" fill="#DBDBDB"/>
<path d="M194.169 151.661C187.042 152.643 185.432 159.27 188.393 164.193C192.537 171.079 200.915 172.66 206.338 171.281C212.394 169.733 213.627 163.223 208.996 157.824C204.891 153.058 199.423 150.932 194.169 151.661Z" fill="white"/>
<path d="M202.552 172.049C197.298 172.049 191.337 169.677 188.141 164.356C186.498 161.625 186.234 158.339 187.451 155.788C188.618 153.36 190.99 151.779 194.141 151.342C199.653 150.579 205.154 152.867 209.237 157.605C211.743 160.521 212.702 163.963 211.799 166.817C211.053 169.2 209.141 170.894 206.416 171.589C205.152 171.9 203.854 172.055 202.552 172.049ZM194.225 151.975C191.298 152.379 189.094 153.831 188.029 156.069C186.907 158.424 187.148 161.474 188.685 164.025C192.554 170.462 200.629 172.402 206.259 170.967C208.76 170.333 210.515 168.791 211.194 166.627C212.029 163.986 211.115 160.767 208.754 158.02C204.829 153.45 199.524 151.246 194.225 151.975Z" fill="#C7C7C7"/>
<path d="M195.588 153.843C190.541 154.471 189.167 159.926 192.145 163.588C194.618 166.952 198.986 168.427 202.995 167.939C207.717 167.541 208.839 163.173 206.472 159.416C205.336 157.593 203.758 156.085 201.885 155.031C199.968 153.97 197.76 153.553 195.588 153.843ZM195.588 153.843C200.035 153.192 204.453 155.413 207.257 158.889C209.635 161.648 210.095 166.436 206.696 168.657C203.562 170.613 199.58 170.176 196.378 168.757C194.266 167.768 192.506 166.158 191.332 164.143C188.741 159.982 190.378 154.487 195.571 153.871L195.588 153.843Z" fill="#DBDBDB"/>
<path d="M308.02 173.501C305.839 173.103 305.048 176.731 305.334 178.878C305.62 181.026 306.792 183.6 308.698 184.233C310.605 184.867 312.063 181.648 311.463 178.234C310.964 175.391 309.708 173.804 308.02 173.501Z" fill="white"/>
<path d="M309.164 184.631C308.973 184.627 308.784 184.595 308.603 184.536C306.59 183.857 305.345 181.172 305.048 178.929C304.818 177.207 305.244 174.791 306.354 173.737C306.578 173.507 306.854 173.335 307.159 173.238C307.464 173.14 307.789 173.119 308.104 173.176C309.994 173.524 311.3 175.29 311.788 178.166C312.197 180.594 311.614 183.106 310.409 184.138C310.069 184.451 309.625 184.626 309.164 184.631ZM307.695 173.804C307.521 173.805 307.349 173.841 307.189 173.909C307.029 173.978 306.885 174.077 306.764 174.202C305.816 175.105 305.446 177.32 305.642 178.85C305.911 180.886 307.01 183.336 308.766 183.942C308.969 184.011 309.187 184.023 309.397 183.976C309.607 183.93 309.799 183.827 309.954 183.678C310.829 182.927 311.536 180.785 311.115 178.295C310.683 175.705 309.556 174.118 307.953 173.81C307.867 173.8 307.781 173.798 307.695 173.804Z" fill="#C7C7C7"/>
<path d="M307.902 174.488C305.457 174.987 306.882 182.142 309.091 182.338C310.958 181.542 310.465 174.359 307.902 174.488ZM307.902 174.488C310.566 174.365 311.878 182.523 309.119 182.977C306.579 182.646 306.136 178.357 306.601 176.366C306.764 175.637 307.022 174.578 307.902 174.488Z" fill="#DBDBDB"/>
<path d="M189.969 175.284C184.445 176.927 183.93 181.289 186.829 183.93C190.883 187.625 197.685 187.407 201.801 185.764C206.416 183.93 206.663 179.691 202.362 176.989C200.534 175.844 198.484 175.101 196.348 174.807C194.212 174.513 192.038 174.676 189.969 175.284Z" fill="white"/>
<path d="M195.717 187.261C191.948 187.261 188.595 185.977 186.616 184.171C185.924 183.597 185.399 182.847 185.095 182.002C184.79 181.156 184.717 180.244 184.883 179.361C185.337 177.359 187.126 175.806 189.874 174.987C191.989 174.358 194.214 174.187 196.4 174.486C198.586 174.785 200.684 175.546 202.552 176.72C204.75 178.105 205.917 179.966 205.749 181.833C205.58 183.7 204.19 185.164 201.93 186.061C199.954 186.853 197.845 187.26 195.717 187.261ZM194.287 174.981C192.855 174.983 191.431 175.191 190.059 175.598C187.524 176.35 185.909 177.734 185.5 179.523C185.36 180.298 185.429 181.095 185.701 181.834C185.974 182.572 186.438 183.224 187.047 183.723C190.816 187.16 197.405 187.205 201.683 185.5C203.713 184.687 204.958 183.342 205.098 181.8C205.238 180.258 204.19 178.542 202.199 177.314C199.834 175.805 197.092 174.995 194.287 174.976V174.981Z" fill="#C7C7C7"/>
<path d="M191.337 176.439C187.793 177.381 186.414 180.925 190.019 182.91C192.633 184.379 195.907 184.267 198.728 183.515C202.093 182.742 203.377 180.061 200.197 177.875C198.917 176.997 197.46 176.413 195.928 176.165C194.396 175.917 192.829 176.011 191.337 176.439ZM191.337 176.439C194.399 175.524 197.698 175.842 200.528 177.325C203.231 178.671 204.156 181.845 201.386 183.723C199.95 184.579 198.328 185.076 196.659 185.17C193.513 185.383 189.745 184.53 188.023 181.648C186.7 179.142 189.032 176.994 191.337 176.439Z" fill="#DBDBDB"/>
<path d="M92.4058 85.1286L92.0428 85.0566C91.4109 84.9313 90.7971 85.3419 90.6717 85.9737L88.9314 94.7461C88.8061 95.3779 89.2167 95.9917 89.8485 96.117L90.2116 96.189C90.8434 96.3144 91.4573 95.9038 91.5826 95.272L93.3229 86.4995C93.4483 85.8677 93.0376 85.2539 92.4058 85.1286Z" fill="#A6A6A6"/>
<path d="M133.574 96.1909L133.937 96.1189C134.569 95.9936 134.979 95.3798 134.854 94.748L133.114 85.9756C132.988 85.3437 132.374 84.9332 131.743 85.0585L131.379 85.1305C130.748 85.2558 130.337 85.8696 130.462 86.5014L132.203 95.2739C132.328 95.9057 132.942 96.3162 133.574 96.1909Z" fill="#A6A6A6"/>
<path d="M222.814 96.1825L223.177 96.1105C223.809 95.9851 224.219 95.3714 224.094 94.7396L222.354 85.9671C222.228 85.3353 221.614 84.9247 220.982 85.0501L220.619 85.1221C219.988 85.2474 219.577 85.8612 219.702 86.493L221.443 95.2654C221.568 95.8972 222.182 96.3078 222.814 96.1825Z" fill="#C7C7C7"/>
<path d="M224.91 87.5384H88.6455C88.241 87.5384 87.853 87.3777 87.567 87.0917C87.2809 86.8056 87.1202 86.4177 87.1202 86.0132C87.1202 85.8132 87.1597 85.6151 87.2365 85.4304C87.3132 85.2457 87.4256 85.0779 87.5673 84.9368C87.709 84.7956 87.8772 84.6838 88.0622 84.6078C88.2473 84.5317 88.4455 84.493 88.6455 84.4937H224.91C225.313 84.4937 225.699 84.6538 225.984 84.9388C226.269 85.2237 226.429 85.6102 226.429 86.0132C226.43 86.2132 226.391 86.4114 226.315 86.5964C226.239 86.7814 226.128 86.9496 225.986 87.0913C225.845 87.233 225.677 87.3454 225.493 87.4222C225.308 87.4989 225.11 87.5384 224.91 87.5384Z" fill="#C7C7C7"/>
<path d="M138.699 87.5384H88.6343C88.4266 87.551 88.2185 87.5209 88.0228 87.4501C87.8272 87.3793 87.6481 87.2693 87.4965 87.1267C87.345 86.9841 87.2243 86.812 87.1417 86.621C87.0592 86.43 87.0166 86.2241 87.0166 86.016C87.0166 85.808 87.0592 85.6021 87.1417 85.4111C87.2243 85.2201 87.345 85.048 87.4965 84.9054C87.6481 84.7628 87.8272 84.6527 88.0228 84.5819C88.2185 84.5111 88.4266 84.4811 88.6343 84.4937H138.699C138.491 84.4811 138.283 84.5111 138.087 84.5819C137.892 84.6527 137.713 84.7628 137.561 84.9054C137.41 85.048 137.289 85.2201 137.206 85.4111C137.124 85.6021 137.081 85.808 137.081 86.016C137.081 86.2241 137.124 86.43 137.206 86.621C137.289 86.812 137.41 86.9841 137.561 87.1267C137.713 87.2693 137.892 87.3793 138.087 87.4501C138.283 87.5209 138.491 87.551 138.699 87.5384Z" fill="#A6A6A6"/>
</g>
<defs>
<clipPath id="clip0_9_131">
<rect width="388" height="235" fill="white" transform="translate(-39)"/>
</clipPath>
</defs>
</svg>
