<svg width="268" height="174" viewBox="0 0 268 174" fill="none" xmlns="http://www.w3.org/2000/svg">
<path d="M120.323 90.9536C126.368 91.1507 132.414 91.3485 138.46 91.5456C138.437 91.6615 138.414 91.7832 138.389 91.91C137.133 98.2265 132.02 118.207 113.073 130.622C99.4319 139.562 85.8748 139.826 80.4884 139.859C77.3996 139.877 51.1407 139.609 32.0513 118.748C20.9866 106.657 17.1789 92.9474 16.0425 84.8988C15.7639 82.9241 15.6459 81.2903 15.6212 80.1045C15.6764 79.0056 15.7614 77.849 15.887 76.6411C16.3997 71.6877 17.5774 65.875 20.031 59.6997C21.0437 57.1508 23.9435 50.3044 29.9105 42.9105C39.1192 31.5011 50.8381 24.0254 64.9231 20.4156C64.9243 20.4149 64.9256 20.4143 64.9275 20.4143C65.6204 20.2369 66.319 20.0689 67.0233 19.9098C70.4364 19.1398 73.9015 18.7095 77.4002 18.5188C77.4002 18.5188 81.0023 18.3191 84.5366 18.5036C86.4655 18.6043 100.339 20.0017 112.346 26.5851C121.231 31.4567 127.927 38.4666 132.802 45.2357C139.651 54.7451 142.905 63.7779 143.584 65.7343C142.732 65.3528 140.581 64.4535 137.681 64.046C137.675 64.0453 137.671 64.0447 137.666 64.0441C135.685 63.7671 133.356 63.7209 130.852 64.2253C130.84 64.2272 130.828 64.2298 130.816 64.2323C130.032 64.392 129.23 64.6056 128.417 64.8838C127.428 65.2216 126.522 65.6202 125.698 66.0518C125.279 66.2704 124.881 66.4973 124.504 66.7293C124.468 66.7508 124.432 66.7723 124.398 66.7945C123.435 67.3928 122.611 68.0196 121.92 68.6109C121.596 68.8891 121.301 69.159 121.036 69.4144C121.032 69.4176 121.03 69.4202 121.027 69.4227C120.759 69.6806 120.521 69.9233 120.313 70.1445C119.11 66.8503 117.564 63.7671 115.731 60.9305C107.501 48.1896 93.4896 40.43 78.8716 40.9579C76.7289 41.0352 74.6648 41.2874 72.6832 41.6854C56.5969 44.9144 45.9561 57.7446 42.9612 64.6011C40.3736 70.5273 39.6129 77.0974 39.4961 78.2381C39.4955 78.247 39.4942 78.2559 39.4936 78.2647C39.4923 78.273 39.4917 78.2812 39.491 78.2895C39.4904 78.2971 39.4891 78.304 39.4891 78.3116C39.4878 78.3211 39.4866 78.3313 39.4859 78.3408C39.4853 78.3528 39.484 78.3642 39.4828 78.3763C39.4828 78.3807 39.4821 78.3852 39.4815 78.3896C39.4815 78.3934 39.4815 78.3966 39.4815 78.3991C39.4809 78.4016 39.4809 78.4042 39.4809 78.4061C39.4802 78.4092 39.4802 78.4111 39.4802 78.4111C39.4777 78.4416 39.4752 78.472 39.4726 78.503C39.4675 78.5607 39.4625 78.6184 39.458 78.6773C39.4561 78.7008 39.4542 78.7236 39.4523 78.747C39.4472 78.8104 39.4422 78.8744 39.4371 78.9397C39.4346 78.9771 39.4314 79.0151 39.4288 79.0525C39.4263 79.0905 39.4231 79.1285 39.4206 79.1666C39.4155 79.242 39.4104 79.3174 39.4054 79.3915C39.3901 79.621 39.3762 79.8586 39.3641 80.1032C39.3609 80.166 39.3578 80.23 39.3546 80.294C39.3356 80.7148 39.3216 81.1572 39.3146 81.6198C39.3134 81.6927 39.3121 81.7662 39.3115 81.8403C39.3026 82.6972 39.3172 83.6186 39.3673 84.5959C39.6071 89.2755 40.6579 95.2188 43.7721 101.331C50.215 113.976 63.8495 124.142 79.5702 124.305C98.0277 124.496 115.277 110.859 120.323 90.9536H120.323Z" fill="#FAD353"/>
<path d="M15.552 84.658C15.5475 84.4495 15.5444 84.2372 15.5425 84.0211C15.5983 84.2296 15.5628 84.445 15.552 84.658Z" fill="#FAD353"/>
<path d="M15.6009 81.2212V81.2326C15.6009 81.2503 15.6009 81.2687 15.5996 81.2865C15.5996 81.2865 15.6002 81.2865 15.5996 81.2871C15.5989 81.3042 15.5977 81.3207 15.5958 81.3378C15.5939 81.3562 15.5913 81.3745 15.5882 81.3929V81.3942C15.585 81.4119 15.5812 81.4297 15.5761 81.4474C15.5736 81.4576 15.5704 81.4671 15.5672 81.4772C15.5723 81.2826 15.5793 81.0849 15.5869 80.8859C15.5869 80.9144 15.5882 80.943 15.5894 80.9708C15.5901 80.9854 15.5907 81 15.592 81.0139C15.5932 81.0336 15.5945 81.0532 15.5958 81.0729C15.597 81.102 15.5989 81.1312 15.5996 81.1597C15.6002 81.166 15.6002 81.173 15.6002 81.1793C15.6002 81.1933 15.6002 81.2072 15.6002 81.2212H15.6009Z" fill="#FAD353"/>
<path d="M15.5983 80.6096C15.5977 80.6483 15.5977 80.6863 15.597 80.725C15.5951 80.7376 15.5939 80.7497 15.592 80.7624C15.5932 80.7117 15.5958 80.661 15.5983 80.6096Z" fill="#FAD353"/>
<path d="M39.4365 78.9397C39.2626 81.2547 39.3 83.2016 39.3736 84.5959H39.3667C39.2537 82.3917 39.3203 80.4683 39.4365 78.9397Z" fill="#FAD353"/>
<path d="M139.773 85.4343H126.174C126.325 82.3036 128.495 77.7507 131.106 76.1341C132.622 75.1961 134.388 74.7265 136.214 74.7766C137.29 74.8064 138.347 75.0117 139.366 75.3894C139.738 78.3769 139.911 82.5432 139.773 85.4343Z" fill="#FAD353"/>
<path d="M166.383 33.6869L163.114 47.6034C156.965 51.6048 152.393 56.7192 149.682 60.9419L151.852 42.3401L136.669 40.4971C136.722 40.4376 136.774 40.378 136.827 40.3191C140.599 36.0755 144.756 32.4397 149.291 29.4059L166.383 33.6869Z" fill="#FAD353"/>
<path d="M185.023 30.6759L176.44 41.892C172.692 42.7444 169.252 44.1152 166.146 45.7991L169.425 31.8351L152.261 27.5364C158.084 24.0945 164.484 21.5779 171.445 19.9783L185.023 30.6759Z" fill="#FAD353"/>
<path d="M204.328 33.8662L190.468 41.3172C188.205 40.9984 185.907 40.8742 183.593 40.9579C182.416 41.0003 181.264 41.0954 180.134 41.2393L188.557 30.2317L174.715 19.3255C177.163 18.9111 179.634 18.6544 182.122 18.5188C182.122 18.5188 185.724 18.3191 189.258 18.5036C190.064 18.5454 192.95 18.8141 196.914 19.5911L204.328 33.8662Z" fill="#FAD353"/>
<path d="M250.349 97.7658C249.638 100.871 248.497 104.816 246.603 109.18C241.921 119.965 235.351 127.047 231.65 130.56C231.522 130.683 231.396 130.801 231.275 130.915C230.704 131.448 230.131 131.963 229.557 132.462C217.106 143.287 204 146.261 199.237 147.279C191.126 149.011 184.814 148.767 182.972 148.67C181.352 148.585 174.498 148.16 166.567 145.458C152.134 140.54 142.557 130.954 138.003 125.711C140.571 122.348 143.663 117.564 146.113 111.349C147.929 106.737 148.929 102.513 149.494 99.0542C150.885 102.338 153.498 107.37 158.291 112.172C167.53 121.429 178.38 123.332 181.25 123.751C196.624 125.999 207.918 118.562 210.173 117.01C219.18 110.811 223.409 102.543 225.263 97.7658H250.349Z" fill="#FAD353"/>
<path d="M80.7397 108.251C80.3355 108.093 80.2365 107.811 80.0893 107.577C75.7543 100.706 71.6426 93.7085 68.1597 86.359C66.9313 83.7663 65.8273 81.1248 64.9935 78.3737C63.418 73.1764 64.4542 68.4359 67.6851 64.2012C73.673 56.3535 85.3317 55.6627 92.2739 62.6802C95.3729 65.8122 96.9198 69.6337 97.029 74.0148C97.0683 75.5954 96.666 77.1322 96.1965 78.6431C94.8234 83.0597 92.7999 87.193 90.6705 91.2768C87.7923 96.7962 84.6147 102.144 81.3006 107.411C81.1293 107.683 80.944 107.947 80.7403 108.251H80.7397Z" fill="#474747"/>
<path d="M92.3247 76.0365C92.4915 81.5653 88.0493 87.7278 80.6324 87.731C73.3634 87.7342 68.8748 81.7516 68.9173 76.0333C68.9649 69.5627 74.1623 64.3292 80.6381 64.3305C87.133 64.3311 92.3253 69.5323 92.324 76.0365H92.3247Z" fill="#FAD353"/>
<path d="M15.4993 81.6255C15.5298 81.5786 15.5514 81.5311 15.5666 81.4823C15.5412 82.3733 15.5349 83.2206 15.5425 84.0185C15.5279 83.964 15.5076 83.9127 15.4784 83.8595C15.4854 83.1148 15.4924 82.3702 15.4993 81.6255Z" fill="#FAD353"/>
<path d="M15.552 84.6586C15.5533 84.7417 15.5552 84.8234 15.5571 84.9052C15.5469 84.8234 15.5476 84.7417 15.552 84.6586Z" fill="#FAD353"/>
<path d="M15.8255 76.6404C15.8458 76.6404 15.8667 76.6411 15.887 76.6411C15.7424 78.0334 15.651 79.358 15.5983 80.6039C15.6002 80.4169 15.6015 80.23 15.6034 80.043C15.6066 79.7154 15.6097 79.3877 15.6129 79.0601C15.6326 78.825 15.5729 78.5835 15.677 78.3566C15.7189 77.7818 15.7696 77.2102 15.8255 76.6404Z" fill="#FAD353"/>
<path d="M145.152 97.1333C144.97 97.9274 144.765 98.7538 144.531 99.6075C143.649 102.838 142.533 105.88 141.236 108.739C142.438 105.844 143.536 102.777 144.484 99.5371C144.717 98.7468 144.939 97.9445 145.152 97.1333Z" fill="#FAD353"/>
<path d="M239.01 44.6406C237.538 42.7343 235.058 39.8799 232.405 37.1636C230.506 35.2199 229.072 33.7623 226.9 32.1057C224.335 30.148 221.976 28.8539 220.295 28.0377C221.099 30.553 222.544 34.204 225.239 38.0211C228.174 42.1772 230.397 43.4238 233.505 47.4988C236.539 51.4756 237.983 54.9567 239.45 58.4937C244.905 71.6465 244.326 86.6777 244.074 91.0392C246.569 91.1159 249.064 91.1932 251.56 91.2699C252.16 86.6537 252.148 82.81 252.01 80.0855C252.01 80.0855 251.008 60.1788 239.01 44.64L239.01 44.6406Z" fill="#474747"/>
<path d="M228.202 63.8666C228.152 63.8824 228.102 63.8983 228.052 63.9148C226.234 64.4953 224.271 63.5934 223.536 61.8348C223.424 61.5674 223.307 61.2967 223.186 61.023C223.041 60.6947 222.893 60.374 222.745 60.0616C221.909 58.2985 222.597 56.1906 224.312 55.2578C224.333 55.2463 224.355 55.2349 224.376 55.2229C226.171 54.2469 228.421 54.9155 229.383 56.7166C229.578 57.0823 229.772 57.46 229.963 57.8492C230.127 58.1831 230.283 58.5133 230.432 58.8391C231.347 60.8436 230.302 63.1961 228.201 63.8666H228.202Z" fill="#474747"/>
<path d="M133.537 63.8666C133.487 63.8824 133.437 63.8983 133.387 63.9148C131.569 64.4953 129.606 63.5934 128.87 61.8348C128.759 61.5674 128.642 61.2967 128.521 61.023C128.375 60.6947 128.228 60.374 128.08 60.0616C127.244 58.2985 127.931 56.1906 129.647 55.2578C129.668 55.2463 129.689 55.2349 129.71 55.2229C131.505 54.2469 133.756 54.9155 134.717 56.7166C134.912 57.0823 135.106 57.46 135.297 57.8492C135.462 58.1831 135.618 58.5133 135.766 58.8391C136.681 60.8436 135.637 63.1961 133.536 63.8666H133.537Z" fill="#474747"/>
<path d="M125.056 66.2121C125.006 66.228 124.956 66.2438 124.906 66.2603C123.088 66.8408 121.125 65.939 120.389 64.1803C120.278 63.9129 120.161 63.6423 120.04 63.3685C119.894 63.0402 119.747 62.7195 119.599 62.4071C118.763 60.644 119.45 58.5362 121.166 57.6033C121.187 57.5919 121.208 57.5805 121.229 57.5684C123.024 56.5924 125.275 57.2611 126.236 59.0622C126.431 59.4278 126.625 59.8056 126.816 60.1947C126.981 60.5287 127.137 60.8588 127.285 61.1846C128.2 63.1891 127.156 65.5416 125.055 66.2121H125.056Z" fill="#474747"/>
<path d="M173.743 49.5914L172.462 47.09C172.924 47.9424 173.35 48.7777 173.743 49.5914Z" fill="white"/>
<path d="M172.462 47.09L173.743 49.5914C173.35 48.7777 172.924 47.9424 172.462 47.09Z" fill="#474747"/>
<path d="M15.5666 81.4823C15.5495 81.5368 15.5247 81.59 15.4885 81.642C15.4759 82.3702 15.4638 83.0857 15.4511 83.8138C15.4955 83.8835 15.5234 83.9488 15.5425 84.0185C15.5349 83.2206 15.5412 82.3733 15.5666 81.4823ZM15.552 84.6586C15.5476 84.7416 15.5469 84.8234 15.5571 84.9051C15.5552 84.8234 15.5533 84.7416 15.552 84.6586ZM15.5951 81.3409C15.5932 81.3587 15.5907 81.3764 15.5875 81.3942C15.5844 81.4119 15.5805 81.4297 15.5761 81.4474C15.5812 81.4297 15.585 81.4119 15.5882 81.3942V81.3929C15.5913 81.3745 15.5939 81.3562 15.5958 81.3378C15.5977 81.3207 15.5989 81.3042 15.5996 81.2871C15.5989 81.3055 15.597 81.3232 15.5951 81.3409ZM15.677 78.3566C15.5729 78.5835 15.6326 78.825 15.6129 79.0601C15.6097 79.3877 15.6066 79.7154 15.6034 80.043C15.6015 80.23 15.6002 80.4169 15.5983 80.6039C15.6053 80.4391 15.6129 80.2724 15.6212 80.1045V80.0963C15.6053 79.3053 15.6307 78.7147 15.677 78.3566ZM97.8633 146.559C99.7288 146.068 101.632 145.474 103.564 144.762C101.684 145.451 99.784 146.05 97.8633 146.559Z" fill="#474747"/>
<path d="M15.5951 81.3409C15.5939 81.3587 15.5913 81.3758 15.5882 81.3929C15.5913 81.3745 15.5939 81.3561 15.5958 81.3378C15.5958 81.339 15.5958 81.3397 15.5951 81.3409ZM15.5761 81.4474C15.5812 81.4297 15.585 81.4119 15.5882 81.3942H15.5875C15.5844 81.4119 15.5805 81.4297 15.5761 81.4474Z" fill="#474747"/>
<path d="M235.969 78.657C235.62 74.6543 234.761 70.6971 233.415 66.8959C233.041 65.5245 232.668 64.1537 232.295 62.7823C232.263 62.9413 231.747 65.2932 229.433 66.1912C227.046 67.1171 225.023 65.6113 224.92 65.5315C225.401 66.8161 225.882 68.1013 226.364 69.3865C227.499 72.5933 228.223 75.93 228.518 79.3041C228.651 80.8371 228.696 82.3917 228.651 83.9412C223.942 83.9748 219.233 84.0084 214.524 84.042C214.728 83.2092 216.34 76.1239 211.686 70.6268C209.757 68.3485 206.069 65.6322 199.442 65.6322C192.994 65.6354 186.658 69.1362 181.12 75.7557C180.67 76.2925 180.242 76.8318 179.835 77.3661C179.901 73.1992 179.533 69.0424 178.75 64.8483C178.225 62.0408 177.608 59.8252 177.209 58.4956C176.489 56.0956 175.406 53.0314 173.743 49.5914L172.462 47.09C172.147 46.5063 171.814 45.9144 171.464 45.3155C170.74 45.6438 168.972 46.5729 167.818 48.6814C166.857 50.4362 166.811 52.1156 166.797 52.9693C166.759 55.292 167.487 56.4746 168.645 60.0312C168.645 60.0312 169.456 62.2132 170.185 65.5872C171.681 72.5173 171.272 80.2274 170.498 85.4343H163.492C163.612 84.0901 163.679 80.5025 163.615 78.0359C163.498 73.4856 162.132 65.0226 158.868 54.5359C156.929 55.9967 154.566 58.3086 153.997 61.5458C153.562 64.0168 154.344 66.0232 154.658 66.9054C155.851 70.2649 156.811 75.8425 155.455 85.4343H147.199C147.204 85.3221 147.201 84.3335 147.205 84.2213C147.363 80.3206 147.121 76.3185 146.48 72.2986L146.297 71.1458L146.2 70.54L145.695 70.2491L141.483 68.2186C139.845 67.6653 138.135 67.3554 136.418 67.3079C133.125 67.2179 129.924 68.0772 127.159 69.7928C126.939 69.9297 126.722 70.0704 126.511 70.2161C126.264 70.3853 126.024 70.5602 125.789 70.7421C123.851 72.2359 122.296 74.1225 121.189 76.2469C120.918 76.7678 120.674 77.3027 120.457 77.8503C119.198 81.0329 118.88 84.6212 119.687 88.1651L120.322 90.9536C126.368 91.1507 132.413 91.3485 138.459 91.5456C138.437 91.6615 138.413 91.7832 138.388 91.91C137.132 98.2265 132.019 118.207 113.073 130.622C99.4312 139.562 85.8742 139.826 80.4878 139.859C77.3989 139.877 51.1401 139.609 32.0507 118.748C20.986 106.657 17.1783 92.9474 16.0418 84.8988C15.7633 82.924 15.6453 81.2902 15.6205 80.1045C15.6123 80.2724 15.6047 80.4391 15.5977 80.6039V80.6096C15.597 80.6482 15.597 80.6863 15.5964 80.7249C15.5945 80.7376 15.5932 80.7496 15.5913 80.7623C15.5913 80.7636 15.5913 80.7655 15.5907 80.7674C15.5888 80.806 15.5875 80.8441 15.5863 80.8827V80.8859C15.5863 80.9144 15.5875 80.9429 15.5888 80.9708C15.5894 80.9854 15.5901 81 15.5913 81.0139C15.5926 81.0336 15.5939 81.0532 15.5951 81.0729C15.5977 81.1128 15.5983 81.1445 15.5989 81.1597C15.5996 81.1926 15.6002 81.2351 15.5989 81.2864C15.5989 81.2864 15.5996 81.2864 15.5989 81.2871C15.5983 81.3042 15.597 81.3207 15.5951 81.3378C15.5932 81.3561 15.5907 81.3745 15.5875 81.3929V81.3942C15.5844 81.4119 15.5805 81.4297 15.5755 81.4474C15.5729 81.4576 15.5698 81.4671 15.5666 81.4772C15.5666 81.4778 15.566 81.4791 15.566 81.4797V81.4823C15.5406 82.3733 15.5342 83.2206 15.5418 84.0185V84.0211C15.5977 84.2296 15.5621 84.445 15.5514 84.658C15.5526 84.7416 15.5545 84.8234 15.5564 84.9051C15.5545 85.0858 15.5526 85.267 15.5514 85.4476C15.5482 85.7227 15.5456 85.9983 15.5431 86.2734C15.5583 86.5022 15.4936 86.7367 15.5932 86.9591C15.7055 90.4302 16.189 93.8575 16.9524 97.2366C20.3343 112.211 27.9701 124.598 39.9136 134.25C51.1242 143.309 64.0348 148.024 78.4237 148.703C81.6337 148.854 84.8399 148.697 88.0398 148.36C88.1971 148.344 88.3545 148.327 88.5118 148.309C88.5563 148.304 88.6001 148.299 88.6438 148.294C88.7745 148.279 88.9059 148.263 89.0366 148.248C89.194 148.229 89.3513 148.209 89.5087 148.189C89.5214 148.187 89.5347 148.186 89.548 148.184C89.7009 148.165 89.8539 148.144 90.0061 148.123C90.2536 148.09 90.5011 148.055 90.7485 148.018C91.0036 147.981 91.2587 147.942 91.5131 147.901C91.6775 147.875 91.8418 147.848 92.0055 147.82C92.1698 147.793 92.3335 147.765 92.4973 147.736C92.661 147.708 92.8247 147.679 92.9884 147.648C93.1362 147.621 93.284 147.594 93.4313 147.566C93.4643 147.559 93.4973 147.553 93.5309 147.547C93.6591 147.522 93.7866 147.497 93.9141 147.471C93.9503 147.464 93.9871 147.457 94.0239 147.45C94.1679 147.421 94.312 147.391 94.4554 147.362C94.607 147.331 94.7587 147.298 94.9097 147.266C94.9408 147.259 94.9719 147.253 95.0023 147.246C95.1451 147.215 95.2872 147.184 95.4294 147.152C95.5505 147.125 95.6724 147.097 95.7936 147.069C95.8405 147.059 95.8875 147.048 95.9344 147.037C96.0835 147.002 96.232 146.967 96.3811 146.932C96.3906 146.929 96.4008 146.927 96.4109 146.925C96.5448 146.893 96.6787 146.86 96.812 146.827C97.0588 146.766 97.3056 146.704 97.5518 146.64C97.6552 146.613 97.7593 146.586 97.8627 146.559C99.7834 146.05 101.684 145.451 103.563 144.762C103.637 144.735 103.71 144.708 103.784 144.68C119.868 138.676 130.383 127.137 136.631 118.308C138.299 115.518 140.04 112.182 141.613 108.313C142.882 105.192 143.824 102.257 144.531 99.6075C144.515 99.584 144.5 99.5606 144.484 99.5371C144.716 98.7468 144.938 97.9445 145.151 97.1333C145.151 97.1327 145.152 97.132 145.152 97.1314C145.153 97.1295 145.153 97.1282 145.153 97.1263C145.153 97.1251 145.154 97.1244 145.154 97.1232C145.478 95.3474 145.802 93.5716 146.127 91.7959C175.92 91.5994 205.713 91.4036 235.506 91.2071C235.615 90.4035 235.749 89.2983 235.861 87.9801C236.02 86.0972 236.312 82.5926 235.968 78.657H235.969ZM139.773 85.4343L126.735 85.2803C126.887 82.1414 128.495 77.7584 131.106 76.1379C132.622 75.1974 134.388 74.7265 136.214 74.7766C137.29 74.8064 138.347 75.0123 139.366 75.3913C139.738 78.3864 139.911 82.5362 139.773 85.4343Z" fill="#474747"/>
<path d="M222.391 37.9621L203.958 45.7205C200.928 44.1171 197.723 42.8876 194.411 42.0764L207.732 34.9151L200.135 20.2882C205.053 21.4543 210.976 23.3314 216.544 26.3018L222.391 37.9621Z" fill="#FAD353"/>
<path d="M207.872 85.1212C207.853 85.1726 207.834 85.229 207.811 85.2803H207.791C207.815 85.2334 207.843 85.1802 207.872 85.1212Z" fill="#474747"/>
<path d="M207.791 85.2803H207.811C207.834 85.229 207.853 85.1726 207.872 85.1212C207.843 85.1802 207.815 85.2334 207.791 85.2803Z" fill="#474747"/>
<path d="M208.766 78.6291C208.7 78.2863 208.34 76.527 207.247 74.8171C208.057 75.8768 208.564 77.1816 208.766 78.6291Z" fill="#474747"/>
<path d="M208.767 78.6361C208.767 78.6361 208.767 78.6317 208.766 78.6291C208.7 78.2863 208.34 76.527 207.247 74.8171C207.247 74.8165 207.246 74.8152 207.244 74.814C206.662 73.9026 205.871 73.0053 204.805 72.3436C202.354 70.8226 199.375 71.1249 196.678 72.0337H196.677C194.21 72.5997 191.767 73.921 189.368 75.9877C189.366 75.9889 189.364 75.9908 189.362 75.9921C188.161 77.027 186.97 78.2489 185.793 79.6564C184.091 81.6908 182.72 83.7739 181.734 85.4343H186.218L194.833 85.3728L198.343 85.3481C198.392 85.3475 198.441 85.3475 198.49 85.3469C201.587 85.331 204.685 85.3145 207.782 85.2987C207.785 85.293 207.788 85.2867 207.791 85.2803C207.816 85.2334 207.843 85.1802 207.872 85.1213C207.874 85.1168 207.876 85.1124 207.878 85.1079C208.003 84.8538 208.167 84.4932 208.329 84.042C208.772 82.8055 209.198 80.8904 208.767 78.6361Z" fill="#FAD353"/>
<path d="M207.872 85.1212C207.853 85.1726 207.834 85.229 207.811 85.2803H207.791C207.815 85.2334 207.843 85.1802 207.872 85.1212Z" fill="#FAD353"/>
<path d="M208.766 78.6291C208.7 78.2863 208.34 76.527 207.247 74.8171C208.057 75.8768 208.564 77.1816 208.766 78.6291Z" fill="#FAD353"/>
</svg>
