<svg width="24" height="25" viewBox="0 0 24 25" fill="none" xmlns="http://www.w3.org/2000/svg">
<path d="M16.0935 3.21594L21.5974 3.21594M21.5974 3.21594L21.5999 8.07947M21.5974 3.21594L15.3444 9.46898M20.4364 19.5226C20.4364 19.5226 19.2444 20.6933 18.9524 21.0365C18.4765 21.5443 17.9159 21.7841 17.1809 21.7841C17.1103 21.7841 17.0349 21.7841 16.9642 21.7794C15.565 21.69 14.2647 21.1447 13.2895 20.6792C10.6229 19.391 8.28143 17.562 6.3357 15.2442C4.72917 13.3118 3.65501 11.5252 2.94362 9.60695C2.50548 8.43625 2.34529 7.52414 2.41596 6.66375C2.46307 6.11366 2.67508 5.6576 3.06611 5.26737L4.67264 3.66413C4.90349 3.44785 5.14847 3.33031 5.38874 3.33031C5.68555 3.33031 5.92582 3.50897 6.07658 3.65943C6.08129 3.66413 6.086 3.66883 6.09072 3.67353C6.3781 3.94152 6.65135 4.21892 6.93873 4.51512C7.08478 4.66557 7.23554 4.81602 7.3863 4.97117L8.67247 6.25471C9.17185 6.75308 9.17185 7.21383 8.67247 7.7122C8.53584 7.84855 8.40392 7.98489 8.2673 8.11654C7.87156 8.52088 8.18244 8.21063 7.77256 8.57736C7.76314 8.58676 7.75371 8.59146 7.749 8.60086C7.34384 9.0052 7.41922 9.40014 7.50402 9.66813C7.50873 9.68223 7.51344 9.69634 7.51815 9.71044C7.85265 10.5191 8.32377 11.2808 9.03988 12.1882L9.04459 12.1929C10.3449 13.7914 11.7159 15.0373 13.2282 15.9918C13.4213 16.114 13.6192 16.2127 13.8076 16.3068C13.9772 16.3914 14.1374 16.4713 14.274 16.556C14.2929 16.5654 14.3117 16.5795 14.3306 16.5889C14.4908 16.6688 14.6415 16.7064 14.797 16.7064C15.188 16.7064 15.433 16.4619 15.5131 16.382L16.4366 15.4604C16.5967 15.3006 16.8511 15.1078 17.148 15.1078C17.44 15.1078 17.6803 15.2912 17.8264 15.451C17.8311 15.4557 17.8311 15.4557 17.8358 15.4604L20.4317 18.051C20.9169 18.5306 20.4364 19.5226 20.4364 19.5226Z" stroke="black" stroke-width="2" stroke-linecap="round" stroke-linejoin="round"/>
</svg>
