<svg width="22" height="22" viewBox="0 0 22 22" fill="none" xmlns="http://www.w3.org/2000/svg">
<path d="M9.8909 2.17215C10.2718 1.14265 11.728 1.14265 12.1089 2.17215L14.005 7.29629C14.1248 7.61996 14.38 7.87515 14.7036 7.99492L19.8278 9.89102C20.8573 10.272 20.8573 11.7281 19.8278 12.109L14.7036 14.0051C14.38 14.1249 14.1248 14.3801 14.005 14.7038L12.1089 19.8279C11.728 20.8574 10.2719 20.8574 9.8909 19.8279L7.9948 14.7038C7.87503 14.3801 7.61984 14.1249 7.29617 14.0051L2.17203 12.109C1.14253 11.7281 1.14253 10.272 2.17203 9.89102L7.29616 7.99492C7.61984 7.87515 7.87503 7.61996 7.9948 7.29629L9.8909 2.17215Z" stroke="black" stroke-width="2" stroke-linejoin="round"/>
</svg>
