<svg width="20" height="20" viewBox="0 0 20 20" fill="none" xmlns="http://www.w3.org/2000/svg">
<path d="M7.35294 14.2V16.3C7.35294 16.857 7.57605 17.3911 7.97319 17.7849C8.37032 18.1788 8.90895 18.4 9.47059 18.4L16.8824 18.4C17.444 18.4 17.9826 18.1788 18.3798 17.7849C18.7769 17.3911 19 16.857 19 16.3L19 3.70001C19 3.14305 18.7769 2.60891 18.3798 2.21508C17.9826 1.82126 17.444 1.60001 16.8824 1.60001L9.47059 1.60001C8.90895 1.60001 8.37032 1.82126 7.97319 2.21508C7.57605 2.60891 7.35294 3.14305 7.35294 3.70001V5.80001M13.7059 10L1 10M1 10L4.17647 13.15M1 10L4.17647 6.85001" stroke="black" stroke-width="2" stroke-linecap="round" stroke-linejoin="round"/>
</svg>
